<?xml version="1.0" encoding="utf-8"?>
<!-- Generator: Adobe Illustrator 21.1.0, SVG Export Plug-In . SVG Version: 6.00 Build 0)  -->
<svg version="1.1" xmlns="http://www.w3.org/2000/svg" xmlns:xlink="http://www.w3.org/1999/xlink" x="0px" y="0px" width="1440px" height="600px" xml:space="preserve">
	<style>
		#bgPattern path:not(.noanimate){-webkit-animation:patternAnimation 0.75s infinite;animation:patternAnimation 0.75s infinite;-webkit-transform-origin:50%;transform-origin:50%}@keyframes patternAnimation{0%, 100%{-webkit-transform:rotate(0deg);transform:rotate(0deg)}50%{-webkit-transform:rotate(16deg);transform:rotate(16deg)}}
	</style>
	<defs>
		<pattern id="bgPattern" x="10" y="10" width="72" height="72" patternUnits="userSpaceOnUse">
			<path fill="none" d="M72,71.728c-0.096,0.091-0.192,0.181-0.288,0.272h-5.598c-1.452-1.188-3.071-2.858-5.104-2.508
				c-1.369,0.236-2.587,1.309-3.363,2.508h-16.24c0.456-1.123,0.524-2.395,0.089-3.572c-0.569-1.539-1.9-2.633-3.435-3.047
				c0.787-1.319,1.01-2.942,0.432-4.429c-0.778-2.002-2.791-3.222-4.897-3.22c-1.021,0.001-0.862,1.579,0.15,1.578
				c1.394-0.001,2.756,0.902,3.265,2.206c0.508,1.299,0.123,2.896-0.905,3.836c-0.571,0.522-0.28,1.459,0.544,1.428
				c1.439-0.053,2.859,0.85,3.365,2.211c0.371,0.999,0.192,2.125-0.37,3.008H24.646c0.558-0.658,1.027-1.407,1.461-2.147
				c0.531-0.904-0.856-1.71-1.402-0.82c-0.646,1.054-1.389,2.338-2.508,2.967h-2.486c-0.64-0.452-1.11-1.221-1.602-1.84
				c-0.806-1.011-1.918-1.807-3.274-1.438c-1.717,0.467-2.565,2.163-3.798,3.277c0,0-0.001,0.001-0.001,0.001H7.784
				c-0.266-0.277-0.506-0.583-0.738-0.855c-1.033-1.211-2.495-2.401-4.179-1.753c-0.786,0.302-1.387,0.935-1.987,1.502
				C0.586,71.172,0.293,71.45,0,71.728V50.756c1.807-1.025,3.616-2.049,5.418-3.082c-1.7,3.093-3.436,6.167-5.144,9.256
				c-0.207,0.375,0.205,0.929,0.63,0.747c3.224-1.38,6.18-3.241,9.082-5.186c-1.538,3.01-3.073,6.022-4.609,9.034
				C5.122,62.025,5.699,62.5,6.161,62.24c3.075-1.728,6.149-3.456,9.224-5.184c-1.655,2.779-3.319,5.553-4.967,8.336
				c-0.387,0.654,0.667,1.19,1.054,0.537c1.998-3.374,3.974-6.76,5.969-10.135c0.298-0.505-0.348-0.985-0.8-0.73
				c-3.153,1.779-6.306,3.558-9.459,5.338c1.57-3.092,3.141-6.183,4.706-9.277c0.232-0.46-0.319-1.003-0.764-0.698
				c-2.948,2.022-5.924,4.048-9.147,5.604c1.737-3.161,3.456-6.334,5.224-9.477c0.261-0.464-0.312-0.901-0.73-0.667
				C4.307,47.097,2.154,48.329,0,49.56v-4.638c0.572-1.209,1.116-2.429,1.608-3.667c0.16-0.402-0.363-0.667-0.596-0.304
				c-0.35,0.544-0.685,1.099-1.012,1.66v-7.234c0.234-0.42,0.434-0.858,0.591-1.312c0.368,0.773,0.737,1.546,1.105,2.319
				c0.205,0.431,0.829,0.271,0.956-0.125c0.385-1.199,0.961-2.289,1.711-3.299c0.418-0.563-0.53-1.113-0.942-0.551
				c-0.548,0.746-0.994,1.546-1.349,2.391c-0.401-0.803-0.802-1.606-1.203-2.409C0.697,32.045,0.138,32.098,0,32.438V17.216
				c0.216-0.121,0.436-0.233,0.662-0.335c-0.201,1.105-0.4,2.211-0.6,3.316c-0.08,0.443,0.545,0.687,0.845,0.412
				c0.825-0.756,1.761-1.343,2.789-1.748c-0.305,1.112-0.486,2.251-0.537,3.409c-0.022,0.494,0.515,0.674,0.876,0.427
				c0.84-0.574,1.725-1.081,2.635-1.538c-0.125,1.009-0.25,2.018-0.376,3.027c-0.049,0.395,0.459,0.756,0.809,0.535
				c1.086-0.686,2.173-1.371,3.26-2.056c0.619-0.39,0.113-1.42-0.505-1.026c-0.768,0.491-1.537,0.98-2.305,1.47
				c0.115-0.953,0.23-1.906,0.344-2.859c0.052-0.429-0.443-0.693-0.799-0.528c-0.974,0.451-1.901,0.971-2.802,1.543
				c0.118-1.04,0.347-2.058,0.688-3.057c0.12-0.351-0.217-0.778-0.598-0.67c-1.112,0.314-2.142,0.796-3.076,1.444
				c0.174-0.958,0.348-1.916,0.519-2.875c0.075-0.422-0.421-0.594-0.734-0.485C0.719,15.755,0.354,15.909,0,16.084V1.885
				c0.346-0.323,0.683-0.657,1.026-0.979C1.315,0.635,1.61,0.313,1.918,0h3.828c0.475,0.541,0.904,1.13,1.286,1.459
				c1.325,1.143,2.989,1.228,4.438,0.232C12.15,1.224,12.683,0.619,13.216,0H17.5c0.096,0.138,0.188,0.266,0.274,0.372
				c1.106,1.36,2.687,1.996,4.406,1.408c1.013-0.347,1.802-0.998,2.466-1.78h14.998c-0.206,0.324-0.462,0.616-0.763,0.855
				c-0.634,0.504-0.233,1.444,0.544,1.428c1.422-0.028,2.82,1.032,3.085,2.45c0.274,1.472-0.655,2.604-1.602,3.596
				c-0.296,0.311,0.021,0.96,0.462,0.859c2.071-0.47,3.064-2.949,2.639-4.893c-0.356-1.628-1.593-2.847-3.105-3.345
				c0.2-0.3,0.368-0.619,0.503-0.952h16.24c-0.183,0.282-0.341,0.57-0.471,0.857c-0.235,0.517,0.36,1.048,0.811,0.626
				c0.446-0.418,0.91-0.987,1.425-1.483h4.289c0.134,0.113,0.266,0.225,0.394,0.328c0.822,0.665,1.635,1.345,2.471,1.993
				c1.412,1.094,2.965,1.512,4.491,0.366c0.329-0.247,0.64-0.521,0.943-0.803v14.199c-0.567,0.28-1.103,0.614-1.606,0.998
				c-0.07-0.969-0.027-1.935,0.121-2.904c0.053-0.343-0.407-0.658-0.704-0.465c-0.914,0.591-1.864,1.11-2.852,1.559
				c0.004-1.012,0.166-2.001,0.5-2.972c0.129-0.375-0.3-0.766-0.658-0.57c-0.908,0.494-1.801,1.011-2.676,1.561
				c-0.07-1.201-0.153-2.401-0.254-3.601c-0.028-0.328-0.565-0.282-0.572,0.042c-0.031,1.441-0.041,2.879-0.024,4.32
				c0.004,0.308,0.338,0.616,0.648,0.428c0.768-0.466,1.541-0.923,2.323-1.364c-0.21,0.933-0.288,1.888-0.221,2.853
				c0.025,0.366,0.332,0.604,0.691,0.456c0.935-0.385,1.837-0.83,2.708-1.336c-0.084,1.02-0.049,2.04,0.096,3.061
				c0.052,0.369,0.544,0.513,0.808,0.273c0.514-0.468,1.073-0.873,1.672-1.208v15.222c-0.009,0.022-0.016,0.045-0.021,0.07
				c-0.202,0.949-0.52,1.83-0.991,2.652c-0.338-0.886-0.644-1.783-0.919-2.692c-0.107-0.353-0.661-0.482-0.841-0.11
				c-0.586,1.208-1.259,2.429-1.676,3.708c-0.122,0.374,0.403,0.551,0.606,0.255c0.527-0.772,0.956-1.631,1.371-2.486
				c0.271,0.84,0.568,1.671,0.894,2.493c0.161,0.407,0.619,0.454,0.879,0.115c0.26-0.339,0.494-0.695,0.701-1.066v7.234
				c-1.838,3.159-3.341,6.549-4.899,9.836c-0.223,0.471,0.295,0.933,0.741,0.677c1.383-0.794,2.771-1.582,4.158-2.369V71.728z
				 M51.828,18.639c2.233,1.098,3.714-1.696,4.009-3.483c0.265-1.604-0.227-3.3-1.419-4.324c1.009-0.907,1.486-2.517,1.444-3.788
				c-0.064-1.912-1.369-3.617-3.331-3.829c-0.965-0.104-1.076,1.403-0.111,1.503c1.226,0.127,1.953,1.293,1.963,2.454
				c0.009,1.024-0.457,2.713-1.652,2.898c-0.717,0.111-0.782,1.189-0.104,1.411c1.373,0.451,1.961,1.862,1.846,3.226
				c-0.111,1.315-0.827,3.223-2.456,3.038C51.46,17.681,51.393,18.425,51.828,18.639z M25.845,13.974
				c0.789,1.414,1.943,2.644,2.81,4.018c0.235,0.373,0.867,0.548,1.186,0.153c0.866-1.072,1.703-2.166,2.51-3.282
				c0.906,0.892,1.808,1.79,2.74,2.653c0.726,0.672,1.785-0.377,1.089-1.089c-1.1-1.124-2.255-2.199-3.383-3.295
				c-0.38-0.369-0.93-0.251-1.215,0.157c-0.719,1.027-1.458,2.038-2.222,3.032c-0.78-1.15-1.687-2.307-2.822-3.04
				C26.098,12.997,25.607,13.548,25.845,13.974z M15.947,15.892c-0.059,0.618,0.236,1.132,0.698,1.524
				c0.469,0.398,1.285,0.679,1.503,1.299c0.208,0.592-0.102,1.326-0.173,1.922c-0.072,0.605-0.03,1.206,0.333,1.717
				c0.437,0.615,1.321,0.833,1.575,1.575c0.276,0.807-0.086,1.832-0.297,2.622c-0.1,0.373,0.411,0.497,0.595,0.212
				c0.92-1.429,1.347-3.279-0.199-4.443c-0.311-0.234-0.721-0.441-0.855-0.833c-0.121-0.356-0.011-0.775,0.054-1.129
				c0.126-0.686,0.288-1.399,0.037-2.078c-0.241-0.653-0.816-1.037-1.364-1.413c-0.272-0.187-0.698-0.414-0.746-0.774
				c-0.052-0.386,0.321-0.883,0.396-1.268c0.354-1.827-1.279-3.072-2.644-3.89c-0.654-0.391-1.189,0.666-0.537,1.053
				c0.719,0.427,1.543,0.909,1.896,1.709C16.591,14.542,16.024,15.087,15.947,15.892z M26.818,35.744
				c1.138,0.436,2.276,0.871,3.414,1.307c0.392,0.15,0.834-0.176,0.939-0.542c0.375-1.306,0.654-2.629,0.846-3.97
				c1.019,0.462,2.038,0.923,3.057,1.385c0.919,0.416,1.711-0.956,0.783-1.371c-1.363-0.61-2.726-1.219-4.089-1.829
				c-0.559-0.25-1.102,0.06-1.164,0.672c-0.134,1.316-0.369,2.616-0.694,3.896l-3.675-1.419c-0.461-0.178-0.99,0.283-0.974,0.743
				c0.038,1.157-0.016,2.309-0.172,3.453c-1.074-0.34-2.134-0.721-3.175-1.153c-0.504-0.209-1.221,0.026-1.186,0.684
				c0.06,1.136-0.026,2.242-0.26,3.34c-0.548-0.174-1.096-0.346-1.648-0.508c-0.74-0.218-1.518-0.457-2.297-0.383
				c-0.235,0.022-0.389,0.298-0.2,0.484c0.586,0.575,1.364,0.876,2.111,1.184c0.792,0.326,1.588,0.637,2.388,0.945
				c0.398,0.153,0.828-0.18,0.941-0.543c0.337-1.088,0.528-2.215,0.567-3.351c1.047,0.397,2.11,0.753,3.187,1.065
				c0.38,0.11,0.885-0.141,0.957-0.552C26.677,38.109,26.797,36.93,26.818,35.744z M37.454,47.673
				c-0.27-0.487-0.659-0.926-0.976-1.385c-0.307-0.445-0.59-0.93-0.976-1.312c-0.098-0.097-0.203-0.144-0.305-0.154
				c-0.236-0.359-0.753-0.547-1.143-0.152c-0.558,0.564-1.117,1.129-1.674,1.694c-0.034,0.035-0.288,0.29-0.522,0.526
				c-0.074-0.11-0.182-0.22-0.243-0.305c-0.745-1.041-1.602-2.027-2.879-2.367c-0.376-0.1-0.634,0.364-0.373,0.641
				c0.55,0.583,1.076,1.19,1.555,1.834c0.404,0.543,0.79,1.445,1.364,1.816c0.724,0.469,1.3-0.271,1.763-0.73
				c0.582-0.579,1.162-1.158,1.743-1.738c0.131,0.37,0.323,0.728,0.512,1.054c0.29,0.5,0.614,1.047,1.042,1.439
				C36.929,49.07,37.853,48.391,37.454,47.673z M41.884,24.402c0.743,0.877,1.441,1.789,2.085,2.744c0.305,0.452,0.965,0.491,1.262,0
				c0.651-1.076,1.38-2.088,2.194-3.041c0.863,0.968,1.726,1.936,2.589,2.905c0.337,0.378,0.88,0.206,1.136-0.146
				c0.696-0.959,1.392-1.919,2.087-2.878c0.856,1.052,1.713,2.104,2.569,3.157c0.225,0.277,0.798,0.286,1.02,0
				c0.712-0.917,1.385-1.86,2.015-2.833c0.666,0.791,1.295,1.61,1.886,2.461c0.538,0.775,1.819,0.035,1.273-0.744
				c-0.844-1.204-1.755-2.357-2.736-3.453c-0.32-0.357-0.914-0.235-1.145,0.148c-0.569,0.942-1.178,1.857-1.826,2.746
				c-0.859-1.057-1.719-2.114-2.578-3.171c-0.321-0.394-0.889-0.191-1.134,0.146c-0.704,0.969-1.407,1.939-2.111,2.908
				c-0.845-0.949-1.69-1.898-2.535-2.847c-0.252-0.283-0.771-0.276-1.024,0c-0.851,0.929-1.631,1.918-2.334,2.961
				c-0.685-0.953-1.42-1.87-2.204-2.744c-0.349-0.389-0.888-0.204-1.156,0.149c-0.705,0.929-1.411,1.857-2.107,2.792
				c-0.828-0.91-1.582-1.887-2.391-2.811c-0.267-0.305-0.838,0.017-0.695,0.405c0.57,1.546,1.535,2.801,2.648,4.008
				c0.238,0.258,0.771,0.293,1.003,0C40.421,26.317,41.153,25.36,41.884,24.402z M52.944,31.699c1.33-0.767,2.657-1.539,3.944-2.378
				c0.306-0.199,0.022-0.615-0.292-0.469c-1.545,0.717-3.047,1.517-4.55,2.316c-0.212,0.113-0.274,0.432-0.146,0.626
				c0.622,0.938,1.248,1.875,1.881,2.806c-1.115,0.692-2.229,1.383-3.344,2.075c-0.169,0.105-0.296,0.367-0.211,0.565
				c0.491,1.138,1.109,2.183,1.862,3.154c-1.129,0.645-2.237,1.326-3.321,2.046c-0.282,0.187-0.292,0.538-0.078,0.778
				c0.788,0.884,1.573,1.77,2.367,2.648c-0.969,0.743-1.948,1.473-2.911,2.224c-0.236,0.184-0.369,0.589-0.082,0.812
				c0.799,0.623,1.562,1.286,2.285,1.993c-0.892,0.341-1.786,0.68-2.681,1.014c-0.67,0.25-0.333,1.327,0.329,1.061
				c1.151-0.461,2.303-0.916,3.459-1.365c0.377-0.146,0.495-0.593,0.207-0.892c-0.76-0.787-1.563-1.519-2.418-2.196
				c0.915-0.74,1.834-1.476,2.779-2.175c0.269-0.199,0.293-0.517,0.077-0.766c-0.766-0.879-1.544-1.748-2.321-2.618
				c1.083-0.704,2.187-1.373,3.315-2.004c0.304-0.17,0.272-0.549,0.078-0.778c-0.743-0.879-1.363-1.85-1.848-2.892
				c1.138-0.706,2.277-1.413,3.415-2.119c0.219-0.136,0.309-0.46,0.158-0.68C54.256,33.552,53.6,32.625,52.944,31.699z M67.429,59.206
				c-0.968-1.497-2.022-2.932-3.154-4.308c-0.199-0.241-0.685-0.245-0.882,0c-0.856,1.065-1.559,2.204-2.119,3.433
				c-0.74-0.849-1.479-1.698-2.216-2.549c-0.264-0.306-0.747-0.182-0.942,0.121C57.411,57,56.705,58.095,56,59.191
				c-0.947-1.025-1.812-2.114-2.593-3.275c-0.189-0.282-0.68-0.442-0.932-0.12c-0.761,0.97-1.579,1.889-2.452,2.758
				c-0.788-0.922-1.576-1.844-2.357-2.772c-0.217-0.257-0.661-0.223-0.883,0c-0.895,0.901-1.76,1.859-2.536,2.872
				c-0.755-0.978-1.512-1.951-2.341-2.871c-0.22-0.244-0.581,0.067-0.439,0.339c0.691,1.315,1.488,2.56,2.274,3.819
				c0.189,0.303,0.681,0.426,0.94,0.121c0.834-0.984,1.661-1.961,2.531-2.908c0.787,0.895,1.571,1.793,2.353,2.692
				c0.214,0.245,0.623,0.211,0.842,0c0.866-0.838,1.681-1.721,2.448-2.649c0.851,1.195,1.788,2.324,2.812,3.378
				c0.278,0.286,0.733,0.196,0.937-0.121c0.699-1.083,1.398-2.167,2.097-3.25c0.774,0.899,1.547,1.798,2.318,2.7
				c0.329,0.385,0.872,0.119,1.024-0.27c0.455-1.168,1.061-2.274,1.798-3.287c0.889,1.124,1.723,2.288,2.498,3.495
				C66.778,60.523,67.871,59.89,67.429,59.206z"/>
			<path class="noanimate" fill="#FCD83E" d="M38.881,0.855c-0.634,0.504-0.233,1.444,0.544,1.428c1.422-0.028,2.82,1.032,3.085,2.45
				c0.274,1.472-0.655,2.604-1.602,3.596c-0.296,0.311,0.021,0.96,0.462,0.859c2.071-0.47,3.064-2.949,2.639-4.893
				c-0.356-1.628-1.593-2.847-3.105-3.345c0.2-0.3,0.368-0.619,0.503-0.952h-1.762C39.438,0.324,39.182,0.616,38.881,0.855z"/>
			<path class="noanimate" fill="#FCD83E" d="M41.496,68.428c-0.569-1.539-1.9-2.633-3.435-3.047c0.787-1.319,1.01-2.942,0.432-4.429
				c-0.778-2.002-2.791-3.222-4.897-3.22c-1.021,0.001-0.862,1.579,0.15,1.578c1.394-0.001,2.756,0.902,3.265,2.206
				c0.508,1.299,0.123,2.896-0.905,3.836c-0.571,0.522-0.28,1.459,0.544,1.428c1.439-0.053,2.859,0.85,3.365,2.211
				c0.371,0.999,0.192,2.125-0.37,3.008h1.762C41.863,70.877,41.931,69.605,41.496,68.428z"/>
			<path fill="#FCD83E" d="M51.828,18.639c2.233,1.098,3.714-1.696,4.009-3.483c0.265-1.604-0.227-3.3-1.419-4.324
				c1.009-0.907,1.486-2.517,1.444-3.788c-0.064-1.912-1.369-3.617-3.331-3.829c-0.965-0.104-1.076,1.403-0.111,1.503
				c1.226,0.127,1.953,1.293,1.963,2.454c0.009,1.024-0.457,2.713-1.652,2.898c-0.717,0.111-0.782,1.189-0.104,1.411
				c1.373,0.451,1.961,1.862,1.846,3.226c-0.111,1.315-0.827,3.223-2.456,3.038C51.46,17.681,51.393,18.425,51.828,18.639z"/>
			<path class="noanimate" fill="#FCD83E" d="M1.918,0H0v1.885c0.346-0.323,0.683-0.657,1.026-0.979C1.315,0.635,1.61,0.313,1.918,0z"/>
			<path class="noanimate" fill="#FCD83E" d="M22.181,1.78c1.013-0.347,1.802-0.998,2.466-1.78h-2.449c-0.322,0.181-0.673,0.311-1.065,0.362
				C20.564,0.436,20.105,0.278,19.711,0H17.5c0.096,0.138,0.188,0.266,0.274,0.372C18.88,1.733,20.461,2.368,22.181,1.78z"/>
			<path class="noanimate" fill="#FCD83E" d="M7.033,1.459c1.325,1.143,2.989,1.228,4.438,0.232C12.15,1.224,12.683,0.619,13.216,0h-2.179
				c-0.591,0.534-1.411,1.033-2.229,0.73C8.415,0.585,8.083,0.311,7.784,0H5.747C6.222,0.541,6.651,1.13,7.033,1.459z"/>
			<path class="noanimate" fill="#FCD83E" d="M2.866,69.392c-0.786,0.302-1.387,0.935-1.987,1.502C0.586,71.172,0.293,71.45,0,71.728V72h1.918
				c0.419-0.425,0.864-0.832,1.356-1.071C4.207,70.478,5.03,71.185,5.747,72h2.037c-0.266-0.277-0.506-0.583-0.738-0.855
				C6.012,69.934,4.551,68.745,2.866,69.392z"/>
			<path class="noanimate" fill="#FCD83E" d="M24.705,69.033c-0.646,1.054-1.389,2.338-2.508,2.967h2.449c0.558-0.658,1.027-1.407,1.461-2.147
				C26.638,68.948,25.251,68.143,24.705,69.033z"/>
			<path class="noanimate" fill="#FCD83E" d="M18.109,70.16c-0.806-1.011-1.918-1.807-3.274-1.438c-1.717,0.467-2.565,2.163-3.798,3.277
				c0,0-0.001,0.001-0.001,0.001h2.179c0.01-0.012,0.02-0.023,0.03-0.035c0.528-0.613,1.181-1.486,2.019-1.684
				c0.969-0.229,1.683,0.927,2.235,1.719h2.211C19.071,71.548,18.602,70.779,18.109,70.16z"/>
			<path class="noanimate" fill="#FCD83E" d="M66.566,2.321c1.412,1.094,2.965,1.512,4.491,0.366c0.329-0.247,0.64-0.521,0.943-0.803V0h-0.288
				c-0.313,0.297-0.626,0.593-0.942,0.888c-0.587,0.548-1.231,1.171-2.097,0.912c-0.92-0.275-1.703-1.111-2.435-1.699
				C66.197,0.068,66.156,0.034,66.115,0h-2.413c0.134,0.113,0.266,0.225,0.394,0.328C64.917,0.994,65.73,1.674,66.566,2.321z"/>
			<path class="noanimate" fill="#FCD83E" d="M57.987,1.483c0.446-0.418,0.91-0.987,1.425-1.483h-1.765c-0.183,0.282-0.341,0.57-0.471,0.857
				C56.941,1.374,57.536,1.905,57.987,1.483z"/>
			<path fill="#FCD83E" d="M72,71.728c-0.096,0.091-0.192,0.181-0.288,0.272H72V71.728z"/>
			<path class="noanimate" fill="#FCD83E" d="M61.01,69.492c-1.369,0.236-2.587,1.309-3.363,2.508h1.765c0.679-0.653,1.447-1.179,2.381-1.066
				c0.72,0.087,1.344,0.592,1.907,1.066h2.413C64.663,70.812,63.044,69.142,61.01,69.492z"/>
			<path fill="#FCD83E" d="M28.654,17.992c0.235,0.373,0.867,0.548,1.186,0.153c0.866-1.072,1.703-2.166,2.51-3.282
				c0.906,0.892,1.808,1.79,2.74,2.653c0.726,0.672,1.785-0.377,1.089-1.089c-1.1-1.124-2.255-2.199-3.383-3.295
				c-0.38-0.369-0.93-0.251-1.215,0.157c-0.719,1.027-1.458,2.038-2.222,3.032c-0.78-1.15-1.687-2.307-2.822-3.04
				c-0.44-0.284-0.931,0.268-0.693,0.693C26.633,15.388,27.788,16.618,28.654,17.992z"/>
			<path fill="#FCD83E" d="M31.171,36.51c0.375-1.306,0.654-2.629,0.846-3.97c1.019,0.462,2.038,0.923,3.057,1.385
				c0.919,0.416,1.711-0.956,0.783-1.371c-1.363-0.61-2.726-1.219-4.089-1.829c-0.559-0.25-1.102,0.06-1.164,0.672
				c-0.134,1.316-0.369,2.616-0.694,3.896l-3.675-1.419c-0.461-0.178-0.99,0.283-0.974,0.743c0.038,1.157-0.016,2.309-0.172,3.453
				c-1.074-0.34-2.134-0.721-3.175-1.153c-0.504-0.209-1.221,0.026-1.186,0.684c0.06,1.136-0.026,2.242-0.26,3.34
				c-0.548-0.174-1.096-0.346-1.648-0.508c-0.74-0.218-1.518-0.457-2.297-0.383c-0.235,0.022-0.389,0.298-0.2,0.484
				c0.586,0.575,1.364,0.876,2.111,1.184c0.792,0.326,1.588,0.637,2.388,0.945c0.398,0.153,0.828-0.18,0.941-0.543
				c0.337-1.088,0.528-2.215,0.567-3.351c1.047,0.397,2.11,0.753,3.187,1.065c0.38,0.11,0.885-0.141,0.957-0.552
				c0.206-1.173,0.326-2.352,0.347-3.538c1.138,0.436,2.276,0.871,3.414,1.307C30.624,37.201,31.066,36.875,31.171,36.51z"/>
			<path fill="#FCD83E" d="M36.478,46.288c-0.307-0.445-0.59-0.93-0.976-1.312c-0.098-0.097-0.203-0.144-0.305-0.154
				c-0.236-0.359-0.753-0.547-1.143-0.152c-0.558,0.564-1.117,1.129-1.674,1.694c-0.034,0.035-0.288,0.29-0.522,0.526
				c-0.074-0.11-0.182-0.22-0.243-0.305c-0.745-1.041-1.602-2.027-2.879-2.367c-0.376-0.1-0.634,0.364-0.373,0.641
				c0.55,0.583,1.076,1.19,1.555,1.834c0.404,0.543,0.79,1.445,1.364,1.816c0.724,0.469,1.3-0.271,1.763-0.73
				c0.582-0.579,1.162-1.158,1.743-1.738c0.131,0.37,0.323,0.728,0.512,1.054c0.29,0.5,0.614,1.047,1.042,1.439
				c0.587,0.539,1.511-0.14,1.112-0.858C37.184,47.186,36.795,46.747,36.478,46.288z"/>
			<path fill="#FCD83E" d="M43.969,27.146c0.305,0.452,0.965,0.491,1.262,0c0.651-1.076,1.38-2.088,2.194-3.041
				c0.863,0.968,1.726,1.936,2.589,2.905c0.337,0.378,0.88,0.206,1.136-0.146c0.696-0.959,1.392-1.919,2.087-2.878
				c0.856,1.052,1.713,2.104,2.569,3.157c0.225,0.277,0.798,0.286,1.02,0c0.712-0.917,1.385-1.86,2.015-2.833
				c0.666,0.791,1.295,1.61,1.886,2.461c0.538,0.775,1.819,0.035,1.273-0.744c-0.844-1.204-1.755-2.357-2.736-3.453
				c-0.32-0.357-0.914-0.235-1.145,0.148c-0.569,0.942-1.178,1.857-1.826,2.746c-0.859-1.057-1.719-2.114-2.578-3.171
				c-0.321-0.394-0.889-0.191-1.134,0.146c-0.704,0.969-1.407,1.939-2.111,2.908c-0.845-0.949-1.69-1.898-2.535-2.847
				c-0.252-0.283-0.771-0.276-1.024,0c-0.851,0.929-1.631,1.918-2.334,2.961c-0.685-0.953-1.42-1.87-2.204-2.744
				c-0.349-0.389-0.888-0.204-1.156,0.149c-0.705,0.929-1.411,1.857-2.107,2.792c-0.828-0.91-1.582-1.887-2.391-2.811
				c-0.267-0.305-0.838,0.017-0.695,0.405c0.57,1.546,1.535,2.801,2.648,4.008c0.238,0.258,0.771,0.293,1.003,0
				c0.747-0.946,1.479-1.903,2.21-2.861C42.627,25.279,43.325,26.191,43.969,27.146z"/>
			<path class="noanimate" fill="#FCD83E" d="M1.012,40.952c-0.35,0.544-0.685,1.099-1.012,1.66v2.31c0.572-1.209,1.116-2.429,1.608-3.667
				C1.768,40.854,1.245,40.588,1.012,40.952z"/>
			<path class="noanimate" fill="#FCD83E" d="M0.274,56.929c-0.207,0.375,0.205,0.929,0.63,0.747c3.224-1.38,6.18-3.241,9.082-5.186
				c-1.538,3.01-3.073,6.022-4.609,9.034C5.122,62.025,5.699,62.5,6.161,62.24c3.075-1.728,6.149-3.456,9.224-5.184
				c-1.655,2.779-3.319,5.553-4.967,8.336c-0.387,0.654,0.667,1.19,1.054,0.537c1.998-3.374,3.974-6.76,5.969-10.135
				c0.298-0.505-0.348-0.985-0.8-0.73c-3.153,1.779-6.306,3.558-9.459,5.338c1.57-3.092,3.141-6.183,4.706-9.277
				c0.232-0.46-0.319-1.003-0.764-0.698c-2.948,2.022-5.924,4.048-9.147,5.604c1.737-3.161,3.456-6.334,5.224-9.477
				c0.261-0.464-0.312-0.901-0.73-0.667C4.307,47.097,2.154,48.329,0,49.56v1.196c1.807-1.025,3.616-2.049,5.418-3.082
				C3.718,50.767,1.982,53.841,0.274,56.929z"/>
			<path class="noanimate" fill="#FCD83E" d="M67.842,53.125c1.383-0.794,2.771-1.582,4.158-2.369V49.56c-1.074,0.614-2.147,1.227-3.223,1.838
				c1.074-2.153,2.193-4.297,3.223-6.476v-2.31c-1.838,3.159-3.341,6.549-4.899,9.836C66.878,52.919,67.396,53.381,67.842,53.125z"/>
			<path fill="#FCD83E" d="M64.275,54.898c-0.199-0.241-0.685-0.245-0.882,0c-0.856,1.065-1.559,2.204-2.119,3.433
				c-0.74-0.849-1.479-1.698-2.216-2.549c-0.264-0.306-0.747-0.182-0.942,0.121C57.411,57,56.705,58.095,56,59.191
				c-0.947-1.025-1.812-2.114-2.593-3.275c-0.189-0.282-0.68-0.442-0.932-0.12c-0.761,0.97-1.579,1.889-2.452,2.758
				c-0.788-0.922-1.576-1.844-2.357-2.772c-0.217-0.257-0.661-0.223-0.883,0c-0.895,0.901-1.76,1.859-2.536,2.872
				c-0.755-0.978-1.512-1.951-2.341-2.871c-0.22-0.244-0.581,0.067-0.439,0.339c0.691,1.315,1.488,2.56,2.274,3.819
				c0.189,0.303,0.681,0.426,0.94,0.121c0.834-0.984,1.661-1.961,2.531-2.908c0.787,0.895,1.571,1.793,2.353,2.692
				c0.214,0.245,0.623,0.211,0.842,0c0.866-0.838,1.681-1.721,2.448-2.649c0.851,1.195,1.788,2.324,2.812,3.378
				c0.278,0.286,0.733,0.196,0.937-0.121c0.699-1.083,1.398-2.167,2.097-3.25c0.774,0.899,1.547,1.798,2.318,2.7
				c0.329,0.385,0.872,0.119,1.024-0.27c0.455-1.168,1.061-2.274,1.798-3.287c0.889,1.124,1.723,2.288,2.498,3.495
				c0.437,0.68,1.53,0.047,1.088-0.636C66.461,57.71,65.407,56.275,64.275,54.898z"/>
			<path fill="#FCD83E" d="M56.596,28.852c-1.545,0.717-3.047,1.517-4.55,2.316c-0.212,0.113-0.274,0.432-0.146,0.626
				c0.622,0.938,1.248,1.875,1.881,2.806c-1.115,0.692-2.229,1.383-3.344,2.075c-0.169,0.105-0.296,0.367-0.211,0.565
				c0.491,1.138,1.109,2.183,1.862,3.154c-1.129,0.645-2.237,1.326-3.321,2.046c-0.282,0.187-0.292,0.538-0.078,0.778
				c0.788,0.884,1.573,1.77,2.367,2.648c-0.969,0.743-1.948,1.473-2.911,2.224c-0.236,0.184-0.369,0.589-0.082,0.812
				c0.799,0.623,1.562,1.286,2.285,1.993c-0.892,0.341-1.786,0.68-2.681,1.014c-0.67,0.25-0.333,1.327,0.329,1.061
				c1.151-0.461,2.303-0.916,3.459-1.365c0.377-0.146,0.495-0.593,0.207-0.892c-0.76-0.787-1.563-1.519-2.418-2.196
				c0.915-0.74,1.834-1.476,2.779-2.175c0.269-0.199,0.293-0.517,0.077-0.766c-0.766-0.879-1.544-1.748-2.321-2.618
				c1.083-0.704,2.187-1.373,3.315-2.004c0.304-0.17,0.272-0.549,0.078-0.778c-0.743-0.879-1.363-1.85-1.848-2.892
				c1.138-0.706,2.277-1.413,3.415-2.119c0.219-0.136,0.309-0.46,0.158-0.68c-0.642-0.936-1.297-1.863-1.953-2.789
				c1.33-0.767,2.657-1.539,3.944-2.378C57.195,29.121,56.91,28.706,56.596,28.852z"/>
			<path fill="#FCD83E" d="M16.645,17.416c0.469,0.398,1.285,0.679,1.503,1.299c0.208,0.592-0.102,1.326-0.173,1.922
				c-0.072,0.605-0.03,1.206,0.333,1.717c0.437,0.615,1.321,0.833,1.575,1.575c0.276,0.807-0.086,1.832-0.297,2.622
				c-0.1,0.373,0.411,0.497,0.595,0.212c0.92-1.429,1.347-3.279-0.199-4.443c-0.311-0.234-0.721-0.441-0.855-0.833
				c-0.121-0.356-0.011-0.775,0.054-1.129c0.126-0.686,0.288-1.399,0.037-2.078c-0.241-0.653-0.816-1.037-1.364-1.413
				c-0.272-0.187-0.698-0.414-0.746-0.774c-0.052-0.386,0.321-0.883,0.396-1.268c0.354-1.827-1.279-3.072-2.644-3.89
				c-0.654-0.391-1.189,0.666-0.537,1.053c0.719,0.427,1.543,0.909,1.896,1.709c0.372,0.844-0.195,1.389-0.272,2.194
				C15.888,16.511,16.183,17.025,16.645,17.416z"/>
			<path class="noanimate" fill="#FCD83E" d="M0.063,20.197c-0.08,0.443,0.545,0.687,0.845,0.412c0.825-0.756,1.761-1.343,2.789-1.748
				c-0.305,1.112-0.486,2.251-0.537,3.409c-0.022,0.494,0.515,0.674,0.876,0.427c0.84-0.574,1.725-1.081,2.635-1.538
				c-0.125,1.009-0.25,2.018-0.376,3.027c-0.049,0.395,0.459,0.756,0.809,0.535c1.086-0.686,2.173-1.371,3.26-2.056
				c0.619-0.39,0.113-1.42-0.505-1.026c-0.768,0.491-1.537,0.98-2.305,1.47c0.115-0.953,0.23-1.906,0.344-2.859
				c0.052-0.429-0.443-0.693-0.799-0.528c-0.974,0.451-1.901,0.971-2.802,1.543c0.118-1.04,0.347-2.058,0.688-3.057
				c0.12-0.351-0.217-0.778-0.598-0.67c-1.112,0.314-2.142,0.796-3.076,1.444c0.174-0.958,0.348-1.916,0.519-2.875
				c0.075-0.422-0.421-0.594-0.734-0.485C0.719,15.755,0.354,15.909,0,16.084v1.132c0.216-0.121,0.436-0.233,0.662-0.335
				C0.461,17.986,0.263,19.092,0.063,20.197z"/>
			<path class="noanimate" fill="#FCD83E" d="M70.515,14.179c0.053-0.343-0.407-0.658-0.704-0.465c-0.914,0.591-1.864,1.11-2.852,1.559
				c0.004-1.012,0.166-2.001,0.5-2.972c0.129-0.375-0.3-0.766-0.658-0.57c-0.908,0.494-1.801,1.011-2.676,1.561
				c-0.07-1.201-0.153-2.401-0.254-3.601c-0.028-0.328-0.565-0.282-0.572,0.042c-0.031,1.441-0.041,2.879-0.024,4.32
				c0.004,0.308,0.338,0.616,0.648,0.428c0.768-0.466,1.541-0.923,2.323-1.364c-0.21,0.933-0.288,1.888-0.221,2.853
				c0.025,0.366,0.332,0.604,0.691,0.456c0.935-0.385,1.837-0.83,2.708-1.336c-0.084,1.02-0.049,2.04,0.096,3.061
				c0.052,0.369,0.544,0.513,0.808,0.273c0.514-0.468,1.073-0.873,1.672-1.208v-1.132c-0.567,0.28-1.103,0.614-1.606,0.998
				C70.324,16.114,70.367,15.147,70.515,14.179z"/>
			<path fill="#FCD83E" d="M1.696,36.384c0.205,0.431,0.829,0.271,0.956-0.125c0.385-1.199,0.961-2.289,1.711-3.299
				c0.418-0.563-0.53-1.113-0.942-0.551c-0.548,0.746-0.994,1.546-1.349,2.391c-0.401-0.803-0.802-1.606-1.203-2.409
				C0.697,32.045,0.138,32.098,0,32.438v2.939c0.234-0.42,0.434-0.858,0.591-1.312C0.959,34.839,1.327,35.612,1.696,36.384z"/>
			<path fill="#FCD83E" d="M70.988,35.16c-0.338-0.886-0.644-1.783-0.919-2.692c-0.107-0.353-0.661-0.482-0.841-0.11
				c-0.586,1.208-1.259,2.429-1.676,3.708c-0.122,0.374,0.403,0.551,0.606,0.255c0.527-0.772,0.956-1.631,1.371-2.486
				c0.271,0.84,0.568,1.671,0.894,2.493c0.161,0.407,0.619,0.454,0.879,0.115c0.26-0.339,0.494-0.695,0.701-1.066v-2.939
				c-0.009,0.022-0.016,0.045-0.021,0.07C71.777,33.457,71.458,34.337,70.988,35.16z"/>
		</pattern>
	</defs>
	<rect x="0" y="0" width="1440" height="600" fill="url(#bgPattern)" />
</svg>
