<svg xmlns="http://www.w3.org/2000/svg" viewBox="0 0 203.82 21.97"><defs><style>.cls-1{fill:#222;}</style></defs><title>arrow</title><g id="Layer_2" data-name="Layer 2"><g id="Layer_1-2" data-name="Layer 1"><path class="cls-1" d="M190,19.4c0-.1-.11-.2-.15-.3a.85.85,0,0,1,.24-1l2.1-2.1L197,11.16l.15-.16a1,1,0,0,0-.23-.28l-6.78-6.78a2.47,2.47,0,0,1-.2-.2.06.06,0,0,0,0,0c-.33-.66-.3-.85.24-1.39l1.95-2a.9.9,0,0,1,1.45,0l9.73,9.74.15.15a.87.87,0,0,1,.13,1.27.94.94,0,0,1-.15.18l0,0c-3.26,3.24-6.48,6.52-9.74,9.76a1.76,1.76,0,0,1-.31.27.79.79,0,0,1-1,0,13,13,0,0,1-1.26-1.22Z"/><path class="cls-1" d="M196.07,13.44h-3.48V8.56h3.48Zm-5.21,0h-3.48V8.56h3.48Zm-5.21,0h-3.48V8.56h3.48Zm-5.21,0h-3.48V8.56h3.48Zm-5.21,0h-3.48V8.56h3.48Zm-5.21,0h-3.48V8.56H170Zm-5.21,0H161.3V8.56h3.48Zm-5.21,0h-3.48V8.56h3.48Zm-5.21,0h-3.48V8.56h3.48Zm-5.21,0h-3.48V8.56h3.48Zm-5.21,0h-3.48V8.56h3.48Zm-5.21,0h-3.48V8.56h3.48Zm-5.21,0H130V8.56h3.48Zm-5.21,0H124.8V8.56h3.48Zm-5.21,0h-3.48V8.56h3.48Zm-5.21,0h-3.48V8.56h3.48Zm-5.21,0h-3.48V8.56h3.48Zm-5.21,0h-3.48V8.56h3.48Z"/><path class="cls-1" d="M198.26,11.16l-2.19,2.19V8.61l2.11,2.11a1,1,0,0,1,.23.28Z"/><rect class="cls-1" x="140.45" y="8.56" width="3.48" height="4.87"/><rect class="cls-1" x="135.23" y="8.56" width="3.48" height="4.87"/><rect class="cls-1" x="130.02" y="8.56" width="3.48" height="4.87"/><rect class="cls-1" x="124.8" y="8.56" width="3.48" height="4.87"/><rect class="cls-1" x="119.59" y="8.56" width="3.48" height="4.87"/><rect class="cls-1" x="114.37" y="8.56" width="3.48" height="4.87"/><rect class="cls-1" x="109.16" y="8.56" width="3.48" height="4.87"/><rect class="cls-1" x="103.94" y="8.56" width="3.48" height="4.87"/><rect class="cls-1" x="104.06" y="8.56" width="3.48" height="4.87"/><rect class="cls-1" x="98.85" y="8.56" width="3.48" height="4.87"/><rect class="cls-1" x="93.63" y="8.56" width="3.48" height="4.87"/><rect class="cls-1" x="88.42" y="8.56" width="3.48" height="4.87"/><rect class="cls-1" x="83.2" y="8.56" width="3.48" height="4.87"/><rect class="cls-1" x="77.99" y="8.56" width="3.48" height="4.87"/><rect class="cls-1" x="72.77" y="8.56" width="3.48" height="4.87"/><rect class="cls-1" x="67.56" y="8.56" width="3.48" height="4.87"/><rect class="cls-1" x="67.67" y="8.56" width="3.48" height="4.87"/><rect class="cls-1" x="62.46" y="8.56" width="3.48" height="4.87"/><rect class="cls-1" x="57.24" y="8.56" width="3.48" height="4.87"/><rect class="cls-1" x="52.03" y="8.56" width="3.48" height="4.87"/><rect class="cls-1" x="46.82" y="8.56" width="3.48" height="4.87"/><rect class="cls-1" x="41.6" y="8.56" width="3.48" height="4.87"/><rect class="cls-1" x="36.39" y="8.56" width="3.48" height="4.87"/><rect class="cls-1" x="31.17" y="8.56" width="3.48" height="4.87"/><rect class="cls-1" x="31.29" y="8.56" width="3.48" height="4.87"/><rect class="cls-1" x="26.07" y="8.56" width="3.48" height="4.87"/><rect class="cls-1" x="20.86" y="8.56" width="3.48" height="4.87"/><rect class="cls-1" x="15.64" y="8.56" width="3.48" height="4.87"/><rect class="cls-1" x="10.43" y="8.56" width="3.48" height="4.87"/><rect class="cls-1" x="5.21" y="8.56" width="3.48" height="4.87"/><rect class="cls-1" y="8.56" width="3.48" height="4.87"/></g></g></svg>