<?xml version="1.0" encoding="utf-8"?>
<!-- Generator: Adobe Illustrator 21.1.0, SVG Export Plug-In . SVG Version: 6.00 Build 0)  -->
<svg version="1.1" xmlns="http://www.w3.org/2000/svg" xmlns:xlink="http://www.w3.org/1999/xlink" x="0px" y="0px" width="1440px" height="600px" xml:space="preserve">
	 <style>
		#bgPattern03 path:not(.noanimate),
		#bgPattern03 polygon:not(.noanimate){-webkit-animation:patternAnimation 0.75s infinite;animation:patternAnimation 0.75s infinite;-webkit-transform-origin:50%;transform-origin:50%}@keyframes patternAnimation{0%, 100%{-webkit-transform:rotate(0deg);transform:rotate(0deg)}50%{-webkit-transform:rotate(16deg);transform:rotate(16deg)}}
	</style>
	<defs>
		<pattern id="bgPattern03" x="10" y="10" width="72" height="72" patternUnits="userSpaceOnUse">
		<path fill="#FCD83E" d="M-5.248,33.653c0.198-0.065,0.508-0.238,0.802-0.399C-4.69,33.347-4.936,33.468-5.248,33.653z"/>
		<path fill="#FCD83E" d="M-4.44,33.251l0.004-0.003c-0.004,0.002-0.007,0.004-0.01,0.006L-4.44,33.251z"/>
		<path fill="#FCD83E" d="M4.168,49.732c0.035-0.076,0.074-0.162,0.114-0.25C4.242,49.564,4.202,49.649,4.168,49.732z"/>
		<path fill="#FCD83E" d="M-0.471,34.907l0.042,0.075c-0.337,0.71-0.17,0.171-0.468,0.835c-0.035,0.3-0.538,1.092-0.6,1.348
			c-0.005-0.009-0.163,0.317-0.182,0.283c0.002,0.124-0.146,0.346-0.231,0.561c-0.021,0.082,0.04-0.049,0.081-0.099l-0.204,0.486
			c-0.099,0.183-0.149,0.217-0.064,0.008c-0.243,0.538-0.909,1.951-1.406,3.655l1.923,0.72c0.225-0.453,0.487-0.904,0.772-1.327
			c0.287-0.422,0.602-0.809,0.905-1.154c0.616-0.682,1.208-1.165,1.505-1.404c-0.16,0.073-0.466,0.351-0.621,0.412
			c0.243-0.263,0.41-0.324,0.506-0.454c0.084-0.003,0.244-0.114,0.416-0.235c0.178-0.112,0.369-0.237,0.508-0.266l0.058-0.098
			c0.022-0.007,0.069-0.029,0.07-0.023l0.009,0.014c0.007-0.036,0.032-0.057,0.031-0.055c0.002,0,0.003,0.01,0.017,0.013
			c0,0,0.002,0,0.001,0.004c0.011,0.009,0.099-0.018,0.047,0.088c0.003-0.011,0.048-0.058,0.05-0.008
			c-0.025,0.005-0.024,0.036-0.024,0.074c-0.034,0.138-0.069,0.285-0.106,0.324c-0.045,0.189-0.292,0.81-0.149,0.623
			c-0.074,0.095-0.315,0.65-0.205,0.306c-0.076,0.187-0.172,0.371-0.217,0.514l0.124-0.239c-0.271,0.648-0.492,0.995-0.632,1.461
			l0.135-0.24C1.445,41.513,1.3,41.863,1.176,42.01c0.051-0.151,0.106-0.296,0.161-0.44c-0.288,0.696-0.46,1.136-0.597,1.795
			l0.066-0.229c-0.053,0.256-0.205,0.85-0.244,1.62L0.39,48.089l1.735-2.809c0.376-0.609,0.864-1.315,1.311-1.904
			c0.444-0.59,0.841-1.066,0.981-1.26c-0.085,0.065-0.166,0.134-0.249,0.202c0.119-0.158,0.244-0.311,0.368-0.465
			c-0.049,0.051-0.076,0.319-0.127,0.35c0.215-0.231,0.647-0.713,1.235-1.273c0.068-0.065,0.14-0.133,0.214-0.204
			c0.05-0.046,0.103-0.093,0.156-0.142c0.106-0.093,0.221-0.189,0.34-0.281c0.119-0.092,0.242-0.183,0.362-0.263l0.088-0.06
			c0.004,0.009-0.023,0.056-0.033,0.081c-0.029,0.061-0.056,0.12-0.082,0.175c-0.106,0.225-0.195,0.405-0.244,0.491
			c-0.099,0.146-0.129,0.09-0.145,0.105c-0.024,0.095,0.053,0.011-0.004,0.123c-0.025,0.032-0.045,0.004-0.049-0.005
			c-0.012,0.04-0.05,0.079-0.025,0.081c0.046-0.056,0.109-0.044,0.172-0.085l-0.095,0.191l-0.034-0.019
			c-0.014,0.029,0.024,0.011-0.033,0.19c-0.043,0.148-0.113,0.351-0.257,0.634c-0.468,0.961-0.948,2.019-1.411,2.989
			c-0.014-0.025,0.069-0.235,0.152-0.446c-0.062,0.13-0.15,0.332-0.221,0.445c0.147-0.218-0.166,0.42-0.064,0.244
			c-0.247,0.754-0.758,1.64-0.994,2.297c0.052,0.091,0.706,1.973,0.798,2.017c-0.093,0.195-0.186,0.388-0.221,0.445
			c0.045-0.04,0.235-0.42,0.318-0.63l-0.033-0.058c0.202-0.478,0.081-0.096,0.292-0.557c0.052-0.005-0.137,0.421-0.307,0.794
			c0.161-0.332,0.347-0.652,0.366-0.809c0.164-0.307,0.033,0.058,0.228-0.313c0.114-0.275,0.24-0.648,0.409-0.947l0.005,0.009
			c0.394-0.734,0.478-1.182,0.841-1.851l-0.021,0.08c0.137-0.232,0.33-0.726,0.56-1.154c-0.067,0.121-0.147,0.217-0.028-0.05
			c0.262-0.493,0.397-0.849,0.601-1.204l0.126-0.373c0.309-0.664,0.847-1.817,1.498-3.215c0.207-0.445,0.423-0.91,0.646-1.39
			c0.129-0.261,0.179-0.426,0.258-0.627c0.074-0.195,0.149-0.392,0.224-0.592c0.151-0.397,0.304-0.802,0.459-1.211
			c0.077-0.204,0.155-0.408,0.233-0.614l0.058-0.154l0.029-0.077c0.013-0.023-0.014,0.003-0.024,0.008l-0.04,0.027l-0.32,0.216
			c-0.805,0.546-1.61,1.092-2.386,1.619c-0.382,0.269-0.745,0.509-1.131,0.81c-0.189,0.144-0.375,0.286-0.558,0.425
			c-0.187,0.155-0.371,0.307-0.55,0.456C5.4,38.843,5.082,39.15,4.771,39.428c-0.075,0.068-0.149,0.135-0.222,0.201
			c-0.041,0.041-0.082,0.08-0.122,0.12c-0.08,0.078-0.157,0.154-0.231,0.226c-0.294,0.292-0.534,0.541-0.705,0.726l0.049-0.063
			c-0.81,0.866-1.897,2.139-2.893,3.667l1.682,0.564c0.062-1.127,0.617-2.369,1.161-3.589c0.27-0.613,0.537-1.227,0.738-1.838
			c0.173-0.472,0.407-1.572,0.395-2.33c0.016-0.286-0.007-0.593-0.019-0.919c-0.011-0.172-0.022-0.346-0.034-0.52l-0.018-0.26
			l-0.009-0.129l-0.018-0.106c-0.252,0.105-0.494,0.206-0.717,0.299c0.437-0.167,0.257-0.057-0.082,0.086
			c-1.166,0.492-1.216,0.568-1.255,0.589c-0.021,0.016-0.043,0.034-0.207,0.123c-0.082,0.046-0.199,0.101-0.367,0.201
			c-0.085,0.046-0.181,0.111-0.292,0.178c-0.069,0.043-0.147,0.092-0.236,0.148c-0.484,0.321-1.376,0.956-2.268,1.87
			c-0.892,0.911-1.757,2.111-2.338,3.314l1.511,0.565c0.412-1.403,0.951-2.599,1.202-3.125c0.271-0.777,0.763-1.691,1.084-2.449
			l-0.022,0.081c0.176-0.402,0.842-1.718,1.443-3.12c0.144-0.354,0.291-0.709,0.422-1.056c0.121-0.352,0.252-0.683,0.344-0.998
			c0.092-0.315,0.182-0.596,0.242-0.838c0.06-0.269,0.109-0.486,0.141-0.632l-0.055,0.2c0.017-0.084,0.033-0.161,0.048-0.233
			c0.016-0.082,0.036-0.158,0.045-0.229c0.023-0.142,0.044-0.264,0.055-0.366c0.026-0.207,0.05-0.359,0.075-0.503
			c0.047-0.29,0.109-0.545,0.179-1.162c-0.045,0.114-0.052-0.146-0.043-0.479c0.007-0.171,0.014-0.357,0.021-0.527
			c0.002-0.044,0.005-0.086,0.007-0.127l0.004-0.061l0.002-0.03c0.001-0.01,0.003-0.023-0.009-0.012
			c-0.07,0.038-0.132,0.072-0.184,0.1l0.032-0.034c-0.311,0.173-0.824,0.457-1.386,0.77c-0.548,0.331-1.143,0.69-1.642,0.991
			l0.005-0.048c-0.503,0.338-1.498,0.89-1.873,1.11c-0.87,0.482-2.232,1.187-3.359,1.894l-0.798,0.331l-0.104,0.072
			c0,0-0.555,1.87,1.113,1.241l-0.005,0.048l0.3-0.178c0.373-0.192,0.519-0.328,0.513-0.28l-0.5,0.282
			c0.37-0.2,0.126-0.035-0.003,0.064c0.154-0.084,0.304-0.165,0.432-0.225c0.065-0.054-0.061,0.016-0.122,0.042
			c0.19-0.125,0.445-0.314,0.693-0.436c0.376-0.212,0.055,0.041,0.493-0.206c1.158-0.648,2.299-1.285,3.443-1.925l0.742-0.416
			l0.042-0.016l0.043-0.021c0.002,0.011-0.002,0.032-0.001,0.047c-0.02,0.019-0.018,0.014-0.027,0.02
			c0.008,0.004,0.009,0.02,0.008,0.036l-0.001,0.009L1.299,30.2l-0.055,0.25c-0.032,0.167-0.077,0.332-0.124,0.499
			c-0.071,0.179-0.109,0.222-0.14,0.272c0.033-0.05-0.226,0.865-0.612,1.79c-0.189,0.463-0.389,0.93-0.554,1.285
			C-0.349,34.65-0.461,34.893-0.471,34.907z"/>
		<path fill="#FCD83E" d="M66.756,33.653c0.198-0.065,0.508-0.238,0.802-0.399C67.314,33.347,67.068,33.468,66.756,33.653z"/>
		<path fill="#FCD83E" d="M67.564,33.251l0.004-0.003c-0.004,0.002-0.007,0.004-0.01,0.006L67.564,33.251z"/>
		<path fill="#FCD83E" d="M76.172,49.732c0.035-0.076,0.074-0.162,0.114-0.25C76.246,49.564,76.206,49.649,76.172,49.732z"/>
		<path fill="#FCD83E" d="M71.533,34.907l0.042,0.075c-0.337,0.71-0.17,0.171-0.468,0.835c-0.035,0.3-0.538,1.092-0.6,1.348
			c-0.005-0.009-0.163,0.317-0.182,0.283c0.002,0.124-0.146,0.346-0.231,0.561c-0.021,0.082,0.04-0.049,0.081-0.099l-0.204,0.486
			c-0.099,0.183-0.149,0.217-0.064,0.008c-0.243,0.538-0.909,1.951-1.406,3.655l1.923,0.72c0.225-0.453,0.487-0.904,0.772-1.327
			c0.287-0.422,0.602-0.809,0.905-1.154c0.616-0.682,1.208-1.165,1.505-1.404c-0.16,0.073-0.466,0.351-0.621,0.412
			c0.243-0.263,0.41-0.324,0.506-0.454c0.084-0.003,0.244-0.114,0.416-0.235c0.178-0.112,0.369-0.237,0.508-0.266l0.058-0.098
			c0.022-0.007,0.069-0.029,0.07-0.023l0.009,0.014c0.007-0.036,0.032-0.057,0.031-0.055c0.002,0,0.003,0.01,0.017,0.013
			c0,0,0.002,0,0.001,0.004c0.011,0.009,0.099-0.018,0.047,0.088c0.003-0.011,0.048-0.058,0.05-0.008
			c-0.025,0.005-0.024,0.036-0.024,0.074c-0.034,0.138-0.069,0.285-0.106,0.324c-0.045,0.189-0.292,0.81-0.149,0.623
			c-0.074,0.095-0.315,0.65-0.205,0.306c-0.076,0.187-0.172,0.371-0.217,0.514l0.124-0.239c-0.271,0.648-0.492,0.995-0.632,1.461
			l0.135-0.24c-0.176,0.406-0.321,0.756-0.445,0.903c0.051-0.151,0.106-0.296,0.161-0.44c-0.288,0.696-0.46,1.136-0.597,1.795
			l0.066-0.229c-0.053,0.256-0.205,0.85-0.244,1.62l-0.172,3.333l1.735-2.809c0.376-0.609,0.864-1.315,1.311-1.904
			c0.444-0.59,0.841-1.066,0.981-1.26c-0.085,0.065-0.166,0.134-0.249,0.202c0.119-0.158,0.244-0.311,0.368-0.465
			c-0.049,0.051-0.076,0.319-0.127,0.35c0.215-0.231,0.647-0.713,1.235-1.273c0.068-0.065,0.14-0.133,0.214-0.204
			c0.05-0.046,0.103-0.093,0.156-0.142c0.106-0.093,0.221-0.189,0.34-0.281c0.119-0.092,0.242-0.183,0.362-0.263l0.089-0.06
			c0.004,0.009-0.023,0.056-0.033,0.081c-0.029,0.061-0.056,0.12-0.082,0.175c-0.106,0.225-0.195,0.405-0.244,0.491
			c-0.099,0.146-0.129,0.09-0.145,0.105c-0.024,0.095,0.053,0.011-0.004,0.123c-0.025,0.032-0.045,0.004-0.049-0.005
			c-0.012,0.04-0.05,0.079-0.025,0.081c0.046-0.056,0.109-0.044,0.172-0.085l-0.095,0.191l-0.034-0.019
			c-0.014,0.029,0.024,0.011-0.033,0.19c-0.043,0.148-0.113,0.351-0.257,0.634c-0.468,0.961-0.948,2.019-1.411,2.989
			c-0.014-0.025,0.069-0.235,0.152-0.446c-0.062,0.13-0.15,0.332-0.221,0.445c0.147-0.218-0.166,0.42-0.064,0.244
			c-0.247,0.754-0.758,1.64-0.993,2.297c0.052,0.091,0.706,1.973,0.798,2.017c-0.093,0.195-0.186,0.388-0.221,0.445
			c0.045-0.04,0.235-0.42,0.318-0.63l-0.033-0.058c0.202-0.478,0.081-0.096,0.292-0.557c0.052-0.005-0.137,0.421-0.307,0.794
			c0.161-0.332,0.347-0.652,0.366-0.809c0.164-0.307,0.033,0.058,0.228-0.313c0.114-0.275,0.24-0.648,0.409-0.947l0.005,0.009
			c0.394-0.734,0.478-1.182,0.841-1.851l-0.021,0.08c0.137-0.232,0.33-0.726,0.56-1.154c-0.067,0.121-0.147,0.217-0.028-0.05
			c0.262-0.493,0.397-0.849,0.601-1.204l0.126-0.373c0.309-0.664,0.847-1.817,1.498-3.215c0.207-0.445,0.423-0.91,0.646-1.39
			c0.129-0.261,0.179-0.426,0.258-0.627c0.074-0.195,0.149-0.392,0.224-0.592c0.151-0.397,0.304-0.802,0.459-1.211
			c0.077-0.204,0.155-0.408,0.233-0.614l0.058-0.154l0.029-0.077c0.013-0.023-0.014,0.003-0.024,0.008l-0.04,0.027l-0.32,0.216
			c-0.805,0.546-1.61,1.092-2.386,1.619c-0.382,0.269-0.745,0.509-1.131,0.81c-0.189,0.144-0.375,0.286-0.558,0.425
			c-0.187,0.155-0.371,0.307-0.55,0.456c-0.366,0.291-0.683,0.598-0.995,0.876c-0.075,0.068-0.149,0.135-0.222,0.201
			c-0.041,0.041-0.082,0.08-0.122,0.12c-0.08,0.078-0.157,0.154-0.231,0.226c-0.294,0.292-0.534,0.541-0.705,0.726l0.049-0.063
			c-0.81,0.866-1.897,2.139-2.893,3.667l1.682,0.564c0.062-1.127,0.617-2.369,1.161-3.589c0.27-0.613,0.537-1.227,0.738-1.838
			c0.173-0.472,0.407-1.572,0.395-2.33c0.016-0.286-0.007-0.593-0.019-0.919c-0.011-0.172-0.022-0.346-0.034-0.52l-0.018-0.26
			l-0.009-0.129l-0.018-0.106c-0.252,0.105-0.494,0.206-0.717,0.299c0.437-0.167,0.257-0.057-0.082,0.086
			c-1.166,0.492-1.216,0.568-1.255,0.589c-0.021,0.016-0.043,0.034-0.207,0.123c-0.082,0.046-0.199,0.101-0.367,0.201
			c-0.085,0.046-0.181,0.111-0.292,0.178c-0.069,0.043-0.147,0.092-0.236,0.148c-0.484,0.321-1.376,0.956-2.268,1.87
			c-0.892,0.911-1.757,2.111-2.338,3.314l1.511,0.565c0.412-1.403,0.951-2.599,1.202-3.125c0.271-0.777,0.763-1.691,1.084-2.449
			l-0.022,0.081c0.176-0.402,0.842-1.718,1.443-3.12c0.144-0.354,0.291-0.709,0.422-1.056c0.121-0.352,0.252-0.683,0.344-0.998
			c0.092-0.315,0.182-0.596,0.242-0.838c0.06-0.269,0.109-0.486,0.141-0.632l-0.055,0.2c0.017-0.084,0.033-0.161,0.048-0.233
			c0.016-0.082,0.036-0.158,0.045-0.229c0.023-0.142,0.044-0.264,0.055-0.366c0.026-0.207,0.05-0.359,0.075-0.503
			c0.047-0.29,0.109-0.545,0.179-1.162c-0.045,0.114-0.052-0.146-0.043-0.479c0.007-0.171,0.014-0.357,0.021-0.527
			c0.002-0.044,0.005-0.086,0.007-0.127l0.004-0.061l0.002-0.03c0.001-0.01,0.003-0.023-0.009-0.012
			c-0.07,0.038-0.132,0.072-0.184,0.1l0.032-0.034c-0.311,0.173-0.824,0.457-1.386,0.77c-0.548,0.331-1.143,0.69-1.642,0.991
			l0.005-0.048c-0.503,0.338-1.498,0.89-1.873,1.11c-0.87,0.482-2.232,1.187-3.359,1.894l-0.798,0.331l-0.104,0.072
			c0,0-0.555,1.87,1.113,1.241l-0.006,0.048l0.3-0.178c0.373-0.192,0.519-0.328,0.513-0.28l-0.5,0.282
			c0.37-0.2,0.126-0.035-0.003,0.064c0.154-0.084,0.304-0.165,0.432-0.225c0.065-0.054-0.061,0.016-0.122,0.042
			c0.19-0.125,0.445-0.314,0.693-0.436c0.376-0.212,0.055,0.041,0.493-0.206c1.158-0.648,2.299-1.285,3.443-1.925l0.742-0.416
			l0.042-0.016l0.043-0.021c0.002,0.011-0.002,0.032-0.001,0.047c-0.02,0.019-0.018,0.014-0.027,0.02
			c0.008,0.004,0.009,0.02,0.008,0.036l-0.001,0.009L73.303,30.2l-0.055,0.25c-0.032,0.167-0.077,0.332-0.124,0.499
			c-0.071,0.179-0.109,0.222-0.14,0.272c0.033-0.05-0.226,0.865-0.612,1.79c-0.189,0.463-0.389,0.93-0.554,1.285
			C71.655,34.65,71.542,34.893,71.533,34.907z"/>
		<path fill="#FCD83E" d="M-2.883,14.6c0.033-0.049,0.034-0.119,0.054-0.196C-2.881,14.457-2.899,14.524-2.883,14.6z"/>
		<polygon fill="#FCD83E" points="-2.828,14.403 -2.828,14.402 -2.829,14.404 		"/>
		<path fill="#FCD83E" d="M7.806,13.343c0,0.01,0,0.022-0.001,0.034C7.808,13.366,7.809,13.354,7.806,13.343z"/>
		<path fill="#FCD83E" d="M0.406,16.256l-0.043-0.152c0.046-0.189,0.073-0.296,0.092-0.377c0.02-0.068,0.034-0.086,0.045-0.107
			c0.022-0.04,0.049-0.07,0.094-0.532c-0.023-0.208,0.025-0.587,0.141-0.814c0.032-0.083,0.035-0.068,0.049-0.094
			c0.011-0.019,0.022-0.034,0.031-0.047c0.017-0.029,0.029-0.049,0.026-0.068c0.006,0.001,0.052-0.048,0.071-0.023
			c-0.027-0.049,0.028-0.046,0.031-0.062c-0.003-0.015-0.012-0.013-0.028-0.022c0.01-0.015,0.019-0.026,0.028-0.039
			c0.023,0.013,0.031,0.042,0.023,0.051c0.003,0,0.006,0.001,0.011-0.003l-1.274-0.994c-0.007,0.223-0.016,0.581,0.044,1.007
			c0.058,0.425,0.183,0.915,0.385,1.392c0.2,0.478,0.474,0.944,0.786,1.333c0.311,0.391,0.653,0.706,0.943,0.926l2.012,1.532
			L3.536,16.66c-0.025-0.187-0.045-0.387-0.043-0.325c-0.049-0.073,0.005,0.192-0.048,0.27c-0.058-0.17-0.019-0.301-0.055-0.27
			c0.095,0,0.021-0.045,0.12,0l-0.056-0.034c0.011,0.005,0.023,0.012,0.034,0.019c-0.057-0.081-0.028-0.041-0.013-0.045
			c-0.008-0.02-0.069-0.215-0.04-0.174c0,0-0.031-0.069-0.039-0.119c0.038,0.123-0.017-0.134,0.022-0.008
			c-0.001-0.03,0.017-0.057-0.029-0.251c0.025,0.09,0.046,0.096,0.054,0.217c0.006-0.014,0.013,0.033,0.008-0.006l-0.013-0.08
			c0.009,0.025,0.034,0.191,0.025,0.057l-0.016-0.094c0.01,0.025,0.024,0.052,0.04,0.216c-0.002,0.007-0.004,0.015-0.005,0.025
			c0.006,0.014,0.01,0.024,0.015,0.028c0.006,0.005,0.012-0.001,0.024-0.013l-0.007-0.018c0.01-0.028,0.043-0.004,0.11,0.057
			c0.019,0.018,0.03,0.025,0.061,0.058l0.053,0.058l0.114,0.134c0.171,0.203,0.347,0.383,0.496,0.529l1.377,1.348l-0.055-1.83
			c-0.006-0.213-0.016-0.377-0.03-0.458l-0.057,0.171l-0.029-0.325c-0.002,0.038,0.155,0.163,0.138,0.194
			c0.004-0.129,0.012-0.359,0.021-0.652c0.004-0.149,0.008-0.329,0.013-0.523c0.002-0.114,0.005-0.236,0.007-0.354
			c0.01-0.096-0.018-0.321,0.063-0.149c0.084,0.116,0.15,0.207,0.181,0.249c0.05,0.095,0.015,0.128,0.019,0.143
			c0.042,0.021,0.018-0.054,0.062-0.001c0.011,0.024-0.008,0.046-0.014,0.05c0.017,0.011,0.03,0.046,0.037,0.021
			c-0.019-0.044,0.003-0.108-0.004-0.171l0.078,0.085l-0.018,0.036c0.008,0.008,0.028-0.009,0.06-0.012
			c0.016-0.002,0.034,0,0.055,0.009c0.012,0.006,0.017,0.007,0.033,0.02c0.029,0.025,0.06,0.052,0.092,0.084
			c0.055,0.053,0.115,0.102,0.174,0.153c0.047,0.041,0.143,0.122,0.241,0.194l0.289,0.219l0.297,0.2
			c0.399,0.26,0.789,0.472,1.177,0.69c-0.001,0.026-0.159-0.045-0.321-0.119c0.105,0.06,0.264,0.14,0.37,0.217
			c-0.21-0.162,0.318,0.143,0.16,0.037c0.066,0.022,0.136,0.05,0.208,0.081l0.11,0.049c0.018-0.018,0.011-0.082,0.018-0.12
			c0.015-0.176,0.035-0.346,0.056-0.513c0.041-0.333,0.086-0.661,0.089-0.95c-0.017-0.028-0.098-0.19-0.215-0.387
			c-0.118-0.2-0.269-0.419-0.44-0.619c-0.335-0.402-0.694-0.561-0.744-0.573c0.005-0.03,0.009-0.059,0.019-0.068
			c-0.025,0.007-0.041,0.059-0.031,0.094l0.052,0.027c0.011,0.091-0.033,0.004-0.037,0.08c-0.042-0.028-0.046-0.092-0.045-0.142
			c-0.01,0.046-0.044,0.065,0,0.116c-0.021,0.028-0.051-0.041-0.073-0.013c0.01,0.036,0.045,0.13,0.018,0.138l-0.007-0.011
			c-0.024,0.013-0.012,0.065-0.001,0.129c0.014,0.064,0.011,0.06-0.009,0.027l-0.006-0.022c-0.012-0.04-0.009,0.006-0.016-0.033
			c-0.001,0.011,0.005,0.055-0.003,0.056c-0.007-0.039-0.023-0.017-0.011-0.051c-0.003,0.002-0.009,0.002-0.017,0.001L7.64,13.692
			L7.554,13.65c-0.035-0.03-0.075-0.065-0.119-0.103c-0.029-0.025-0.059-0.052-0.091-0.08c-0.056-0.048-0.108-0.098-0.165-0.153
			c-0.111-0.111-0.231-0.232-0.36-0.361c-0.127-0.138-0.26-0.301-0.403-0.464c-0.143-0.181-0.296-0.404-0.455-0.619
			c-0.169-0.248-0.346-0.508-0.53-0.778c-0.37-0.545-0.769-1.133-1.191-1.754C4.203,9.8,4.185,10.576,4.159,11.263
			c-0.024,0.696-0.048,1.392-0.07,2.045c-0.034,1.015-0.064,1.893-0.079,2.36l-0.005-0.041c-0.006,0.21-0.014,0.45-0.022,0.713
			l1.615-0.589c-0.121-0.133-0.249-0.277-0.372-0.435l-0.099-0.127c-0.055-0.078-0.111-0.157-0.167-0.237L4.874,14.83l-0.089-0.147
			c-0.059-0.099-0.119-0.198-0.179-0.298c-0.056-0.111-0.113-0.223-0.17-0.335c-0.028-0.058-0.058-0.108-0.085-0.173L4.27,13.674
			c-0.054-0.143-0.109-0.254-0.163-0.425l-0.159-0.563c-0.05-0.165-0.114-0.434-0.172-0.665L3.591,11.28
			c-0.142-0.572-0.284-1.145-0.425-1.715L3.02,9.938l-0.113,0.281l-0.079,0.183c-0.027,0.062-0.038,0.081-0.058,0.124L2.742,10.58
			l-0.018,0.032c-0.011,0.019-0.025,0.045-0.034,0.057l-0.023,0.028L2.66,10.704l-0.021,0.062l-0.046,0.137
			c-0.243,0.728-0.422,1.299-0.563,1.789c-0.13,0.25-0.256,0.739-0.337,1.13c0.059-0.198,0.068-0.084,0.034,0.081
			c-0.107,0.607-0.089,0.655-0.085,0.683c0.012,0.037,0.003,0.059-0.024,0.743c0.003,0.193-0.002,0.446,0.017,0.756
			c0.004,0.077,0.009,0.158,0.013,0.241c0.007,0.074,0.014,0.15,0.021,0.229c0.013,0.111,0.027,0.228,0.042,0.352l1.266-0.736
			c-0.472-0.346-0.952-0.971-1.191-1.608c-0.249-0.637-0.259-1.236-0.236-1.486l-0.006-0.038l-0.191-1.159l-0.886,0.319
			c-0.362,0.13-0.731,0.381-0.963,0.67c-0.233,0.259-0.42,0.681-0.385,0.664l-0.009-0.018c-0.012,0.045-0.046,0.179-0.062,0.312
			c-0.011,0.066-0.025,0.132-0.05,0.189c-0.012,0.028-0.028,0.054-0.045,0.077c-0.008,0.009-0.019,0.027-0.027,0.026
			c-0.008-0.013-0.015-0.025-0.022-0.037c-0.027-0.045-0.045-0.075-0.056-0.084l0.006,0.039c-0.062,0-0.037-0.165-0.052-0.269
			c-0.029,0.162-0.092,0.136-0.111,0.095l0.011-0.023c-0.027-0.033-0.123-0.126-0.157-0.269l0.037-0.015
			c-0.014-0.019-0.025-0.048-0.034-0.081c-0.005-0.017-0.008-0.032-0.012-0.056l-0.019-0.143c-0.02-0.193-0.026-0.379-0.031-0.491
			l-0.036-0.752l-0.696,0.081c-0.02,0.002-0.034,0.004-0.047,0.006c-0.395,0.023-0.893,0.178-1.285,0.505
			c-0.398,0.316-0.701,0.783-0.807,1.282c-0.094,0.2-0.16,0.425-0.191,0.666l0.017,0.105c0,0,0.085,0.068,0.229,0.126
			c0.143,0.059,0.332,0.101,0.519,0.089c0.19-0.011,0.375-0.066,0.527-0.154c0.153-0.084,0.271-0.172,0.351-0.276l0.039,0.009
			c-0.001-0.027-0.002-0.056,0.004-0.085c0.037-0.099,0.018-0.166,0.051-0.145c-0.017,0.048-0.037,0.097-0.043,0.144
			c0.03-0.103,0.036-0.022,0.052,0.017c0.007-0.039,0.027-0.079,0.046-0.108c-0.01-0.024-0.019,0.01-0.032,0.023
			c-0.004-0.057,0.003-0.152,0.054-0.213c0.07-0.098,0.055,0.023,0.138-0.082c0.15-0.176,0.348-0.259,0.479-0.254l-1.026-0.939
			c0.005,0.269,0.014,0.526,0.045,0.803c0.023,0.218,0.067,0.446,0.101,0.668c0.051,0.214,0.091,0.442,0.155,0.645
			c0.231,0.847,0.565,1.553,0.918,2.131c0.018,0.064-0.01,0.016-0.043-0.024c0.323,0.497,0.603,0.951,0.929,1.441
			c0.003,0.005,0.005,0.01,0.007,0.014c0.078-0.058,0.101-0.048,0.126-0.053c-0.004-0.001,0.01-0.025,0.061-0.096
			c0.047-0.064,0.116-0.158,0.201-0.274c0.127-0.171,0.299-0.403,0.473-0.638c0.151-0.198,0.297-0.409,0.411-0.668
			c0.057-0.122,0.104-0.252,0.136-0.349C0.384,16.325,0.403,16.266,0.406,16.256z"/>
		<path fill="#FCD83E" d="M69.111,14.6c0.033-0.049,0.034-0.119,0.054-0.196C69.114,14.457,69.095,14.524,69.111,14.6z"/>
		<polygon fill="#FCD83E" points="69.167,14.403 69.166,14.402 69.166,14.404 		"/>
		<path fill="#FCD83E" d="M79.801,13.343c0,0.01,0,0.022-0.001,0.034C79.803,13.366,79.804,13.354,79.801,13.343z"/>
		<path fill="#FCD83E" d="M72.401,16.256l-0.043-0.152c0.046-0.189,0.073-0.296,0.092-0.377c0.02-0.068,0.034-0.086,0.045-0.107
			c0.022-0.04,0.049-0.07,0.094-0.532c-0.023-0.208,0.025-0.587,0.141-0.814c0.032-0.083,0.035-0.068,0.049-0.094
			c0.011-0.019,0.022-0.034,0.031-0.047c0.017-0.029,0.029-0.049,0.026-0.068c0.006,0.001,0.052-0.048,0.071-0.023
			c-0.027-0.049,0.028-0.046,0.031-0.062c-0.003-0.015-0.012-0.013-0.028-0.022c0.01-0.015,0.019-0.026,0.028-0.039
			c0.023,0.013,0.031,0.042,0.023,0.051c0.003,0,0.006,0.001,0.011-0.003l-1.274-0.994c-0.007,0.223-0.016,0.581,0.044,1.007
			c0.058,0.425,0.183,0.915,0.385,1.392c0.2,0.478,0.474,0.944,0.786,1.333c0.311,0.391,0.653,0.706,0.943,0.926l2.012,1.532
			l-0.337-2.506c-0.025-0.187-0.045-0.387-0.043-0.325c-0.049-0.073,0.005,0.192-0.048,0.27c-0.058-0.17-0.019-0.301-0.055-0.27
			c0.095,0,0.021-0.045,0.12,0l-0.056-0.034c0.011,0.005,0.023,0.012,0.034,0.019c-0.057-0.081-0.028-0.041-0.013-0.045
			c-0.008-0.02-0.069-0.215-0.04-0.174c0,0-0.031-0.069-0.039-0.119c0.038,0.123-0.017-0.134,0.022-0.008
			c-0.001-0.03,0.017-0.057-0.029-0.251c0.025,0.09,0.046,0.096,0.054,0.217c0.006-0.014,0.013,0.033,0.008-0.006l-0.013-0.08
			c0.009,0.025,0.034,0.191,0.025,0.057l-0.016-0.094c0.01,0.025,0.024,0.052,0.04,0.216c-0.002,0.007-0.004,0.015-0.005,0.025
			c0.006,0.014,0.01,0.024,0.015,0.028c0.006,0.005,0.012-0.001,0.024-0.013l-0.007-0.018c0.01-0.028,0.043-0.004,0.11,0.057
			c0.019,0.018,0.03,0.025,0.061,0.058l0.053,0.058l0.114,0.134c0.171,0.203,0.347,0.383,0.496,0.529l1.377,1.348l-0.055-1.83
			c-0.006-0.213-0.016-0.377-0.03-0.458l-0.057,0.171l-0.029-0.325c-0.002,0.038,0.155,0.163,0.138,0.194
			c0.004-0.129,0.012-0.359,0.021-0.652c0.004-0.149,0.008-0.329,0.013-0.523c0.002-0.114,0.005-0.236,0.007-0.354
			c0.01-0.096-0.018-0.321,0.063-0.149c0.084,0.116,0.15,0.207,0.181,0.249c0.05,0.095,0.015,0.128,0.019,0.143
			c0.042,0.021,0.018-0.054,0.062-0.001c0.011,0.024-0.008,0.046-0.014,0.05c0.017,0.011,0.03,0.046,0.037,0.021
			c-0.019-0.044,0.003-0.108-0.004-0.171l0.078,0.085l-0.018,0.036c0.008,0.008,0.028-0.009,0.06-0.012
			c0.016-0.002,0.034,0,0.055,0.009c0.012,0.006,0.017,0.007,0.033,0.02c0.029,0.025,0.06,0.052,0.092,0.084
			c0.055,0.053,0.115,0.102,0.174,0.153c0.047,0.041,0.143,0.122,0.241,0.194l0.289,0.219l0.297,0.2
			c0.399,0.26,0.789,0.472,1.177,0.69c-0.001,0.026-0.159-0.045-0.321-0.119c0.105,0.06,0.264,0.14,0.37,0.217
			c-0.21-0.162,0.318,0.143,0.16,0.037c0.066,0.022,0.136,0.05,0.208,0.081l0.11,0.049c0.018-0.018,0.011-0.082,0.018-0.12
			c0.015-0.176,0.035-0.346,0.056-0.513c0.041-0.333,0.086-0.661,0.089-0.95c-0.017-0.028-0.098-0.19-0.215-0.387
			c-0.118-0.2-0.269-0.419-0.44-0.619c-0.335-0.402-0.694-0.561-0.744-0.573c0.005-0.03,0.009-0.059,0.019-0.068
			c-0.025,0.007-0.041,0.059-0.031,0.094l0.052,0.027c0.011,0.091-0.033,0.004-0.037,0.08c-0.042-0.028-0.046-0.092-0.045-0.142
			c-0.01,0.046-0.044,0.065,0,0.116c-0.021,0.028-0.051-0.041-0.073-0.013c0.01,0.036,0.045,0.13,0.018,0.138l-0.007-0.011
			c-0.024,0.013-0.012,0.065-0.001,0.129c0.014,0.064,0.011,0.06-0.009,0.027l-0.006-0.022c-0.012-0.04-0.009,0.006-0.016-0.033
			c-0.001,0.011,0.005,0.055-0.003,0.056c-0.007-0.039-0.023-0.017-0.011-0.051c-0.003,0.002-0.009,0.002-0.016,0.001l-0.043-0.021
			l-0.086-0.042c-0.035-0.03-0.075-0.065-0.119-0.103c-0.029-0.025-0.059-0.052-0.091-0.08c-0.056-0.048-0.108-0.098-0.165-0.153
			c-0.111-0.111-0.231-0.232-0.36-0.361c-0.127-0.138-0.261-0.301-0.403-0.464c-0.143-0.181-0.296-0.404-0.455-0.619
			c-0.169-0.248-0.346-0.508-0.53-0.778c-0.37-0.545-0.769-1.133-1.191-1.754c-0.038,0.464-0.056,1.239-0.081,1.927
			c-0.024,0.696-0.048,1.392-0.07,2.045c-0.034,1.015-0.064,1.893-0.079,2.36l-0.005-0.041c-0.006,0.21-0.014,0.45-0.022,0.713
			l1.615-0.589c-0.121-0.133-0.249-0.277-0.372-0.435l-0.099-0.127c-0.055-0.078-0.111-0.157-0.167-0.237l-0.085-0.122l-0.089-0.147
			c-0.059-0.099-0.119-0.198-0.179-0.298c-0.056-0.111-0.113-0.223-0.17-0.335c-0.028-0.058-0.058-0.108-0.085-0.173l-0.081-0.203
			c-0.054-0.143-0.109-0.254-0.163-0.425l-0.159-0.563c-0.05-0.165-0.114-0.434-0.172-0.665l-0.185-0.742
			c-0.142-0.572-0.284-1.145-0.425-1.715l-0.146,0.374l-0.113,0.281l-0.079,0.183c-0.027,0.062-0.038,0.081-0.058,0.124
			l-0.027,0.055l-0.018,0.032c-0.011,0.019-0.025,0.045-0.034,0.057l-0.023,0.028l-0.006,0.007l-0.021,0.062l-0.046,0.137
			c-0.243,0.728-0.422,1.299-0.563,1.789c-0.13,0.25-0.256,0.739-0.337,1.13c0.059-0.198,0.068-0.084,0.034,0.081
			c-0.107,0.607-0.089,0.655-0.085,0.683c0.012,0.037,0.003,0.059-0.024,0.743c0.003,0.193-0.002,0.446,0.017,0.756
			c0.004,0.077,0.009,0.158,0.013,0.241c0.007,0.074,0.014,0.15,0.021,0.229c0.013,0.111,0.027,0.228,0.042,0.352l1.266-0.736
			c-0.472-0.346-0.952-0.971-1.191-1.608c-0.249-0.637-0.259-1.236-0.236-1.486l-0.006-0.038l-0.191-1.159l-0.886,0.319
			c-0.362,0.13-0.731,0.381-0.963,0.67c-0.233,0.259-0.42,0.681-0.385,0.664l-0.009-0.018c-0.012,0.045-0.046,0.179-0.062,0.312
			c-0.011,0.066-0.025,0.132-0.05,0.189c-0.012,0.028-0.028,0.054-0.045,0.077c-0.008,0.009-0.019,0.027-0.027,0.026
			c-0.008-0.013-0.015-0.025-0.022-0.037c-0.027-0.045-0.045-0.075-0.056-0.084l0.006,0.039c-0.062,0-0.037-0.165-0.052-0.269
			c-0.029,0.162-0.092,0.136-0.111,0.095l0.011-0.023c-0.027-0.033-0.123-0.126-0.158-0.269l0.037-0.015
			c-0.014-0.019-0.025-0.048-0.034-0.081c-0.005-0.017-0.008-0.032-0.012-0.056l-0.019-0.143c-0.02-0.193-0.026-0.379-0.031-0.491
			l-0.036-0.752l-0.696,0.081c-0.02,0.002-0.034,0.004-0.047,0.006c-0.395,0.023-0.893,0.178-1.285,0.505
			c-0.398,0.316-0.701,0.783-0.807,1.282c-0.094,0.2-0.16,0.425-0.191,0.666l0.017,0.105c0,0,0.085,0.068,0.229,0.126
			c0.143,0.059,0.332,0.101,0.519,0.089c0.19-0.011,0.375-0.066,0.527-0.154c0.153-0.084,0.271-0.172,0.351-0.276l0.038,0.009
			c-0.001-0.027-0.002-0.056,0.004-0.085c0.037-0.099,0.018-0.166,0.051-0.145c-0.017,0.048-0.037,0.097-0.043,0.144
			c0.03-0.103,0.035-0.022,0.052,0.017c0.007-0.039,0.027-0.079,0.046-0.108c-0.01-0.024-0.019,0.01-0.032,0.023
			c-0.004-0.057,0.003-0.152,0.054-0.213c0.07-0.098,0.055,0.023,0.138-0.082c0.15-0.176,0.348-0.259,0.479-0.254l-1.026-0.939
			c0.005,0.269,0.014,0.526,0.045,0.803c0.023,0.218,0.067,0.446,0.101,0.668c0.051,0.214,0.091,0.442,0.155,0.645
			c0.231,0.847,0.565,1.553,0.918,2.131c0.018,0.064-0.01,0.016-0.043-0.024c0.323,0.497,0.603,0.951,0.929,1.441
			c0.003,0.005,0.005,0.01,0.007,0.014c0.078-0.058,0.101-0.048,0.126-0.053c-0.004-0.001,0.01-0.025,0.061-0.096
			c0.047-0.064,0.116-0.158,0.201-0.274c0.127-0.171,0.299-0.403,0.473-0.638c0.151-0.198,0.297-0.409,0.411-0.668
			c0.057-0.122,0.104-0.252,0.136-0.349C72.379,16.325,72.398,16.266,72.401,16.256z"/>
		<path fill="#FCD83E" d="M21.402,69.371c0.104-0.115,0.222-0.345,0.336-0.56C21.619,68.961,21.515,69.132,21.402,69.371z"/>
		<polygon fill="#FCD83E" points="21.742,68.807 21.743,68.803 21.739,68.811 		"/>
		<path fill="#FCD83E" d="M45.653,67.57c-0.033,0.007-0.07,0.02-0.108,0.018C45.582,67.593,45.619,67.582,45.653,67.57z"/>
		<path fill="#FCD83E" d="M26.573,66.705l0.079,0.006c0.232,0.531-0.007,0.187,0.222,0.671c0.09,0.08,0.168,0.271,0.259,0.497
			c0.088,0.221,0.201,0.468,0.284,0.558c-0.014-0.002,0.169,0.296,0.138,0.297c0.106,0.06,0.237,0.307,0.451,0.482
			c0.083,0.054-0.044-0.06-0.079-0.122c0.141,0.136,0.311,0.267,0.501,0.371c0.215,0.138,0.266,0.194,0.007,0.069
			c0.184,0.11,0.506,0.251,0.892,0.293c0.387,0.046,0.817-0.006,1.226-0.148c0.202-0.071,0.416-0.163,0.599-0.277
			c0.186-0.111,0.378-0.226,0.552-0.377c0.364-0.282,0.676-0.649,0.925-1.032c0.503-0.776,0.737-1.607,0.868-2.277
			c0.035-0.169,0.061-0.329,0.081-0.478c0.01-0.073,0.02-0.143,0.03-0.211l0.003-0.03c0.004-0.052,0.001-0.039-0.002-0.046
			c-0.019-0.014-0.023-0.011-0.029-0.01c-0.007,0.011-0.019,0.036-0.052,0.041c-0.026-0.091,0.019-0.066-0.015-0.104
			c0.045,0.028,0.051,0.025,0.057,0.021c0.006-0.002,0.012-0.008,0.055,0.065l-0.049-0.085l0.03,0.05l-0.001-0.003
			c-0.027-0.069-0.008-0.06-0.01-0.06c0.003,0.005,0.013,0.025,0.028,0.046c0.007,0,0.019-0.02,0.038-0.025
			c0.015-0.009,0.042,0.005,0.032,0.016c0.004,0.004,0.018-0.033,0.037-0.03c-0.006,0.012-0.019,0.001-0.004,0.021
			c0.022,0.027,0.05,0.063,0.08,0.1c0.061,0.072,0.118,0.154,0.114,0.194c0.079,0.105,0.249,0.49,0.247,0.334
			c0.007,0.078,0.123,0.432,0.018,0.234c0.043,0.119,0.069,0.229,0.113,0.329l-0.034-0.171c0.146,0.43,0.164,0.753,0.324,1.088
			l-0.032-0.208c0.09,0.32,0.191,0.608,0.186,0.771c-0.053-0.12-0.098-0.237-0.142-0.352c0.19,0.564,0.34,0.97,0.813,1.47
			l-0.152-0.187c0.072,0.079,0.179,0.202,0.351,0.343c0.082,0.071,0.192,0.139,0.302,0.211c0.121,0.059,0.25,0.133,0.393,0.174
			c0.278,0.102,0.621,0.138,0.973,0.095c0.356-0.043,0.685-0.2,0.945-0.382c0.263-0.184,0.469-0.398,0.628-0.609
			c0.165-0.21,0.286-0.419,0.384-0.61c0.191-0.384,0.284-0.699,0.311-0.849c-0.045,0.083-0.091,0.164-0.142,0.243
			c0.051-0.164,0.092-0.33,0.123-0.499c-0.014,0.057,0.084,0.286,0.05,0.332c0.111-0.318,0.25-0.896,0.348-1.642
			c0.012-0.093,0.024-0.188,0.033-0.286l0.015-0.147l0.011-0.132c0.002-0.055,0.004-0.112,0.006-0.17
			c0.001-0.116-0.004-0.239-0.015-0.358c-0.006-0.049-0.011-0.097-0.017-0.145c-0.003-0.023-0.009-0.05-0.009-0.068l0.061,0.029
			c0.079,0.042,0.15,0.091,0.206,0.145c0.115,0.105,0.182,0.209,0.211,0.262c0.041,0.109-0.033,0.094-0.034,0.107
			c0.06,0.055,0.054-0.016,0.099,0.063c0.005,0.026-0.034,0.019-0.044,0.016c0.011,0.013,0.017,0.027,0.021,0.036
			c0.015,0.027,0.044,0.073,0.054,0.067c-0.047-0.096-0.02-0.09-0.004-0.109c0.017-0.016,0.039-0.03,0.048-0.053l0.182,0.328
			l-0.044,0.002c0.048,0.088,0.217,0.171,0.41,0.586c0.176,0.352,0.35,0.708,0.58,1.099c0.228,0.383,0.488,0.747,0.77,1.08
			c-0.025,0.005-0.16-0.124-0.28-0.262c0.068,0.095,0.188,0.228,0.247,0.321c-0.11-0.186,0.265,0.258,0.168,0.122
			c0.251,0.205,0.526,0.455,0.823,0.679c0.295,0.225,0.634,0.406,0.932,0.492c0.042-0.029,0.494-0.262,0.788-0.594
			c0.311-0.339,0.421-0.734,0.413-0.782c0.089-0.006,0.176-0.03,0.207-0.022c-0.031-0.023-0.202,0.007-0.292,0.016l-0.015,0.056
			c-0.225,0.004-0.049-0.025-0.267-0.055c-0.001-0.047,0.194-0.009,0.353-0.037c-0.073,0.003-0.146-0.003-0.208-0.016
			c-0.062-0.002-0.116-0.014-0.152,0.003c-0.141-0.052,0.029-0.038-0.139-0.113c-0.125-0.016-0.319-0.073-0.459-0.184l0.007-0.005
			c-0.335-0.281-0.606-0.384-0.878-0.764l0.044,0.028c-0.09-0.134-0.316-0.377-0.458-0.646c0.038,0.078,0.052,0.16-0.05,0.008
			c-0.087-0.158-0.157-0.285-0.222-0.404c-0.07-0.133-0.134-0.254-0.186-0.393l-0.17-0.23c-0.094-0.183-0.233-0.451-0.413-0.779
			c-0.047-0.082-0.095-0.168-0.146-0.258c-0.032-0.053-0.064-0.107-0.097-0.162c-0.05-0.085-0.101-0.169-0.155-0.251
			c-0.11-0.16-0.223-0.325-0.339-0.493c-0.12-0.158-0.249-0.308-0.377-0.466c-0.133-0.133-0.268-0.277-0.406-0.403
			c-0.138-0.107-0.278-0.243-0.418-0.331c-0.282-0.204-0.557-0.336-0.846-0.481c-0.31-0.151-0.622-0.303-0.929-0.453
			c-0.079-0.028-0.121-0.038-0.236-0.082l-0.152-0.057l-0.205-0.083c0.071,0.501,0.14,0.991,0.208,1.467
			c0.032,0.228,0.063,0.452,0.093,0.673c0.018,0.2,0.036,0.397,0.053,0.591c0.006,0.18,0.011,0.357,0.016,0.53
			c-0.004,0.166-0.008,0.329-0.012,0.489c-0.008,0.125-0.017,0.247-0.025,0.366c-0.007,0.072-0.014,0.142-0.02,0.211
			c-0.059,0.547-0.15,0.975-0.214,1.236l0.005-0.051c-0.05,0.215-0.121,0.435-0.233,0.67c-0.108,0.232-0.261,0.458-0.421,0.617
			c-0.168,0.163-0.296,0.208-0.377,0.204c-0.046-0.006-0.122-0.013-0.166-0.045c-0.048-0.029-0.103-0.073-0.169-0.158
			c-0.131-0.177-0.26-0.499-0.365-0.854c-0.11-0.363-0.199-0.748-0.343-1.173c-0.148-0.435-0.343-0.827-0.558-1.167
			c-0.052-0.086-0.111-0.166-0.165-0.246c-0.028-0.042-0.053-0.073-0.088-0.12c-0.046-0.06-0.092-0.125-0.137-0.178
			c-0.184-0.213-0.361-0.414-0.541-0.573c-0.206-0.234-0.479-0.455-0.754-0.65c-0.276-0.185-0.549-0.328-0.791-0.46
			c0.271,0.163,0.185,0.154-0.019,0.044c-0.644-0.34-0.764-0.39-0.786-0.393c-0.029-0.005,0.003,0.021-0.284-0.042
			c0.001,0.131,0.002,0.316,0.004,0.552c0.001,0.306,0.001,0.719,0.002,1.211c-0.007,0.236-0.015,0.492-0.023,0.763
			c-0.021,0.236-0.044,0.486-0.067,0.746c-0.081,0.599-0.224,1.293-0.515,1.85c-0.273,0.574-0.702,0.963-1.119,1.174
			c-0.194,0.096-0.376,0.135-0.499,0.139c-0.125,0.003-0.192-0.021-0.233-0.04c-0.098-0.001-0.226-0.085-0.361-0.284
			c-0.134-0.196-0.255-0.47-0.391-0.735l0.038,0.049c-0.139-0.291-0.558-1.278-0.982-2.277c-0.106-0.25-0.213-0.5-0.315-0.741
			c-0.1-0.235-0.207-0.494-0.348-0.747c-0.14-0.252-0.318-0.498-0.52-0.683c-0.197-0.186-0.408-0.306-0.549-0.367
			c0.049,0.027,0.098,0.052,0.144,0.085c-0.241-0.122-0.425-0.177-0.565-0.209c-0.141-0.036-0.242-0.051-0.337-0.067
			c-0.187-0.027-0.355-0.057-0.727,0.002c0.056,0.026-0.116,0.084-0.315,0.175c-0.201,0.088-0.428,0.22-0.549,0.299l0.001-0.019
			c-0.09,0.06-0.211,0.149-0.329,0.259c-0.117,0.106-0.234,0.236-0.347,0.374c-0.225,0.278-0.409,0.593-0.551,0.848l-0.022-0.04
			c-0.21,0.43-0.579,1.183-0.722,1.477c-0.337,0.646-0.894,1.623-1.279,2.519l-0.378,0.515l-0.031,0.087
			c0,0,0.758,1.503,1.583,0.477l0.026,0.036l0.108-0.23c0.152-0.265,0.174-0.412,0.2-0.376l-0.189,0.373
			c0.146-0.27,0.07-0.069,0.038,0.046c0.06-0.113,0.119-0.222,0.175-0.308c0.013-0.061-0.034,0.033-0.063,0.072
			c0.061-0.154,0.129-0.376,0.234-0.548c0.142-0.28,0.065,0.01,0.231-0.317c0.44-0.855,0.874-1.697,1.309-2.541
			c0.207-0.397,0.414-0.733,0.636-0.968c0.056-0.057,0.111-0.112,0.168-0.158c0.052-0.042,0.098-0.075,0.155-0.106
			c0.109-0.064,0.233-0.107,0.341-0.126c0.022,0.012-0.001,0.017-0.025,0.028c0.131-0.035,0.23-0.024,0.281-0.007
			c0.05,0.017,0.087,0.032,0.178,0.134c0.03,0.071,0.023,0.108,0.023,0.139c0-0.013,0.058,0.059,0.16,0.268
			c0.1,0.209,0.26,0.577,0.41,0.915c0.151,0.347,0.304,0.697,0.421,0.964C26.492,66.51,26.57,66.694,26.573,66.705z"/>
		<path fill="#FCD83E" d="M-8.184,75.803c0.11-0.049,0.251-0.182,0.386-0.305C-7.927,75.568-8.046,75.66-8.184,75.803z"/>
		<polygon fill="#FCD83E" points="-7.795,75.496 -7.793,75.493 -7.798,75.497 		"/>
		<path fill="#FCD83E" d="M8.087,63.416c-0.033,0.033-0.07,0.071-0.109,0.109C8.016,63.49,8.054,63.453,8.087,63.416z"/>
		<path fill="#FCD83E" d="M-1.784,70.189l0.002-0.094c0.032-0.028-0.004,0.108,0.013,0.071c0.022-0.084,0.036-0.091,0.039-0.083
			c0.004,0.008-0.004,0.033,0.026-0.026c-0.008,0.017,0,0.015-0.037,0.085c0.065-0.124,0.023-0.035,0.046-0.072
			c0.023-0.039,0.021-0.038,0.04-0.075l0.05-0.065c-0.028,0.054-0.077,0.133-0.085,0.141c-0.02,0.049-0.055,0.132-0.072,0.152
			l-0.006,0.007c-0.028,0.128-0.055,0.254-0.082,0.379c-0.055,0.258-0.107,0.505-0.155,0.732c-0.162,0.802-0.294,1.453-0.365,1.805
			c0.087-0.221,0.156-0.692,0.261-0.881c-0.043,0.389-0.135,0.593-0.129,0.751c-0.141,0.209-0.206,0.885-0.39,1.297l0.043,0.057
			l-0.084,0.244c-0.299,1.728-0.047,0.364-0.397,1.998c-0.181,0.919-0.148,1.129-0.296,1.71c0.017-0.078,0.112-0.374,0.087-0.188
			c-0.088,0.192-0.067,0.495-0.173,0.768c-0.036,0.205-0.197,0.954-0.029,0.46c-0.03,0.085-0.059,0.199-0.085,0.306
			c0.098-0.1,0.214-0.23,0.01,0.065c0.139-0.176,0.262-0.319,0.388-0.506l-0.151,0.166c0.488-0.645,0.68-0.811,1.074-1.414
			l-0.145,0.145c0.291-0.381,0.528-0.694,0.582-0.66l-0.323,0.448c0.491-0.636,0.798-1.04,1.213-1.626l-0.141,0.178
			c0.273-0.401,1.061-1.466,1.784-2.395c0.351-0.464,0.774-0.992,0.866-1.128c0.158-0.216,0.28-0.389,0.328-0.476L1.771,72.57
			l0.185-0.281c-0.026,0.03,0.019,0.227-0.015,0.242c0.23-0.273,0.939-1.125,1.669-1.949c0.728-0.827,1.47-1.631,1.709-1.859
			c0.202-0.175,0.091,0.019,0.094,0.027c0.208-0.249,0.057-0.138,0.249-0.336c0.058-0.049,0.018,0.038-0.006,0.074
			c0.078-0.092,0.167-0.162,0.157-0.184C5.696,68.4,5.695,68.311,5.622,68.33l0.247-0.254l0.017,0.038
			c0.055-0.056,0.061-0.218,0.317-0.456c0.418-0.413,0.854-0.88,1.278-1.292c0.01,0.023-0.068,0.121-0.145,0.219
			C7.393,66.53,7.474,66.44,7.537,66.4c-0.13,0.072,0.155-0.195,0.064-0.128c0.236-0.376,0.698-0.706,0.924-1.021
			c-0.039-0.084-0.438-1.63-0.507-1.706c0.088-0.082,0.175-0.164,0.207-0.184c-0.039,0.004-0.217,0.161-0.298,0.258l0.022,0.054
			c-0.195,0.215-0.071,0.024-0.272,0.223c-0.042-0.022,0.138-0.209,0.3-0.372c-0.152,0.14-0.322,0.259-0.348,0.353
			c-0.152,0.122-0.023-0.054-0.204,0.095c-0.11,0.126-0.234,0.311-0.389,0.426L7.034,64.39c-0.364,0.293-0.457,0.549-0.788,0.818
			l0.022-0.043c-0.124,0.088-0.308,0.322-0.516,0.497c0.06-0.049,0.13-0.074,0.021,0.046c-0.237,0.203-0.366,0.374-0.549,0.514
			L5.103,66.41c-0.38,0.387-1.293,1.369-2.181,2.374c-0.889,1.004-1.754,2.03-2.102,2.448l0.022-0.037
			c-0.207,0.249-0.456,0.55-0.731,0.883c-0.034,0.046-0.072,0.096-0.11,0.147c-0.082,0.111-0.177,0.243-0.288,0.41
			c-0.003,0.005-0.011,0.015-0.011,0.015l0-0.009l0-0.017l-0.001-0.031c-0.001-0.02-0.003-0.037-0.006-0.053
			c0.078-0.164,0.072-0.186,0.098-0.253c-0.03,0.057-0.073,0.114-0.066,0.087c0.04-0.169-0.041,0.049-0.025-0.116
			c-0.001-0.045,0.015-0.145,0.039-0.267c0.097-0.458,0.21-0.993,0.323-1.525c0.429-2.019,0.852-4.014,1.013-4.774l0.014-0.126
			L1.1,65.499l0.005-0.034c-0.001-0.006,0.011-0.036-0.006-0.016l-0.272,0.232c-0.177,0.145-0.356,0.292-0.535,0.439
			c-0.354,0.286-0.701,0.563-1.018,0.844l0.07-0.076c-0.323,0.265-1.379,1.13-2.453,2.009c-0.639,0.527-1.275,1.073-1.483,1.27
			l0.064-0.044c-0.348,0.359-0.342,0.262-0.651,0.506c0.086,0.019-0.205,0.334-0.322,0.447l-0.006-0.016
			c-0.175,0.172-0.545,0.592-0.836,0.873l-0.015-0.04c-0.221,0.259-0.697,0.679-0.871,0.848c-0.415,0.369-1.083,0.91-1.577,1.467
			l-0.42,0.257l-0.042,0.057c0,0,0.099,0.375,0.311,0.688c0.212,0.313,0.537,0.565,0.981,0.328l0.016,0.039l0.133-0.138
			c0.177-0.147,0.222-0.253,0.238-0.214l-0.228,0.216c0.172-0.153,0.072-0.026,0.025,0.051c0.071-0.065,0.141-0.126,0.204-0.171
			c0.022-0.042-0.035,0.012-0.067,0.031c0.079-0.096,0.177-0.243,0.298-0.335c0.172-0.162,0.054,0.034,0.255-0.153
			c1.065-0.985,2.126-1.906,3.215-2.886c0.036-0.01,0.006,0.016-0.021,0.049c0.327-0.301,0.611-0.562,0.909-0.837
			c0.096-0.06,0.134-0.062,0.17-0.072c-0.035,0.01,0.377-0.361,0.808-0.73c0.082-0.071,0.165-0.142,0.228-0.197
			C-1.788,70.188-1.784,70.187-1.784,70.189z"/>
		<path fill="#FCD83E" d="M63.851,75.803c0.11-0.049,0.251-0.182,0.386-0.305C64.108,75.568,63.989,75.66,63.851,75.803z"/>
		<polygon fill="#FCD83E" points="64.24,75.496 64.242,75.493 64.237,75.497 		"/>
		<path fill="#FCD83E" d="M80.122,63.416c-0.033,0.033-0.07,0.071-0.109,0.109C80.051,63.49,80.089,63.453,80.122,63.416z"/>
		<path fill="#FCD83E" d="M70.251,70.189l0.002-0.094c0.032-0.028-0.004,0.108,0.013,0.071c0.022-0.084,0.036-0.091,0.039-0.083
			c0.004,0.008-0.004,0.033,0.026-0.026c-0.008,0.017,0,0.015-0.037,0.085c0.065-0.124,0.023-0.035,0.046-0.072
			c0.023-0.039,0.021-0.038,0.04-0.075l0.05-0.065c-0.028,0.054-0.077,0.133-0.085,0.141c-0.02,0.049-0.055,0.132-0.072,0.152
			l-0.006,0.007c-0.028,0.128-0.055,0.254-0.082,0.379c-0.055,0.258-0.107,0.505-0.155,0.732c-0.162,0.802-0.294,1.453-0.365,1.805
			c0.087-0.221,0.156-0.692,0.261-0.881c-0.043,0.389-0.135,0.593-0.129,0.751c-0.141,0.209-0.206,0.885-0.39,1.297l0.043,0.057
			l-0.084,0.244c-0.299,1.728-0.047,0.364-0.397,1.998c-0.181,0.919-0.148,1.129-0.296,1.71c0.017-0.078,0.112-0.374,0.087-0.188
			c-0.088,0.192-0.067,0.495-0.173,0.768c-0.036,0.205-0.197,0.954-0.029,0.46c-0.03,0.085-0.059,0.199-0.085,0.306
			c0.098-0.1,0.214-0.23,0.01,0.065c0.139-0.176,0.262-0.319,0.388-0.506l-0.151,0.166c0.488-0.645,0.68-0.811,1.074-1.414
			l-0.145,0.145c0.291-0.381,0.528-0.694,0.582-0.66l-0.323,0.448c0.491-0.636,0.798-1.04,1.213-1.626l-0.141,0.178
			c0.273-0.401,1.061-1.466,1.784-2.395c0.351-0.464,0.774-0.992,0.866-1.128c0.158-0.216,0.28-0.389,0.328-0.476l-0.154,0.104
			l0.185-0.281c-0.026,0.03,0.019,0.227-0.015,0.242c0.23-0.273,0.939-1.125,1.669-1.949c0.728-0.827,1.47-1.631,1.709-1.859
			c0.202-0.175,0.091,0.019,0.094,0.027c0.208-0.249,0.057-0.138,0.249-0.336c0.058-0.049,0.018,0.038-0.006,0.074
			c0.078-0.092,0.167-0.162,0.157-0.184c-0.116,0.098-0.118,0.009-0.191,0.028l0.247-0.254l0.017,0.038
			c0.055-0.056,0.061-0.218,0.317-0.456c0.418-0.413,0.854-0.88,1.278-1.292c0.01,0.023-0.067,0.121-0.145,0.219
			c0.057-0.055,0.138-0.145,0.201-0.185c-0.13,0.072,0.155-0.195,0.064-0.128c0.236-0.376,0.698-0.706,0.924-1.021
			c-0.039-0.084-0.438-1.63-0.507-1.706c0.088-0.082,0.175-0.164,0.207-0.184c-0.039,0.004-0.217,0.161-0.298,0.258l0.022,0.054
			c-0.195,0.215-0.071,0.024-0.272,0.223c-0.042-0.022,0.138-0.209,0.3-0.372c-0.152,0.14-0.322,0.259-0.348,0.353
			c-0.152,0.122-0.023-0.054-0.204,0.095c-0.11,0.126-0.234,0.311-0.389,0.426l-0.003-0.008c-0.364,0.293-0.457,0.549-0.788,0.818
			l0.022-0.043c-0.124,0.088-0.308,0.322-0.516,0.497c0.06-0.049,0.13-0.074,0.021,0.046c-0.237,0.203-0.366,0.374-0.549,0.514
			l-0.119,0.188c-0.38,0.387-1.293,1.369-2.181,2.374c-0.889,1.004-1.754,2.03-2.102,2.448l0.022-0.037
			c-0.207,0.249-0.456,0.55-0.731,0.883c-0.034,0.046-0.072,0.096-0.11,0.147c-0.082,0.111-0.177,0.243-0.288,0.41
			c-0.003,0.005-0.011,0.015-0.011,0.015l0-0.009l0-0.017l-0.001-0.031c-0.001-0.02-0.003-0.037-0.006-0.053
			c0.078-0.164,0.072-0.186,0.098-0.253c-0.03,0.057-0.073,0.114-0.066,0.087c0.04-0.169-0.041,0.049-0.025-0.116
			c-0.001-0.045,0.015-0.145,0.039-0.267c0.097-0.458,0.21-0.993,0.323-1.525c0.429-2.019,0.852-4.014,1.013-4.774l0.014-0.126
			l0.009-0.066l0.005-0.034c-0.001-0.006,0.011-0.036-0.006-0.016l-0.272,0.232c-0.177,0.145-0.356,0.292-0.535,0.439
			c-0.354,0.286-0.701,0.563-1.018,0.844l0.07-0.076c-0.323,0.265-1.379,1.13-2.453,2.009c-0.639,0.527-1.275,1.073-1.483,1.27
			l0.064-0.044c-0.348,0.359-0.342,0.262-0.651,0.506c0.086,0.019-0.205,0.334-0.322,0.447l-0.006-0.016
			c-0.175,0.172-0.545,0.592-0.836,0.873l-0.015-0.04c-0.221,0.259-0.697,0.679-0.871,0.848c-0.415,0.369-1.083,0.91-1.577,1.467
			l-0.42,0.257l-0.042,0.057c0,0,0.099,0.375,0.311,0.688c0.212,0.313,0.537,0.565,0.981,0.328l0.016,0.039l0.133-0.138
			c0.177-0.147,0.222-0.253,0.238-0.214l-0.228,0.216c0.172-0.153,0.072-0.026,0.025,0.051c0.071-0.065,0.141-0.126,0.204-0.171
			c0.022-0.042-0.035,0.012-0.067,0.031c0.079-0.096,0.177-0.243,0.298-0.335c0.172-0.162,0.054,0.034,0.255-0.153
			c1.065-0.985,2.126-1.906,3.215-2.886c0.036-0.01,0.006,0.016-0.021,0.049c0.327-0.301,0.611-0.562,0.909-0.837
			c0.096-0.06,0.134-0.062,0.17-0.072c-0.035,0.01,0.377-0.361,0.808-0.73c0.082-0.071,0.165-0.142,0.228-0.197
			C70.247,70.188,70.251,70.187,70.251,70.189z"/>
		<path fill="#FCD83E" d="M63.851,3.809c0.11-0.049,0.251-0.182,0.386-0.305C64.108,3.574,63.989,3.667,63.851,3.809z"/>
		<polygon fill="#FCD83E" points="64.24,3.502 64.242,3.5 64.237,3.504 		"/>
		<path fill="#FCD83E" d="M80.122-8.578c-0.033,0.033-0.07,0.071-0.109,0.109C80.051-8.504,80.089-8.54,80.122-8.578z"/>
		<path fill="#FCD83E" d="M70.251-1.804l0.002-0.094c0.032-0.028-0.004,0.108,0.013,0.071c0.022-0.084,0.036-0.091,0.039-0.083
			c0.004,0.008-0.004,0.033,0.026-0.026c-0.008,0.017,0,0.015-0.037,0.085c0.065-0.124,0.023-0.035,0.046-0.072
			c0.023-0.039,0.021-0.038,0.04-0.075l0.05-0.065c-0.028,0.054-0.077,0.133-0.085,0.141c-0.02,0.05-0.055,0.132-0.072,0.152
			l-0.006,0.007c-0.028,0.128-0.055,0.254-0.082,0.379c-0.055,0.258-0.107,0.505-0.155,0.732c-0.162,0.802-0.294,1.453-0.365,1.805
			c0.087-0.221,0.156-0.692,0.261-0.881c-0.043,0.389-0.135,0.593-0.129,0.751c-0.141,0.209-0.206,0.885-0.39,1.297l0.043,0.057
			l-0.084,0.244c-0.299,1.728-0.047,0.364-0.397,1.998c-0.181,0.919-0.148,1.129-0.296,1.71c0.017-0.078,0.112-0.374,0.087-0.188
			c-0.088,0.192-0.067,0.495-0.173,0.768c-0.036,0.205-0.197,0.954-0.029,0.46c-0.03,0.085-0.059,0.199-0.085,0.306
			c0.098-0.1,0.214-0.23,0.01,0.065c0.139-0.176,0.262-0.319,0.388-0.506l-0.151,0.166c0.488-0.645,0.68-0.811,1.074-1.414
			l-0.145,0.145c0.291-0.381,0.528-0.694,0.582-0.66L69.91,5.92c0.491-0.636,0.798-1.04,1.213-1.626l-0.141,0.178
			c0.273-0.401,1.061-1.466,1.784-2.395c0.351-0.464,0.774-0.992,0.866-1.128c0.158-0.216,0.28-0.389,0.328-0.476l-0.154,0.104
			l0.185-0.281c-0.026,0.03,0.019,0.227-0.015,0.242c0.23-0.273,0.939-1.125,1.669-1.949c0.728-0.827,1.47-1.631,1.709-1.859
			c0.202-0.175,0.091,0.019,0.094,0.027c0.208-0.249,0.057-0.138,0.249-0.336c0.058-0.049,0.018,0.038-0.006,0.074
			c0.078-0.092,0.167-0.162,0.157-0.184c-0.116,0.098-0.118,0.009-0.191,0.028l0.247-0.254l0.017,0.038
			c0.055-0.056,0.061-0.218,0.317-0.456c0.418-0.413,0.854-0.88,1.278-1.292c0.01,0.023-0.067,0.121-0.145,0.219
			c0.057-0.055,0.138-0.145,0.201-0.185c-0.13,0.072,0.155-0.195,0.064-0.128c0.236-0.376,0.698-0.706,0.924-1.021
			c-0.039-0.084-0.438-1.63-0.507-1.706c0.088-0.082,0.175-0.164,0.207-0.184c-0.039,0.004-0.217,0.161-0.298,0.258l0.022,0.054
			c-0.195,0.215-0.071,0.024-0.272,0.223c-0.042-0.022,0.138-0.209,0.3-0.372c-0.152,0.14-0.322,0.259-0.348,0.353
			c-0.152,0.122-0.023-0.054-0.204,0.095c-0.11,0.126-0.234,0.311-0.389,0.426l-0.003-0.008c-0.364,0.293-0.457,0.549-0.788,0.818
			l0.022-0.043c-0.124,0.088-0.308,0.322-0.516,0.497c0.06-0.049,0.13-0.074,0.021,0.046c-0.237,0.203-0.366,0.374-0.549,0.514
			l-0.119,0.188c-0.38,0.387-1.293,1.369-2.181,2.374c-0.889,1.004-1.754,2.03-2.102,2.448l0.022-0.037
			c-0.207,0.249-0.456,0.55-0.731,0.883c-0.034,0.046-0.072,0.096-0.11,0.147c-0.082,0.111-0.177,0.243-0.288,0.41
			c-0.003,0.005-0.011,0.015-0.011,0.015l0-0.009l0-0.017L71.737,0.6c-0.001-0.02-0.003-0.037-0.006-0.053
			c0.078-0.164,0.072-0.186,0.098-0.253c-0.03,0.057-0.073,0.114-0.066,0.087c0.04-0.169-0.041,0.049-0.025-0.116
			c-0.001-0.045,0.015-0.145,0.039-0.267c0.097-0.458,0.21-0.993,0.323-1.525c0.429-2.019,0.852-4.014,1.013-4.774l0.014-0.126
			l0.009-0.066l0.005-0.034c-0.001-0.006,0.011-0.036-0.006-0.016l-0.272,0.232c-0.177,0.145-0.356,0.292-0.535,0.439
			c-0.354,0.286-0.701,0.563-1.018,0.844l0.07-0.076c-0.323,0.265-1.379,1.13-2.453,2.009c-0.639,0.527-1.275,1.073-1.483,1.27
			l0.064-0.044c-0.348,0.359-0.342,0.262-0.651,0.506c0.086,0.019-0.205,0.334-0.322,0.447l-0.006-0.016
			c-0.175,0.172-0.545,0.592-0.836,0.873L65.676-0.1c-0.221,0.259-0.697,0.679-0.871,0.848c-0.415,0.369-1.083,0.91-1.577,1.467
			l-0.42,0.257L62.766,2.53c0,0,0.099,0.375,0.311,0.688c0.212,0.313,0.537,0.565,0.981,0.328l0.016,0.039l0.133-0.138
			c0.177-0.147,0.222-0.253,0.238-0.214l-0.228,0.216c0.172-0.153,0.072-0.026,0.025,0.051c0.071-0.065,0.141-0.126,0.204-0.171
			c0.022-0.042-0.035,0.012-0.067,0.031c0.079-0.096,0.177-0.243,0.298-0.335c0.172-0.162,0.054,0.034,0.255-0.153
			c1.065-0.985,2.126-1.906,3.215-2.886c0.036-0.01,0.006,0.016-0.021,0.049c0.327-0.301,0.611-0.562,0.909-0.837
			c0.096-0.06,0.134-0.062,0.17-0.072c-0.035,0.01,0.377-0.361,0.808-0.73c0.082-0.071,0.165-0.142,0.228-0.197
			C70.247-1.806,70.251-1.807,70.251-1.804z"/>
		<path fill="#FCD83E" d="M-8.123,3.809c0.11-0.049,0.251-0.182,0.386-0.305C-7.866,3.574-7.985,3.667-8.123,3.809z"/>
		<polygon fill="#FCD83E" points="-7.734,3.502 -7.732,3.5 -7.737,3.504 		"/>
		<path fill="#FCD83E" d="M8.148-8.578c-0.033,0.033-0.07,0.071-0.109,0.109C8.077-8.504,8.115-8.54,8.148-8.578z"/>
		<path fill="#FCD83E" d="M-1.723-1.804l0.002-0.094c0.032-0.028-0.004,0.108,0.013,0.071c0.022-0.084,0.036-0.091,0.039-0.083
			c0.004,0.008-0.004,0.033,0.026-0.026c-0.008,0.017,0,0.015-0.037,0.085c0.065-0.124,0.023-0.035,0.046-0.072
			c0.023-0.039,0.021-0.038,0.04-0.075l0.05-0.065c-0.028,0.054-0.077,0.133-0.085,0.141c-0.02,0.05-0.055,0.132-0.072,0.152
			l-0.006,0.007c-0.028,0.128-0.055,0.254-0.082,0.379c-0.055,0.258-0.107,0.505-0.155,0.732c-0.162,0.802-0.294,1.453-0.365,1.805
			c0.087-0.221,0.156-0.692,0.261-0.881c-0.043,0.389-0.135,0.593-0.129,0.751c-0.141,0.209-0.206,0.885-0.39,1.297l0.043,0.057
			l-0.084,0.244c-0.299,1.728-0.047,0.364-0.397,1.998C-3.185,5.541-3.152,5.751-3.3,6.332c0.017-0.078,0.112-0.374,0.087-0.188
			C-3.301,6.337-3.28,6.639-3.385,6.912c-0.036,0.205-0.197,0.954-0.029,0.46c-0.03,0.085-0.059,0.199-0.085,0.306
			c0.098-0.1,0.214-0.23,0.01,0.065C-3.35,7.566-3.227,7.423-3.1,7.236l-0.151,0.166c0.488-0.645,0.68-0.811,1.074-1.414
			l-0.145,0.145c0.291-0.381,0.528-0.694,0.582-0.66L-2.064,5.92c0.491-0.636,0.798-1.04,1.213-1.626l-0.141,0.178
			c0.273-0.401,1.061-1.466,1.784-2.395c0.351-0.464,0.774-0.992,0.866-1.128c0.158-0.216,0.28-0.389,0.328-0.476L1.832,0.577
			l0.185-0.281C1.99,0.325,2.035,0.523,2.002,0.538c0.23-0.273,0.939-1.125,1.669-1.949c0.728-0.827,1.47-1.631,1.709-1.859
			C5.582-3.446,5.47-3.252,5.474-3.244C5.682-3.493,5.531-3.382,5.722-3.58C5.78-3.629,5.74-3.542,5.717-3.506
			c0.078-0.092,0.167-0.162,0.157-0.184C5.757-3.593,5.756-3.682,5.683-3.663L5.93-3.917l0.017,0.038
			c0.055-0.056,0.061-0.218,0.317-0.456c0.418-0.413,0.854-0.88,1.278-1.292c0.01,0.023-0.068,0.121-0.145,0.219
			c0.057-0.055,0.138-0.145,0.201-0.185c-0.13,0.072,0.155-0.195,0.064-0.128C7.898-6.098,8.36-6.428,8.586-6.743
			c-0.039-0.084-0.438-1.63-0.507-1.706c0.088-0.082,0.175-0.164,0.207-0.184C8.248-8.628,8.07-8.472,7.989-8.374L8.011-8.32
			C7.817-8.105,7.94-8.296,7.739-8.097c-0.042-0.022,0.138-0.209,0.3-0.372c-0.152,0.14-0.322,0.259-0.348,0.353
			C7.538-7.994,7.668-8.17,7.487-8.021C7.377-7.895,7.253-7.71,7.098-7.595L7.095-7.603C6.73-7.31,6.638-7.054,6.307-6.785
			l0.022-0.043C6.204-6.74,6.02-6.506,5.812-6.331c0.06-0.049,0.13-0.074,0.021,0.046C5.595-6.082,5.466-5.911,5.283-5.772
			L5.164-5.583C4.784-5.197,3.871-4.215,2.983-3.21C2.094-2.205,1.228-1.18,0.881-0.762l0.022-0.037
			c-0.207,0.249-0.456,0.55-0.731,0.883C0.138,0.13,0.1,0.18,0.062,0.231c-0.082,0.111-0.177,0.243-0.288,0.41
			C-0.23,0.646-0.237,0.656-0.237,0.656l0-0.009l0-0.017L-0.237,0.6c-0.001-0.02-0.003-0.037-0.006-0.053
			c0.078-0.164,0.072-0.186,0.098-0.253c-0.03,0.057-0.073,0.114-0.066,0.087c0.04-0.169-0.041,0.049-0.025-0.116
			C-0.238,0.22-0.222,0.12-0.197-0.003c0.097-0.458,0.21-0.993,0.323-1.525c0.429-2.019,0.852-4.014,1.013-4.774l0.014-0.126
			l0.009-0.066l0.005-0.034C1.164-6.535,1.177-6.564,1.159-6.544L0.888-6.312C0.711-6.167,0.532-6.02,0.353-5.873
			C-0.001-5.588-0.349-5.31-0.665-5.03l0.07-0.076c-0.323,0.265-1.379,1.13-2.453,2.009c-0.639,0.527-1.275,1.073-1.483,1.27
			l0.064-0.044C-4.815-1.512-4.81-1.608-5.119-1.364c0.086,0.019-0.205,0.334-0.322,0.447l-0.006-0.016
			C-5.622-0.761-5.992-0.342-6.283-0.06L-6.298-0.1c-0.221,0.259-0.697,0.679-0.871,0.848c-0.415,0.369-1.083,0.91-1.577,1.467
			l-0.42,0.257L-9.208,2.53c0,0,0.099,0.375,0.311,0.688c0.212,0.313,0.537,0.565,0.981,0.328l0.016,0.039l0.133-0.138
			C-7.59,3.3-7.545,3.194-7.529,3.232l-0.228,0.216C-7.585,3.295-7.685,3.422-7.732,3.5c0.071-0.065,0.141-0.126,0.204-0.171
			c0.022-0.042-0.035,0.012-0.067,0.031c0.079-0.096,0.177-0.243,0.298-0.335c0.172-0.162,0.054,0.034,0.255-0.153
			c1.065-0.985,2.126-1.906,3.215-2.886c0.036-0.01,0.006,0.016-0.021,0.049c0.327-0.301,0.611-0.562,0.909-0.837
			c0.096-0.06,0.134-0.062,0.17-0.072c-0.035,0.01,0.377-0.361,0.808-0.73c0.082-0.071,0.165-0.142,0.228-0.197
			C-1.727-1.806-1.723-1.807-1.723-1.804z"/>
		<path fill="#FCD83E" d="M41.228,48.933c-0.071-0.074-0.204-0.151-0.343-0.228l-2.302-1.272L39.67,49.9l0.05,0.112
			c-0.008-0.041-0.017-0.081-0.029-0.122l-0.734-2.603l1.917,1.438C40.971,48.798,41.084,48.865,41.228,48.933z"/>
		<polygon fill="#FCD83E" points="39.721,50.017 39.722,50.019 39.72,50.013 		"/>
		<path fill="#FCD83E" d="M51.724,49.656c-0.03-0.033-0.065-0.07-0.099-0.108C51.657,49.586,51.69,49.624,51.724,49.656z"/>
		<path fill="#FCD83E" d="M44.236,54.142L44.17,53.99c0.004-0.047,0.074,0.176,0.061,0.115c-0.043-0.137-0.037-0.15-0.029-0.136
			c0.009,0.012,0.021,0.054,0.003-0.044c0.006,0.026,0.011,0.025,0.032,0.144c-0.035-0.19-0.004-0.033-0.01-0.075
			c-0.01-0.052-0.012-0.064-0.021-0.113c0-0.013,0-0.023,0.001-0.032c0.014,0.066,0.027,0.159,0.027,0.171
			c0.002,0.006,0.004,0.014,0.007,0.027c0.007,0.025,0.018,0.067,0.031,0.115l0.007,0.035l0.001,0.003l0.034,0.054l0.077,0.118
			c0.052,0.078,0.104,0.155,0.155,0.232c0.103,0.153,0.209,0.3,0.311,0.441l1.856,2.564l0.03-3.183
			c0.007-0.712,0.009-1.308,0.001-1.59c-0.041,0.112-0.015,0.38-0.079,0.482c-0.035-0.23,0.014-0.339-0.023-0.44
			c0.096-0.088,0.025-0.506,0.122-0.679l-0.054-0.066l0.034-0.114c-0.052-1.012-0.027-0.231-0.01-1.128
			c-0.006-0.519-0.08-0.766-0.052-1.055c-0.001,0.043-0.034,0.157-0.048,0.023c0.048-0.023-0.033-0.358,0.016-0.424
			c-0.005-0.132,0.002-0.559-0.063-0.414c0.008-0.017,0.015-0.052,0.021-0.093l-1.754,0.194c0.015,0.14,0.05,0.335-0.017,0.155
			c0.031,0.139,0.058,0.275,0.101,0.369l-0.032-0.18c0.135,0.459,0.179,0.721,0.341,0.993l-0.036-0.175
			c0.101,0.267,0.198,0.483,0.185,0.611c-0.047-0.086-0.089-0.175-0.132-0.263c0.088,0.221,0.17,0.393,0.252,0.554l0.084,0.161
			c0.035,0.069,0.073,0.134,0.111,0.2c0.078,0.125,0.159,0.254,0.247,0.395l-0.115-0.206c0.113,0.172,0.34,0.534,0.637,0.914
			c0.147,0.197,0.311,0.385,0.481,0.58c0.17,0.181,0.345,0.365,0.519,0.535c0.349,0.347,0.691,0.682,1,0.973l0.055,0.052
			l0.027,0.025c0.009,0.009,0.006-0.019,0.01-0.026c0.008-0.049,0.015-0.096,0.022-0.142c0.014-0.092,0.026-0.177,0.038-0.255
			c0.022-0.155,0.037-0.28,0.044-0.365l-0.08,0.156l0.058-0.529c-0.009,0.049,0.07,0.504,0.048,0.524
			c0.025-0.128,0.064-0.322,0.112-0.567c0.024-0.122,0.051-0.257,0.079-0.402c0.014-0.072,0.029-0.148,0.044-0.225
			c0.012-0.089,0.018-0.203,0.028-0.307c0.064-0.754,0.14-1.66,0.216-2.564c0.025-0.35,0.057-0.722,0.078-0.776
			c0.028-0.002,0.061,0.208,0.067,0.225c-0.008-0.125-0.037-0.185-0.027-0.245c0.008,0.009,0.028,0.129,0.032,0.159
			c-0.002-0.046,0.013-0.013-0.004-0.094c-0.016-0.024-0.059-0.241-0.09-0.35l0.015-0.107l0.026,0.144
			c0.001-0.01-0.016-0.121-0.029-0.241c-0.007-0.06-0.013-0.123-0.015-0.175c-0.002-0.037,0.005,0.005,0.016,0.051
			c0.039,0.174,0.08,0.306,0.13,0.439c0.033,0.09,0.072,0.178,0.111,0.268c-0.002,0.042-0.02,0.028-0.036,0.021
			c0.011,0.026,0.028,0.052,0.038,0.106c-0.021-0.125,0.039,0.025,0.023-0.042c0.039-0.013,0.095,0.085,0.145,0.172
			c0.052,0.089,0.1,0.172,0.172,0.217c0.029-0.035,0.478-0.036,0.898-0.106c0.425-0.06,0.832-0.159,0.87-0.192
			c0.075,0.087,0.15,0.175,0.168,0.207c-0.001-0.04-0.146-0.213-0.232-0.299l-0.055,0.019c-0.193-0.203-0.019-0.069-0.189-0.281
			c0.026-0.038,0.186,0.153,0.331,0.316c-0.124-0.154-0.22-0.326-0.306-0.361c-0.098-0.158,0.054-0.015-0.061-0.206
			c-0.024-0.019-0.192-0.228-0.299-0.393c-0.119-0.174-0.239-0.346-0.329-0.56l0.008-0.001c-0.061-0.125-0.117-0.238-0.169-0.345
			c-0.055-0.105-0.103-0.24-0.152-0.347c-0.048-0.108-0.095-0.214-0.141-0.318l-0.034-0.075l-0.033-0.101l-0.065-0.202
			c-0.043-0.133-0.086-0.266-0.129-0.397l-0.064-0.201c-0.024-0.098-0.048-0.196-0.073-0.294c-0.049-0.209-0.099-0.42-0.152-0.643
			c-0.056-0.251-0.115-0.513-0.18-0.804l0.062,0.212c-0.057-0.256-0.118-0.528-0.188-0.842c-0.075-0.322-0.16-0.683-0.249-1.067
			c-0.211-0.898-0.43-1.831-0.695-3.029c0.149,0.678,0.285,1.392,0.005,0.21l-0.005-0.021c-0.033,0.278-0.062,0.523-0.089,0.754
			c-0.019,0.191-0.037,0.368-0.055,0.539c-0.012,0.104-0.023,0.203-0.034,0.303c-0.006,0.038-0.012,0.076-0.019,0.115
			c-0.006,0.032-0.015,0.077-0.02,0.076l0.01,0.418c-0.005,0.037-0.011,0.081-0.018,0.131l-0.004,0.033
			c-0.003,0.033-0.006,0.066-0.009,0.1c-0.009,0.105-0.019,0.216-0.029,0.331c-0.04,0.463-0.086,1.005-0.137,1.598
			c-0.099,1.178-0.215,2.563-0.331,3.949c-0.054,0.657-0.109,1.313-0.161,1.946c-0.007,0.086-0.013,0.171-0.02,0.255l-0.005,0.075
			l0,0.013c0,0.018,0,0.036,0.001,0.052c-0.001,0.078-0.002,0.142-0.002,0.178l-0.005-0.019c0,0.025-0.001,0.052-0.001,0.081
			c-0.003,0.007,0.005,0.047-0.007,0.029l-0.028-0.025c-0.038-0.036-0.079-0.082-0.119-0.137c-0.019-0.028-0.039-0.057-0.058-0.089
			l-0.014-0.024l-0.051-0.1c-0.05-0.11-0.102-0.218-0.148-0.328c-0.187-0.439-0.332-0.881-0.434-1.293l-1.895-7.62l0.142,7.814
			c0.01,0.525,0.018,0.97,0.024,1.343c-0.044,0.283-0.036,0.673-0.049,0.969c0.019-0.164,0.049-0.108,0.047,0.02
			c-0.009,0.9,0.03,0.061,0.044,0.971c0.014,0.405,0.013,1.253,0.005,2.196l1.433-0.47c-0.101-0.138-0.201-0.281-0.3-0.426
			l-0.145-0.219l-0.202-0.319c-0.34-0.556-0.645-1.131-0.928-1.792c-0.282-0.663-0.555-1.443-0.809-2.121
			c-0.254-0.698-0.464-1.276-0.612-1.682c-0.016,0.056-0.023,0.074-0.029,0.09c-0.071,0.452-0.139,0.624-0.191,0.726
			c-0.002,0.005-0.003,0.004-0.006,0.014l-0.008,0.04l-0.016,0.08l-0.031,0.16c-0.02,0.106-0.04,0.21-0.059,0.314
			c-0.037,0.205-0.072,0.408-0.098,0.602l0.004-0.103c-0.034,0.19-0.108,0.594-0.201,1.111c-0.095,0.498-0.204,1.133-0.269,1.856
			c-0.032,0.361-0.052,0.739-0.062,1.11c-0.001,0.188-0.001,0.372-0.002,0.55c0.004,0.154,0.008,0.304,0.012,0.446
			c0.017,0.392,0.044,0.707,0.066,0.866l0.001-0.087c0.013,0.092,0.024,0.165,0.032,0.221l1.519-0.433
			c-0.141-0.276-0.097-0.304-0.234-0.628c-0.04,0.081-0.276-0.313-0.356-0.467l0.017-0.001c-0.125-0.231-0.44-0.74-0.637-1.126
			l0.043-0.002c-0.195-0.307-0.476-0.927-0.592-1.159c-0.244-0.542-0.582-1.397-0.975-2.09l-0.077-0.317l-1.068,1.051l0.155,0.125
			l0.072,0.024c0,0,1.343-0.829,0.535-1.557l0.032-0.027l-0.058-0.027l-2.272-1.076l1.131,2.2l0.066,0.128
			c0.091,0.233,0.182,0.317,0.14,0.318l-0.144-0.309c0.099,0.23,0.004,0.082-0.057,0.006c0.042,0.096,0.082,0.189,0.107,0.269
			c0.035,0.038-0.001-0.04-0.011-0.078c0.071,0.115,0.186,0.268,0.241,0.423c0.108,0.232-0.05,0.042,0.077,0.313
			c0.659,1.432,1.284,2.827,1.985,4.258c0.001,0.04-0.017,0.001-0.044-0.038c0.103,0.202,0.2,0.392,0.294,0.576l2.486,4.88
			l-0.57-5.426c-0.023-0.22-0.045-0.433-0.068-0.65c0.011-0.115,0.033-0.147,0.048-0.181c-0.003,0.009-0.01-0.02-0.014-0.077
			c-0.001-0.014-0.003-0.03-0.004-0.048c-0.001-0.018-0.003-0.043-0.003-0.035c0,0-0.003,0-0.004-0.002
			c-0.005-0.005-0.008-0.016-0.01-0.027C44.228,54.153,44.232,54.132,44.236,54.142z"/>
		<path fill="#FCD83E" d="M54.592,56.929c-0.051,0.035-0.071,0.111-0.093,0.184C54.551,57.064,54.58,57.007,54.592,56.929z"/>
		<polygon fill="#FCD83E" points="54.498,57.114 54.498,57.115 54.499,57.112 		"/>
		<path fill="#FCD83E" d="M60.729,56.089c0.002,0.017,0.004,0.036,0.006,0.056C60.735,56.126,60.734,56.107,60.729,56.089z"/>
		<path fill="#FCD83E" d="M54.986,61.348l0.065-0.033c0.172,0.188-0.017,0.112,0.168,0.272c0.128-0.003,0.303,0.275,0.41,0.28
			c-0.008,0.007,0.095,0.075,0.073,0.097c0.061-0.027,0.115,0.057,0.193,0.08c0.032-0.001-0.011-0.024-0.022-0.048l0.168,0.061
			c0.055,0.045,0.059,0.081-0.013,0.055c0.104,0.053,0.316,0.145,0.57,0.207c0.254,0.064,0.54,0.098,0.796,0.111
			c0.258,0.013,0.482,0.011,0.662,0.011c0.183-0.001,0.332-0.005,0.412-0.013c-0.042-0.04-0.14-0.011-0.178-0.075
			c0.084-0.037,0.125,0.011,0.161-0.027c0.034,0.095,0.186,0.02,0.251,0.116l0.024-0.054l0.042,0.033
			c0.371-0.061,0.085-0.029,0.414-0.02c0.191-0.011,0.28-0.087,0.387-0.061c-0.016,0-0.058-0.033-0.009-0.047
			c0.009,0.047,0.131-0.036,0.156,0.012c0.047-0.007,0.207-0.003,0.152-0.067c0.026,0.032,0.184,0.042,0.091,0.072
			c0.052,0.001,0.107,0.009,0.148-0.008l-0.073-0.015c0.186-0.016,0.315,0.023,0.455-0.057l-0.087-0.014
			c0.131-0.02,0.251-0.051,0.326-0.003l-0.148,0.052c0.232-0.045,0.441-0.117,0.633-0.26c-0.026,0.014-0.052,0.026-0.079,0.038
			c0.063-0.048,0.198-0.135,0.34-0.272c0.142-0.134,0.289-0.327,0.39-0.528c0.186-0.379,0.218-0.696,0.206-0.792L62,60.518
			l-0.001-0.161c-0.005,0.017,0.139,0.112,0.119,0.124c0.047-0.18,0.129-0.623,0.197-1.083c0.067-0.457,0.11-0.913,0.14-1.05
			c0.037-0.109,0.081-0.013,0.088-0.011c-0.008-0.138-0.048-0.063-0.035-0.178c0.011-0.031,0.039,0.009,0.044,0.028
			c-0.002-0.051,0.019-0.097-0.004-0.103c-0.023,0.062-0.083,0.031-0.125,0.054l0.016-0.147L62.478,58
			c0.003-0.033-0.101-0.09-0.072-0.234c0.029-0.244,0.022-0.511,0.032-0.757c0.023,0.004,0.037,0.056,0.05,0.108
			c0.001-0.033-0.004-0.084,0.013-0.114c-0.041,0.06-0.028-0.104-0.045-0.057c-0.096-0.18-0.014-0.414-0.086-0.571
			c-0.086-0.019-1.49-0.254-1.592-0.238c-0.001-0.044-0.002-0.088,0.006-0.102c-0.023,0.013-0.029,0.1-0.013,0.145l0.055,0.005
			c0.026,0.105-0.03,0.027-0.021,0.13c-0.044,0.008-0.059-0.087-0.069-0.17c0,0.076-0.028,0.152,0.022,0.18
			c-0.015,0.072-0.055-0.005-0.07,0.081c0.016,0.06,0.063,0.138,0.038,0.208l-0.008-0.001c-0.041,0.17,0.073,0.258,0.028,0.413
			l-0.015-0.017c-0.027,0.054,0.008,0.162-0.022,0.261c0.01-0.028,0.043-0.052,0.047,0.008c-0.031,0.113-0.004,0.191-0.043,0.273
			l0.04,0.081c-0.013,0.197-0.029,0.687-0.082,1.176c-0.047,0.483-0.135,0.987-0.171,1.157l-0.004-0.015
			c-0.024,0.13-0.064,0.274-0.104,0.361c-0.024,0.05-0.024,0.048-0.035,0.065c-0.009,0.013-0.022,0.025-0.036,0.034
			c0.008,0.011-0.159,0.055-0.346,0.064c-0.196,0.014-0.43,0.026-0.59,0.044c-0.105-0.042-0.248-0.03-0.356-0.04
			c0.061,0.017,0.04,0.048-0.007,0.047c-0.331,0-0.022,0.03-0.356,0.053c-0.184,0.022-0.675,0.03-1.098,0.02
			c-0.423-0.008-0.684-0.102-0.75-0.155c-0.113,0.022-0.193-0.082-0.295-0.12l0.018-0.005c-0.049-0.025-0.185-0.165-0.283-0.364
			c-0.102-0.195-0.159-0.427-0.187-0.502l-0.003,0.023c-0.07-0.129,0.003-0.125,0.008-0.235c-0.068,0.026-0.126-0.099-0.133-0.151
			l0.016,0.001c-0.019-0.074-0.087-0.252-0.089-0.391l0.039,0.007c-0.039-0.114-0.001-0.334,0.006-0.419
			c0.039-0.194,0.159-0.487,0.166-0.775l0.146-0.158l-0.005-0.029c0,0-1.253-0.576-1.613-0.254l-0.037-0.014l-0.011,0.078
			c-0.038,0.088-0.002,0.141-0.039,0.127l0.03-0.126c-0.03,0.09-0.037,0.021-0.051-0.018c-0.012,0.038-0.024,0.075-0.042,0.104
			c0.011,0.021,0.019-0.01,0.03-0.023c0.003,0.053,0.025,0.13-0.005,0.19c-0.022,0.097-0.063-0.006-0.089,0.108
			c-0.14,0.601-0.276,1.268-0.164,2.025c-0.013,0.02-0.016-0.001-0.027-0.023c0.049,0.234,0.092,0.441,0.173,0.643
			c0.002,0.063-0.016,0.086-0.025,0.109c0.009-0.022,0.112,0.263,0.267,0.542c0.076,0.14,0.166,0.278,0.239,0.381
			C54.931,61.273,54.985,61.343,54.986,61.348z"/>
		<path fill="#FCD83E" d="M19.458,55.134c-0.003-0.079-0.066-0.173-0.12-0.267C19.351,54.959,19.387,55.042,19.458,55.134z"/>
		<polygon fill="#FCD83E" points="19.338,54.865 19.337,54.864 19.339,54.867 		"/>
		<path fill="#FCD83E" d="M27.592,50.194c-0.006-0.029-0.013-0.063-0.02-0.096C27.577,50.131,27.582,50.164,27.592,50.194z"/>
		<path fill="#FCD83E" d="M17.614,50.067l-0.072-0.008c-0.022-0.239,0.072-0.077,0.041-0.293c-0.106-0.082-0.001-0.36-0.05-0.433
			c0.008,0.002,0.013-0.103,0.045-0.095c-0.052-0.034-0.008-0.108-0.017-0.173c-0.013-0.025-0.018,0.016-0.035,0.033l-0.006-0.152
			c0.022-0.057,0.055-0.067,0.056-0.004c0.025-0.197,0.123-0.738,0.358-1.219c0.228-0.488,0.575-0.863,0.7-0.988
			c-0.064-0.001-0.122,0.103-0.2,0.09c0.044-0.096,0.11-0.098,0.116-0.153c0.091,0.042,0.177-0.127,0.293-0.092l-0.01-0.059l0.057,0
			c0.153-0.137,0.174-0.152,0.19-0.159c0.018-0.006,0.028-0.007,0.203-0.081c0.198-0.097,0.288-0.201,0.427-0.214
			c-0.019,0.005-0.081-0.011-0.024-0.042c0.022,0.042,0.158-0.079,0.202-0.04c0.06-0.023,0.273-0.06,0.189-0.109
			c0.042,0.023,0.238,0.001,0.128,0.05c0.065-0.01,0.13-0.012,0.176-0.034l-0.088-0.004c0.223-0.047,0.356-0.014,0.503-0.092
			l-0.09-0.014c0.141-0.023,0.258-0.04,0.319,0.018l-0.141,0.036c0.232-0.029,0.368-0.045,0.554-0.092l-0.067,0.002
			c0.118-0.04,0.491-0.095,0.846-0.103c0.358-0.016,0.691,0.026,0.799,0.013c-0.025-0.025-0.052-0.048-0.079-0.071
			c0.062-0.002,0.121,0.002,0.182,0.004c-0.021-0.006-0.124,0.134-0.135,0.114c0.088,0.023,0.27,0.067,0.477,0.156
			c0.207,0.089,0.442,0.23,0.654,0.405c0.426,0.351,0.736,0.868,0.8,1.041c0.046,0.14-0.058,0.06-0.065,0.063
			c0.1,0.144,0.085,0.04,0.146,0.18c0.01,0.042-0.039,0.009-0.055-0.009c0.033,0.058,0.044,0.121,0.067,0.116
			c-0.019-0.083,0.052-0.077,0.073-0.127l0.08,0.183l-0.04,0.008c0.017,0.04,0.141,0.064,0.198,0.258
			c0.103,0.325,0.232,0.678,0.309,1.025c-0.024,0.001-0.057-0.067-0.089-0.135c0.011,0.046,0.035,0.114,0.03,0.16
			c0.018-0.093,0.065,0.136,0.064,0.067c0.155,0.231,0.144,0.582,0.251,0.8c0.088-0.005,1.546,0.232,1.646,0.22
			c0.012,0.076,0.023,0.152,0.019,0.177c0.02-0.024,0.005-0.175-0.023-0.252l-0.056-0.004c-0.052-0.179,0.026-0.048-0.012-0.226
			c0.043-0.018,0.083,0.146,0.112,0.289c-0.018-0.131-0.009-0.267-0.068-0.311c-0.005-0.127,0.056,0.004,0.047-0.149
			c-0.032-0.103-0.104-0.234-0.105-0.363l0.008,0.001c-0.017-0.309-0.168-0.443-0.194-0.728l0.022,0.026
			c-0.003-0.105-0.082-0.287-0.112-0.472c0.007,0.053-0.011,0.106-0.048,0.001c-0.032-0.211-0.106-0.341-0.127-0.502l-0.091-0.128
			c-0.065-0.177-0.188-0.484-0.376-0.851c-0.193-0.365-0.463-0.789-0.809-1.174c-0.34-0.389-0.77-0.721-1.168-0.936
			c-0.393-0.229-0.754-0.338-0.953-0.399l0.034,0.003c-0.62-0.192-1.56-0.269-2.417-0.185c-0.433,0.039-0.837,0.094-1.234,0.171
			c-0.395,0.076-0.767,0.184-1.061,0.302c-0.2,0.023-0.455,0.139-0.652,0.229c0.115-0.037,0.092,0.008,0.009,0.048
			c-0.289,0.154-0.29,0.178-0.296,0.19c-0.004,0.016-0.013,0.028-0.273,0.228c-0.142,0.124-0.388,0.33-0.636,0.616
			c-0.25,0.284-0.501,0.643-0.701,1.022c-0.408,0.757-0.57,1.598-0.619,1.901c0.022,0.338-0.041,0.747,0.012,1.066l-0.016-0.032
			c0.014,0.171,0.039,0.74,0.137,1.294c0.091,0.556,0.241,1.096,0.308,1.273l-0.006-0.051c0.134,0.304,0.056,0.281,0.119,0.536
			c0.056-0.055,0.187,0.198,0.232,0.295l-0.016,0.002c0.066,0.149,0.262,0.465,0.379,0.703l-0.04,0.006
			c0.125,0.188,0.295,0.569,0.373,0.708c0.152,0.331,0.375,0.858,0.69,1.238l0.087,0.325l0.036,0.032c0,0,0.349-0.089,0.675-0.271
			c0.328-0.181,0.635-0.451,0.59-0.765l0.037-0.015l-0.067-0.091c-0.06-0.122-0.131-0.151-0.093-0.164l0.098,0.157
			c-0.067-0.119,0.004-0.052,0.051-0.021c-0.028-0.049-0.056-0.097-0.07-0.141c-0.027-0.014-0.003,0.026,0.002,0.048
			c-0.051-0.053-0.137-0.119-0.17-0.204c-0.07-0.12,0.049-0.041-0.032-0.181c-0.416-0.743-0.725-1.507-1.011-2.311
			c0.009-0.024,0.016-0.002,0.031,0.019c-0.099-0.237-0.162-0.458-0.241-0.678c-0.001-0.067,0.019-0.09,0.029-0.112
			c-0.01,0.023-0.104-0.283-0.167-0.597c-0.033-0.157-0.058-0.315-0.074-0.435C17.618,50.153,17.614,50.072,17.614,50.067z"/>
		<path fill="#FCD83E" d="M43.622,11.482c0.031-0.036,0.023-0.064,0.018-0.093C43.611,11.426,43.605,11.456,43.622,11.482z"/>
		<polygon fill="#FCD83E" points="43.64,11.389 43.639,11.389 43.64,11.39 		"/>
		<path fill="#FCD83E" d="M45.2,3.898c-0.002,0.008-0.004,0.018-0.007,0.027C45.198,3.917,45.201,3.908,45.2,3.898z"/>
		<path fill="#FCD83E" d="M43.74,9.949l-0.066-0.025c0.023-0.08,0.083,0.001,0.089-0.077c-0.084-0.061,0.054-0.118,0.013-0.161
			c0.007,0.003,0.023-0.032,0.051-0.018c-0.047-0.031,0.002-0.041-0.001-0.069c-0.01-0.014-0.018,0-0.035,0l0.005-0.059
			c0.025-0.014,0.056-0.006,0.052,0.018c0.058-0.132,0.45-0.744,0.534-0.89c-0.046-0.005-0.051,0.053-0.115,0.035
			c-0.006-0.057,0.046-0.048,0.026-0.085c0.088,0.039,0.073-0.069,0.172-0.04l-0.037-0.041l0.04,0.001
			c0.069-0.192-0.002-0.049,0.119-0.188c0.058-0.09,0.028-0.176,0.089-0.207c-0.006,0.007-0.047,0.005-0.04-0.025
			c0.04,0.025,0.02-0.081,0.066-0.062c0.013-0.026,0.073-0.093,0.004-0.109c0.034,0.008,0.096-0.047,0.088,0.008
			c0.019-0.02,0.043-0.035,0.045-0.06l-0.037,0.016c0.052-0.079,0.123-0.087,0.116-0.171L44.875,7.75
			c0.032-0.046,0.059-0.086,0.123-0.063l-0.022,0.058c0.059-0.074,0.092-0.121,0.115-0.203l-0.019,0.021
			c0.013-0.117,0.316-0.567,0.314-0.696L45.32,6.87l0.019-0.091c-0.007,0.007,0.101,0.133,0.083,0.129
			c0.111-0.132,0.655-0.92,0.769-1.065c0.062-0.044,0.074,0.032,0.08,0.037c0.032-0.083-0.025-0.06,0.018-0.121
			c0.018-0.013,0.031,0.024,0.031,0.038c0.012-0.031,0.043-0.048,0.024-0.063c-0.037,0.026-0.08-0.021-0.124-0.028l0.054-0.079
			l0.031,0.024c0.012-0.018-0.063-0.1,0.001-0.17c0.092-0.13,0.162-0.289,0.238-0.433c0.02,0.012,0.018,0.049,0.015,0.086
			c0.011-0.019,0.02-0.052,0.044-0.063c-0.055,0.018,0.005-0.073-0.025-0.053c-0.036-0.146,0.1-0.256,0.08-0.378
			c-0.039-0.02-0.365-0.203-0.7-0.37c-0.334-0.168-0.677-0.319-0.725-0.334c0.009-0.021,0.018-0.041,0.029-0.045
			c-0.025-0.002-0.05,0.036-0.045,0.062l0.051,0.021c0,0.058-0.035,0.002-0.049,0.053c-0.043-0.013-0.037-0.061-0.027-0.102
			c-0.018,0.034-0.06,0.059-0.019,0.09c-0.029,0.027-0.05-0.022-0.082,0.011c0.004,0.033,0.027,0.086-0.011,0.109l-0.007-0.004
			c-0.076,0.061,0.014,0.149-0.065,0.204L45,4.322c-0.036,0.014-0.029,0.08-0.076,0.114c0.014-0.009,0.049-0.006,0.04,0.024
			c-0.054,0.041-0.049,0.09-0.101,0.113l0.018,0.059c-0.056,0.092-0.182,0.33-0.339,0.574c-0.154,0.243-0.327,0.491-0.403,0.59
			l0.001-0.012C43.926,6.09,43.393,6.713,43.175,7.1C43.1,7.127,43.052,7.208,43,7.256c0.038-0.02,0.054,0.009,0.035,0.032
			c-0.134,0.178,0.015,0.03-0.101,0.224c-0.059,0.117-0.233,0.377-0.397,0.644c-0.163,0.267-0.314,0.545-0.376,0.65
			c0.006,0.141-0.094,0.275-0.098,0.409l-0.01-0.017c-0.013,0.067-0.092,0.282-0.155,0.511c-0.067,0.227-0.104,0.474-0.105,0.558
			l0.011-0.022c0.027,0.152-0.04,0.125-0.07,0.242c0.073-0.011,0.103,0.116,0.112,0.165l-0.016-0.002
			c0.016,0.075,0.071,0.237,0.098,0.356l-0.039-0.001c0.052,0.097,0.056,0.287,0.081,0.359c0.013,0.165,0.022,0.447,0.163,0.639
			l-0.039,0.184l0.019,0.016c0,0,0.327-0.094,0.663-0.253c0.338-0.156,0.687-0.368,0.787-0.498l0.036-0.014l-0.017-0.025
			c0.002-0.04-0.047-0.038-0.01-0.051l0.017,0.047c-0.005-0.037,0.025-0.022,0.051-0.019c-0.003-0.015-0.004-0.03,0.002-0.045
			c-0.017,0-0.013,0.011-0.018,0.019c-0.02-0.012-0.068-0.022-0.057-0.052c-0.007-0.036,0.059-0.024,0.05-0.065
			c-0.041-0.217-0.022-0.431-0.017-0.673c0.017-0.005,0.015,0.002,0.022,0.009c-0.011-0.074-0.004-0.139-0.007-0.211
			c0.02-0.017,0.045-0.018,0.062-0.022C43.631,10.36,43.722,9.955,43.74,9.949z"/>
		<path fill="#FCD83E" d="M18.535,5.302c0.165,0.062,0.458,0.104,0.734,0.15C19.061,5.382,18.836,5.334,18.535,5.302z"/>
		<polygon fill="#FCD83E" points="19.274,5.453 19.278,5.453 19.268,5.452 		"/>
		<path fill="#FCD83E" d="M23.862,26.477c0.04-0.055,0.085-0.118,0.132-0.182C23.947,26.354,23.902,26.416,23.862,26.477z"/>
		<path fill="#FCD83E" d="M22.237,9.999l0.045-0.065c0.064,0.01-0.054,0.074-0.011,0.064c0.073-0.038,0.098-0.029,0.098-0.019
			c0.003,0.011-0.022,0.022,0.052,0.012c-0.012,0.002-0.008,0.005-0.026,0.009c-0.019,0.004-0.044,0.009-0.082,0.014
			c0.105-0.014,0.047-0.002,0.037,0.001c-0.003,0.001-0.003,0.002,0,0.002c0.026,0,0.036-0.004,0.075-0.009
			c0.001,0.004,0.001,0.011-0.002,0.019c-0.048,0.01-0.097,0.006-0.099,0.001c-0.012,0.005-0.031,0.012-0.055,0.022l-0.014,0.006
			L22.25,10.06c0,0-0.002,0.001-0.001,0c0.005-0.005,0.011-0.01-0.009,0.007l-0.132,0.11c-0.179,0.146-0.335,0.302-0.501,0.464
			c-0.173,0.16-0.325,0.331-0.479,0.505c-0.313,0.349-0.568,0.712-0.813,1.075c-0.218,0.36-0.44,0.726-0.663,1.094
			c-0.398,0.667-0.798,1.337-1.172,1.964c0.683-0.285,1.352-0.564,2.006-0.836c0.513-0.209,1.124-0.49,1.376-0.522
			c0.165-0.044,0.328-0.087,0.487-0.129c0.087-0.029,0.144-0.025,0.206-0.027c0.062-0.002,0.124-0.004,0.185-0.006
			c0.122-0.004,0.241-0.008,0.358-0.011c0.059-0.003,0.115,0,0.17,0.001c0.047,0.001,0.152,0.013,0.119,0.009
			c-0.015-0.002,0.003-0.002,0.007-0.006c0.035-0.037,0.003-0.014,0.02-0.077c0.052-0.03,0.033,0.018,0.08-0.013
			c-0.04,0.043-0.037,0.05-0.034,0.057c0.002,0.007,0.007,0.015-0.084,0.047l0.106-0.035c-0.019,0.008-0.04,0.015-0.062,0.022
			c0.17-0.016,0.119-0.007,0.04,0.007c0,0,0.001,0.001,0.004,0.002c0.027,0.003,0.071,0.036,0.011,0.045
			c0.003-0.001,0.06,0.001,0.055,0.019c-0.049-0.024-0.027,0.059-0.074,0.034l-0.002,0.003c-0.013,0.01-0.027,0.021-0.041,0.033
			c-0.03,0.024-0.065,0.052-0.1,0.081c-0.068,0.061-0.142,0.127-0.207,0.185c-0.124,0.118-0.195,0.21-0.088,0.153
			c-0.113,0.049-0.555,0.487-0.316,0.203c-0.151,0.146-0.291,0.295-0.38,0.418l0.192-0.19c-0.251,0.279-0.429,0.503-0.582,0.705
			l-1.487,1.963l2.485-0.526c0.169-0.036,0.315-0.079,0.475-0.133c-0.067,0.004-0.136,0.006-0.203,0.012
			c0.318-0.07,0.592-0.109,0.725-0.058c-0.11,0.016-0.219,0.042-0.327,0.061c0.531-0.076,0.856-0.089,1.308-0.107
			c-0.054-0.005-0.107-0.007-0.161-0.007c0.07-0.009,0.175-0.009,0.308-0.009c0.033,0,0.068,0,0.104,0l0.03-0.002
			c0.021-0.001,0.043-0.002,0.067-0.004c0.079-0.005,0.19,0.003,0.32,0.027c0.13,0.024,0.278,0.066,0.425,0.119
			c0.059,0.016,0.02,0.018,0.011,0.025c-0.013,0.006-0.026,0.011-0.038,0.017c-0.022,0.013-0.04,0.025-0.047,0.034
			c-0.004,0.004-0.005,0.006-0.006,0.009l0.054-0.006l0.154-0.016l-0.036,0.022l-0.066,0.044c0.035-0.011-0.248-0.057-0.207-0.056
			c-0.049,0.017-0.135,0.045-0.243,0.095c-0.056,0.024-0.111,0.052-0.18,0.089c-0.046,0.026-0.093,0.052-0.141,0.08
			c-0.125,0.076-0.253,0.155-0.384,0.234c-0.256,0.167-0.516,0.349-0.769,0.546l-0.188,0.152c-0.064,0.052-0.115,0.09-0.22,0.188
			c-0.18,0.171-0.379,0.327-0.542,0.511c-0.354,0.355-0.641,0.711-0.922,1.059c-0.141,0.177-0.28,0.35-0.415,0.521
			c-0.069,0.087-0.137,0.173-0.204,0.258c-0.015,0.021-0.037,0.044-0.047,0.062l-0.021,0.048l-0.042,0.095
			c0.797,0.115,1.551,0.216,2.115,0.319c0.288,0.048,0.527,0.109,0.737,0.153c0.084,0.021,0.16,0.04,0.228,0.058
			c0.046,0.013,0.087,0.024,0.122,0.034c0.376,0.127,0.049,0.095,0.043,0.101c0.468,0.106,0.214,0,0.605,0.118
			c0.025,0.012,0.011,0.018,0.005,0.026c-0.009,0.007-0.073-0.002-0.1-0.006c0.114,0.031,0.105,0.031,0.121,0.037
			c0.013,0.005,0.023,0.006,0.031-0.003c-0.041-0.032,0.005-0.082-0.01-0.129l0.169,0.059l-0.039,0.029
			c0.024,0.01,0.193-0.051,0.364,0.038l0.086,0.039l0.044,0.02c0.005,0.004,0.021,0.006,0.016,0.011l-0.021,0.016
			c-0.111,0.084-0.215,0.171-0.319,0.261l-0.153,0.136c-0.142,0.131-0.282,0.262-0.42,0.39c-0.005-0.027,0.128-0.174,0.264-0.32
			c-0.094,0.085-0.229,0.224-0.326,0.292c0.193-0.129-0.265,0.297-0.125,0.185c-0.428,0.549-1.096,1.148-1.439,1.658
			c0.015,0.048,0.087,0.535,0.186,1.007c0.096,0.472,0.221,0.931,0.26,0.961c-0.107,0.14-0.212,0.281-0.251,0.319
			c0.047-0.022,0.259-0.296,0.362-0.449l-0.024-0.059c0.244-0.348,0.086-0.059,0.34-0.386c0.049,0.011-0.182,0.313-0.38,0.583
			c0.186-0.238,0.399-0.451,0.437-0.578c0.194-0.207,0.023,0.059,0.254-0.192c0.144-0.195,0.32-0.465,0.526-0.655l0.003,0.009
			c0.489-0.469,0.659-0.806,1.137-1.204l-0.038,0.057c0.089-0.065,0.203-0.181,0.338-0.306c0.052-0.048,0.106-0.098,0.161-0.149
			c0.075-0.067,0.15-0.135,0.231-0.203c0.161-0.133,0.325-0.267,0.489-0.403c-0.192,0.152-0.375,0.265-0.008-0.055
			c0.778-0.593,1.265-1.011,1.868-1.448l-0.011-0.006l-0.649-0.22c-0.306-0.125-0.711-0.29-1.197-0.488
			c-0.242-0.099-0.515-0.201-0.813-0.306c-0.147-0.053-0.307-0.102-0.466-0.155c-0.081-0.026-0.162-0.052-0.245-0.079
			c-0.067-0.02-0.134-0.039-0.202-0.06c-0.188-0.055-0.386-0.109-0.594-0.161c-0.096-0.023-0.193-0.047-0.293-0.072l-0.023-0.003
			c-0.036-0.004-0.075-0.008-0.115-0.012c-0.02,0.002-0.011-0.007-0.006-0.016l0.017-0.026c0.012-0.018,0.026-0.036,0.043-0.054
			c0.006-0.008,0.019-0.02,0.033-0.034c0.01-0.009,0.006-0.008,0.027-0.025l0.14-0.114c0.184-0.154,0.374-0.292,0.561-0.42
			c0.094-0.063,0.184-0.129,0.278-0.183c0.046-0.028,0.092-0.057,0.137-0.084l0.067-0.042l0.038-0.022l0.068-0.035
			c0.18-0.094,0.355-0.184,0.524-0.272c0.181-0.085,0.394-0.161,0.577-0.237c0.095-0.037,0.188-0.074,0.279-0.11
			c0.112-0.031,0.222-0.061,0.329-0.09c0.214-0.059,0.417-0.114,0.608-0.167c0.442-0.107,0.827-0.2,1.146-0.277l-0.161,0.045
			c0.397-0.095,0.817-0.195,1.38-0.33c-0.114-0.071-0.231-0.144-0.353-0.219l-0.09-0.056l-0.047-0.033l-0.092-0.065l-0.047-0.033
			c-0.02-0.013-0.018-0.016-0.073-0.045c-0.087-0.047-0.174-0.094-0.263-0.141c-0.171-0.091-0.345-0.185-0.523-0.28
			c-0.336-0.176-0.686-0.359-1.044-0.547c-0.187-0.089-0.387-0.175-0.59-0.261c-0.224-0.077-0.426-0.169-0.674-0.234
			c-0.244-0.068-0.485-0.142-0.755-0.188c-0.132-0.025-0.263-0.057-0.396-0.077l-0.4-0.05l-0.201-0.025l-0.13-0.008l-0.252-0.014
			c-0.168-0.004-0.337-0.007-0.505-0.003c-0.674,0.017-1.344,0.114-1.971,0.283l0.965,1.388c0.301-0.431,0.648-0.8,1.001-1.1
			c0.043-0.039,0.089-0.073,0.133-0.109c0.088-0.07,0.186-0.145,0.287-0.207c0.203-0.129,0.384-0.26,0.621-0.364
			c0.115-0.055,0.212-0.11,0.335-0.161c0.144-0.048,0.285-0.096,0.424-0.143c0.245-0.091,0.626-0.19,0.939-0.282
			c0.768-0.199,1.612-0.418,2.476-0.642l-0.317-0.12c-0.096-0.037-0.222-0.082-0.254-0.098c-0.104-0.045-0.222-0.094-0.242-0.112
			c0.014,0.014,0.016,0.024,0.01,0.031c-0.001,0.008-0.009,0.013-0.03,0.012c-0.049-0.004-0.084-0.014-0.12-0.035
			c-0.015-0.009-0.029-0.017-0.042-0.025l-0.01-0.006l-0.04-0.012c-0.027-0.008-0.052-0.016-0.077-0.024
			c-0.1-0.03-0.186-0.056-0.261-0.079c-0.151-0.044-0.254-0.075-0.327-0.096c-0.146-0.041-0.173-0.045-0.202-0.048
			c-0.056-0.006-0.134-0.017-1.136-0.307c-0.48-0.127-1.189-0.361-2.177-0.536c-0.251-0.039-0.499-0.088-0.787-0.11l-0.109-0.009
			l-0.03-0.002l-0.062-0.002c-0.084-0.001-0.171,0.003-0.257,0.018c-0.101-0.001-0.324,0.146-0.165-0.037
			c0.077-0.109,0.162-0.203,0.242-0.279c0.041-0.038,0.08-0.071,0.117-0.101l0.027-0.02l0.01-0.007
			c0.003-0.002-0.004,0.004,0.052-0.042c0.142-0.11,0.287-0.204,0.422-0.301c0.128-0.097,0.279-0.181,0.421-0.26
			c0.148-0.079,0.259-0.156,0.415-0.224c0.313-0.138,0.582-0.257,0.798-0.352c0.253-0.119,0.509-0.238,0.769-0.36
			c0.271-0.121,0.546-0.244,0.825-0.369l-0.224-0.113c-0.06-0.033-0.086-0.053-0.13-0.08l-0.059-0.038l-0.03-0.019l-0.074-0.027
			c-0.102-0.037-0.204-0.073-0.305-0.11c-0.401-0.144-0.776-0.272-1.131-0.381l0.121,0.026c-0.092-0.03-0.219-0.073-0.376-0.125
			c-0.152-0.054-0.343-0.113-0.568-0.176c-0.441-0.127-1.032-0.268-1.72-0.344c-0.081-0.01-0.164-0.02-0.246-0.03l-0.162-0.013
			c-0.109-0.01-0.22-0.018-0.332-0.022c-0.05-0.002-0.1-0.004-0.151-0.006c-0.095-0.001-0.187,0.003-0.268,0.014
			c-0.132,0.047-0.03-0.064-0.004-0.11c0.035-0.051,0.062-0.092,0.079-0.117L21.5,7.936c0.063-0.142,0.139-0.116,0.24-0.184
			c-0.016-0.009-0.025-0.023-0.025-0.043c0-0.005,0-0.01,0.002-0.016c0.01-0.012,0.02-0.026,0.031-0.039
			c0.024-0.028,0.05-0.058,0.077-0.089c0.056-0.062,0.12-0.131,0.185-0.188c0.032-0.029,0.063-0.057,0.091-0.082
			c0.049-0.042,0.107-0.089,0.147-0.118l-0.002,0.021c0.132-0.094,0.307-0.219,0.509-0.363c0.102-0.07,0.237-0.137,0.362-0.21
			c0.136-0.072,0.239-0.148,0.426-0.222c0.169-0.074,0.341-0.149,0.514-0.225c0.187-0.078,0.374-0.157,0.56-0.235
			c0.385-0.156,0.759-0.308,1.101-0.447l0.081,0.011c0.137-0.057,0.287-0.119,0.446-0.185c-0.232-0.194-1.677-0.468-2.131-0.585
			c-0.636-0.155-1.461-0.365-2.42-0.553c-0.197-0.038-0.396-0.076-0.597-0.115l-0.444-0.077c-0.297-0.047-0.594-0.088-0.881-0.115
			l-0.724-0.211l-0.11-0.003c0,0-0.34,0.297-0.49,0.653c-0.152,0.358-0.116,0.768,0.597,1.005L19.016,5.36l0.29,0.034
			c0.344,0.068,0.51,0.047,0.481,0.082l-0.474-0.073c0.347,0.061,0.101,0.046-0.035,0.05c0.145,0.023,0.285,0.049,0.399,0.077
			c0.071-0.005-0.048-0.023-0.101-0.039c0.189,0.013,0.455,0.016,0.679,0.07c0.355,0.061,0.013,0.066,0.426,0.138l0.229,0.043
			l0.094,0.018l0.013,0.004l0.046,0.015c0.028,0.01,0.052,0.02,0.072,0.029c0.02,0.009,0.036,0.017,0.049,0.025
			c0.001,0.004,0.023,0.007,0.006,0.011l-0.044,0.014c-0.043,0.014-0.074,0.027-0.099,0.041L21.028,5.91L21.02,5.915
			c0,0-0.004,0.003,0-0.001l-0.067,0.054c-0.11,0.085-0.216,0.176-0.32,0.269c-0.058,0.052-0.093,0.078-0.169,0.152l-0.253,0.252
			c-0.083,0.06,0.001-0.022,0.085-0.117c-0.48,0.461-0.848,0.951-1.171,1.399c-0.292,0.453-0.533,0.871-0.785,1.312
			c-0.171,0.253-0.256,0.349-0.327,0.438c0.021-0.026-0.026,0.061-0.122,0.229c-0.076,0.136-0.189,0.336-0.323,0.576
			c0.607-0.102,1.34-0.226,2.1-0.354l0.282-0.047l0.261-0.033c0.173-0.021,0.346-0.042,0.518-0.062
			c0.317-0.009,0.637-0.034,0.924-0.023c0.091,0.004,0.18,0.007,0.266,0.011c0.062,0.005,0.122,0.009,0.179,0.014
			c0.044,0.003,0.086,0.007,0.126,0.01c0.002,0,0.005,0.001,0.005,0.001C22.235,9.996,22.237,9.999,22.237,9.999z"/>
		<path fill="#FCD83E" d="M37.334,32.815c0.064-0.019,0.118-0.089,0.171-0.154C37.435,32.691,37.382,32.738,37.334,32.815z"/>
		<polygon fill="#FCD83E" points="37.507,32.66 37.507,32.658 37.505,32.661 		"/>
		<path fill="#FCD83E" d="M45.195,34.707c-0.006-0.021-0.012-0.044-0.019-0.069C45.181,34.662,45.186,34.685,45.195,34.707z"/>
		<path fill="#FCD83E" d="M40.244,29.685l-0.038-0.06c0.146-0.135,0.097,0.02,0.22-0.116c-0.015-0.125,0.235-0.193,0.248-0.275
			c0.004,0.007,0.074-0.05,0.09-0.022c-0.014-0.059,0.061-0.07,0.095-0.118c0.006-0.025-0.022-0.003-0.044-0.005l0.087-0.098
			c0.05-0.019,0.08-0.002,0.042,0.037c0.136-0.101,0.526-0.399,0.933-0.679l0.076-0.053l0.037-0.026l0.003-0.001
			c0.006-0.003,0.004,0,0.006,0c0.002,0.001,0.004,0.002,0.004,0.002c0.002,0,0.003-0.002,0.006-0.012
			c0.009-0.055,0.001-0.017,0.005-0.097c0.013-0.052,0.009,0.01,0.021-0.044c-0.024,0.131,0.013,0.02-0.03,0.165l0.028-0.084
			l-0.016,0.051c0.042-0.088,0.03-0.06,0.022-0.035c-0.001,0.002-0.002,0.006-0.003,0.01c0.007-0.011,0.074-0.098,0.051-0.05
			c0-0.002,0.029-0.048,0.042-0.057c-0.043,0.055,0.033-0.017-0.01,0.039c0.006,0,0.002,0.03,0.062-0.033
			c-0.029,0.035-0.04,0.065-0.067,0.073c-0.001,0.008-0.01,0.019,0.004,0.015l0.016-0.02c0.012,0.023-0.036,0.052,0.023,0.049
			l0.024-0.019c0.006,0.018,0.012,0.036-0.051,0.049c-0.008-0.006-0.013-0.005-0.021-0.009c0.009,0.053,0.016,0.096,0.023,0.138
			c0.013,0.072,0.03,0.141,0.056,0.219l-0.004-0.057c0.083,0.198,0.268,1.255,0.378,1.43l0.037-0.093l0.064,0.154
			c-0.002-0.019-0.171-0.055-0.157-0.073c0.043,0.346,0.371,2.123,0.407,2.443c-0.004,0.133-0.074,0.038-0.082,0.038
			c0.047,0.152,0.065,0.057,0.086,0.19c-0.002,0.038-0.04,0-0.051-0.019c0.017,0.057,0.01,0.113,0.034,0.113
			c0.004-0.076,0.07-0.057,0.104-0.095l0.028,0.17l-0.04,0c0.006,0.038,0.123,0.075,0.135,0.245c0.04,0.283,0.116,0.584,0.169,0.866
			c-0.024,0.001-0.05-0.055-0.076-0.111c0.007,0.038,0.025,0.094,0.016,0.132c0.026-0.077,0.052,0.112,0.058,0.055
			c0.138,0.185,0.114,0.468,0.218,0.635c0.088-0.001,1.527,0.044,1.626,0.017c0.011,0.055,0.022,0.109,0.018,0.128
			c0.02-0.02,0.006-0.129-0.021-0.182l-0.056,0.003c-0.05-0.126,0.024-0.038-0.01-0.165c0.042-0.017,0.079,0.098,0.108,0.2
			c-0.017-0.094-0.007-0.194-0.064-0.221c-0.003-0.092,0.056-0.003,0.049-0.112c-0.031-0.072-0.095-0.16-0.089-0.252l0.008,0
			c-0.002-0.219-0.14-0.305-0.136-0.507l0.019,0.017c0.011-0.073-0.052-0.199-0.051-0.327c-0.001,0.037-0.026,0.074-0.048,0.001
			C44.863,33.09,44.816,33,44.829,32.89l-0.063-0.09c-0.103-0.49-0.498-2.432-0.563-2.933l0.01,0.019
			c-0.066-0.378-0.145-0.959-0.22-1.544l-0.027-0.219c-0.014-0.125-0.028-0.249-0.041-0.372c-0.028-0.271-0.056-0.536-0.082-0.791
			c-0.05-0.508-0.095-0.967-0.137-1.313c0.018-0.243-0.003-0.501-0.015-0.731c-0.031,0.014-0.058,0.024-0.091,0.043
			c0.05-0.021,0.051,0,0.038,0.017c-0.014,0.019-0.045,0.041-0.089,0.068c-0.596,0.355-0.065,0.074-0.67,0.462
			c-0.177,0.118-0.459,0.297-0.801,0.507c-0.339,0.218-0.747,0.477-1.138,0.749c-0.495,0.337-0.933,0.672-1.115,0.797
			c-0.139,0.192-0.383,0.348-0.528,0.525l0.007-0.026c-0.08,0.091-0.389,0.35-0.684,0.631c-0.299,0.277-0.591,0.57-0.677,0.682
			l0.032-0.022c-0.137,0.207-0.165,0.135-0.313,0.263c0.069,0.028-0.04,0.212-0.087,0.277l-0.01-0.013
			c-0.07,0.099-0.203,0.344-0.319,0.505l-0.025-0.031c-0.074,0.154-0.283,0.384-0.35,0.483c-0.181,0.203-0.487,0.501-0.652,0.831
			l-0.225,0.132l-0.01,0.035c0,0,0.225,0.266,0.516,0.5c0.291,0.234,0.645,0.437,0.889,0.335l0.028,0.028l0.045-0.075
			c0.075-0.076,0.066-0.142,0.094-0.113l-0.085,0.116c0.069-0.081,0.044-0.008,0.04,0.038c0.028-0.034,0.056-0.067,0.086-0.089
			c-0.001-0.026-0.022,0.003-0.038,0.012c0.021-0.054,0.034-0.142,0.091-0.186c0.067-0.085,0.055,0.031,0.133-0.068
			c0.413-0.519,0.851-0.988,1.291-1.489c0.022,0,0.01,0.013,0.002,0.032c0.125-0.158,0.247-0.289,0.363-0.431
			c0.048-0.024,0.075-0.018,0.097-0.017C39.482,30.417,40.218,29.681,40.244,29.685z"/>
		<path fill="#FCD83E" d="M52.182,14.931c0.009,0.068,0.073,0.136,0.133,0.203C52.293,15.057,52.253,14.994,52.182,14.931z"/>
		<polygon fill="#FCD83E" points="52.315,15.136 52.316,15.136 52.314,15.134 		"/>
		<path fill="#FCD83E" d="M56.268,9.738c0.014,0.007,0.029,0.015,0.045,0.023C56.299,9.752,56.284,9.743,56.268,9.738z"/>
		<path fill="#FCD83E" d="M56.011,17.274l0.03-0.065c0.206,0.048,0.042,0.093,0.238,0.118c0.094-0.079,0.318,0.074,0.395,0.031
			c-0.003,0.008,0.092,0.026,0.081,0.056c0.037-0.049,0.099,0.004,0.162-0.003c0.024-0.012-0.014-0.018-0.028-0.036l0.14-0.003
			c0.052,0.024,0.062,0.057,0.002,0.056c0.09,0.017,0.265,0.043,0.487,0.062c0.218,0.022,0.499,0.039,0.827,0.012
			c0.323-0.026,0.698-0.115,1.003-0.274c0.297-0.155,0.512-0.339,0.609-0.447c-0.076,0.027-0.202,0.159-0.294,0.15
			c0.096-0.121,0.185-0.128,0.203-0.204c0.11,0.029,0.245-0.219,0.381-0.254l-0.018-0.066l0.071-0.041
			c0.144-0.286,0.146-0.321,0.159-0.344c0.01-0.023,0.035-0.033,0.138-0.276c0.093-0.287,0.042-0.432,0.101-0.576
			c-0.004,0.022-0.047,0.074-0.049,0.003c0.049-0.003-0.003-0.188,0.05-0.214c0.004-0.068,0.029-0.28-0.042-0.214
			c0.039-0.033,0.06-0.22,0.083-0.107c0.005-0.063,0.017-0.124,0.004-0.17l-0.021,0.08c0.002-0.213,0.044-0.327-0.018-0.46
			l-0.023,0.077c-0.008-0.123-0.022-0.223,0.039-0.277l0.028,0.125c-0.013-0.205-0.034-0.327-0.091-0.488l0.007,0.059
			c-0.045-0.098-0.13-0.435-0.237-0.712c-0.103-0.288-0.225-0.567-0.292-0.64l-0.022,0.094l-0.087-0.133
			c0.005,0.017,0.177,0.02,0.166,0.04c-0.049-0.159-0.231-0.645-0.462-1.111c-0.227-0.467-0.512-0.906-0.591-1.045
			c-0.049-0.122,0.052-0.064,0.06-0.067c-0.103-0.12-0.082-0.025-0.157-0.136c-0.015-0.035,0.036-0.017,0.054-0.005
			c-0.04-0.044-0.059-0.098-0.081-0.087c0.03,0.07-0.039,0.082-0.052,0.13l-0.098-0.139l0.035-0.018
			c-0.022-0.032-0.141-0.012-0.233-0.151c-0.165-0.229-0.395-0.439-0.603-0.637c0.019-0.015,0.073,0.016,0.127,0.047
			c-0.028-0.027-0.076-0.063-0.091-0.099c0.024,0.078-0.108-0.061-0.079-0.011c-0.222-0.063-0.383-0.299-0.579-0.347
			c-0.032,0.032-0.316,0.278-0.582,0.555c-0.267,0.274-0.508,0.565-0.533,0.61c-0.034-0.022-0.068-0.044-0.074-0.058
			c-0.002,0.027,0.06,0.077,0.103,0.086l0.034-0.044c0.095,0.033,0.003,0.04,0.088,0.084c-0.02,0.04-0.1,0.006-0.167-0.029
			c0.057,0.039,0.098,0.1,0.148,0.072c0.044,0.051-0.035,0.042,0.018,0.101c0.052,0.02,0.137,0.025,0.174,0.082l-0.006,0.006
			c0.091,0.133,0.232,0.088,0.308,0.223l-0.021,0.001c0.019,0.055,0.119,0.092,0.164,0.179c-0.012-0.025-0.005-0.065,0.037-0.029
			c0.053,0.098,0.126,0.128,0.152,0.211l0.082,0.029c0.124,0.14,0.425,0.508,0.669,0.936c0.25,0.423,0.442,0.893,0.51,1.086
			l-0.012-0.013c0.056,0.146,0.117,0.334,0.178,0.546c0.027,0.106,0.056,0.217,0.085,0.331c0.024,0.105,0.045,0.213,0.063,0.321
			c0.07,0.437,0.053,0.859,0.017,1.095c-0.059,0.062-0.079,0.155-0.119,0.206c0.031-0.025,0.055-0.003,0.041,0.023
			c-0.094,0.168,0.025,0.034-0.061,0.2c-0.052,0.1-0.186,0.259-0.494,0.292c-0.308,0.044-0.791-0.027-0.939-0.061
			c-0.182,0.046-0.392-0.037-0.568-0.03l0.02-0.011c-0.093-0.007-0.395-0.076-0.69-0.181c-0.297-0.097-0.584-0.23-0.688-0.262
			l0.023,0.019c-0.189-0.037-0.136-0.095-0.26-0.176c-0.014,0.074-0.177,0.039-0.234,0.013l0.009-0.013
			c-0.089-0.03-0.304-0.081-0.443-0.154l0.026-0.03c-0.132-0.033-0.329-0.18-0.404-0.234c-0.169-0.134-0.376-0.393-0.62-0.542
			l-0.053-0.207l-0.027-0.01c0,0-0.288,0.189-0.576,0.428c-0.285,0.24-0.566,0.537-0.498,0.802l-0.032,0.023l0.07,0.06
			c0.066,0.092,0.137,0.089,0.104,0.114c-0.037-0.034-0.073-0.069-0.108-0.106c0.072,0.085,0.002,0.047-0.043,0.033
			c0.031,0.035,0.06,0.07,0.08,0.103c0.027,0.003-0.001-0.023-0.008-0.04c0.054,0.03,0.141,0.057,0.184,0.118
			c0.083,0.078-0.036,0.052,0.062,0.144c0.522,0.471,1.076,0.891,1.726,1.191c0.008,0.022-0.01,0.013-0.031,0.01
			c0.201,0.08,0.374,0.161,0.563,0.218c0.044,0.037,0.049,0.066,0.058,0.086c-0.008-0.023,0.247,0.071,0.513,0.149
			c0.133,0.04,0.267,0.081,0.371,0.107C55.936,17.251,56.007,17.27,56.011,17.274z"/>
		</pattern>
	</defs>
	<rect x="0" y="0" width="1440" height="600" fill="url(#bgPattern03)" />
</svg>
