<svg xmlns="http://www.w3.org/2000/svg" width="191" height="96" viewBox="0 0 191 96">
    <path fill="#FCD83E" fill-rule="evenodd" d="M190.954 20.149c-.139.349-.591.833-.974 1.32-.383.484-.417.796-.591 1.248-.175.449-.279 1.248-.522 1.838-.243.589-.904 1.211-1.322 1.817-.417.607-1.356 1.925-.695 1.648.66-.279 2.817-1.838 2.817-1.629 0 .208-.278.418-.974 1.11-.696.692-3.756 1.871-4.313 2.253-.556.383-2.122 1.073-2.991 1.456-.87.381-2.469 1.317-2.991 1.524-.522.208-.835.106-1.148.174-.313.071-1.147.556-1.495.59-.348.035-.696.103-.905.484-.209.383-.834.764-1.043.626-.209-.139-.592-.035-.696.346-.105.38-.765.487-1.008.52-.244.036-.905.937-1.218 1.006-.313.069-.73.519-1.043 1.006-.313.485-2.226 1.351-2.609 1.871-.382.521-.174 1.282.104 1.527.279.242-.278.415-.278.622 0 .208.487 1.56.313 1.596-.174.035.07.45 0 .658-.069.21-.174.381-.139.832.035.451.209 1.873.279 2.358.069.485.034 1.387.138 1.873.105.484.209 1.248.279 2.115.07.867-.383 1.246-.383 1.767 0 .521.07 1.075.244 1.421.173.348-.035 1.109-.07 1.526-.035.416.417 1.732.626 2.219.209.484 0 .903-.104 1.525-.105.622.626.971.626 1.629 0 .66-.557 1.458-.869 1.352-.314-.104-.731.451-.696.866.034.418.696.834.974 1.007.278.172.069 1.248-.209 1.455-.278.209-.244-.831-.418-1.142-.173-.313-.522-.521-.765-.643-.243-.121-.696-.259-.939-.259s-.417.658-.208.831c.208.173.382.349.347.659-.035.312-.626.208-.939.519-.313.312-.174 1.25-.417 1.283-.243.037-.348.14-.278.452.069.312-.279 1.179-.626 1.423-.349.242-.592.623-.557 1.248.035.623 0 1.006-.313 1.351-.313.346-.418.451-.591.588-.174.139-.314 1.04-.348 1.352-.035.312 0 .418-.278.521-.279.104-.313.453-.418.797-.104.347-.313.244-.765.14-.452-.106-1.46-1.04-1.913-1.388-.452-.346-1.356-1.664-1.704-2.116-.348-.449-1.113-1.351-1.078-1.801.034-.45.034-.798 0-1.005-.035-.208-.452-1.144-.731-1.525-.278-.381.243-.798.174-1.076-.07-.276-.382-1.111-.556-1.319-.174-.205-.453-.795-.765-1.142-.314-.347.104-1.007 0-1.318-.105-.312-.314-1.249-.348-1.698-.035-.452-.279-1.318-.383-1.943-.104-.623-.209-1.143-.275-1.803-.067-.657.275-4.923-.003-5.51-.278-.591.034-1.422 0-1.874-.035-.45-.209-1.319-.278-1.699-.07-.382-.279.036-.452 0-.175-.033-1.81.936-2.297 1.249-.486.312-1.878.729-2.295.971-.418.243-2.539 1.317-2.852 1.56-.313.242-1.843.901-2.22 1.075-.376.173-.388.276-.388.276-.765 1.528.486.695.382 1.147-.104.45-.556.655-1.043 1.003-.487.346-1.774 1.49-2.192 1.733-.417.244-.452.66-.66 1.527-.209.865-1.183 1.63-1.705 2.115-.521.484-.73 1.211-.757 1.697-.026.485-.843.971-1.086 1.25-.244.275-.278.866-.348 1.142-.07.279-.904.471-.904.069 0-.4.556-.865.591-1.179.035-.311.765-.657.939-.797.174-.136-.139-.761-.243-1.141-.104-.382.452-1.007.869-1.353.418-.348.974-1.146 1.322-1.458.348-.311.765-1.143.939-1.663.174-.52-.034-.797.487-.901.522-.104 2.052-1.041 2.261-1.283.209-.242.139-1.006.278-1.421.139-.417-.661 0-.661 0-.939.242-2.33 1.282-2.539 1.352-.209.069-.278.727-.348.832-.069.104-.382.833-.66.901-.278.068-.314.728-.453.831-.139.104-.104.693-.173.938-.07.241-.418.694-.592.694s-.487.553-.695.83c-.209.277-.139.66-.314.902-.174.242-.764.761-1.252 1.7-.487.934-1.008 1.315-1.287 1.42-.278.105.174 1.039-.243 1.491-.203.219-1.565 1.455-1.774 1.455-.208 0-.556.936-.695 1.112-.139.173-.105.796-.244 1.038-.139.245-.661.936-.835 1.213-.174.28-.904 1.456-1.321 1.977a64.595 64.595 0 0 1-2.052 2.37c-.557.601-2.4 2.9-2.4 2.9-.105.174.174.554 0 .729-.174.173-.348 0-.487-.071-.139-.069-.522.277-.661.313-.139.033-1.148.623-1.391.693-.244.071-.835.556-1.67.901a6.171 6.171 0 0 1-1.592.418c-1.566.695-2.234-.382-2.616-.626-.383-.244-1.693-1.617-1.693-1.617-1.325-1.422-.48-1.4-.765-2.497-.302-1.155.58-1.339.626-2.448.046-1.11 1.53-3.284 2.179-4.808 0 0 1.253-2.776 1.739-4.25.487-1.477 2.365-5.806 5.357-10.868 2.991-5.063 10.295-17.75 12.382-22.015 2.087-4.265 7.025-12.168 8.313-13.936 1.287-1.769 3.234-4.749 4.556-6.344 1.322-1.597 3.652-4.023 4.352-5.027.7-1.008 2.361-.729 2.082-1.596-.278-.867 1.044-.763 1.635-1.151.591-.39 1.044.353 1.67.32.626-.036 2.713-.244 2.991-.314.278-.069.557.347.939.556.382.208 1.218.833 1.808.865.592.037.766-.103.835.243.07.348-.173.902-.278 1.353-.104.451-.278.554-.417 1.214-.14.657.139 1.11.591 2.149.452 1.039.869 4.853 1.287 5.998.417 1.144.939 4.577 1.113 5.616.174 1.04.696 3.432.626 4.092-.069.658-.105 2.01-.139 2.704-.035.694.139 1.074.278 1.524.14.453-.069 2.046 2.609.175 4.383-3.064 18.225-8.08 19.929-8.877 1.705-.797 2.122-.797 1.983-.451zm-38.461 16.4c-.117-.993-.469-2.777-.381-3.214.088-.438.029-1.375-.03-1.755-.058-.379-.41-.583-.44-.41-.029.178-.351 1.055-.586 1.463-.234.409-.381.585-.323.877.06.293-.175.965-.351 1.226-.176.265-.147.497-.44.79-.293.291-.234.527-.351.876-.118.353-.235.761-.323.965-.088.205-.469.205-.645.732-.176.525-.586.758-.557 1.169.03.409-.264.699-.381.757-.117.06-.352.614-.44.44-.088-.175-.176-.35-.323 0-.146.352-.38.79-.586.878l-.205.087c-.294.35-.616.877-.264.849.352-.031 1.231-.533 1.583-.647.352-.116.029-.525.792-.641.762-.117 1.319-.117 1.495-.204.176-.088.029.756.323.845.293.088.887-.962 1.352-1.022.465-.059.964-.349 1.081-.672.117-.32.117-2.395 0-3.389zm-17.467-19.416c-.14 1.92-.951 2.705-1.09 3.583-.139.879-1.252.949-1.137 1.549.047.241.395.346-.393 1.294-.789.949-.696 2.15-1.716 3.699-1.021 1.548-2.737 3.697-3.27 4.737-.533 1.041-.904 2.405-1.322 2.012-.417-.393-.533.81-1.321 2.613-.789 1.802-2.713 3.582-2.759 4.389-.047.809.625 1.503-.14 1.619-.765.114-1.205.878-1.182 1.686.023.81-.232.832-.603 1.271-.371.441-.07 1.039-.371 1.479-.301.439-.789.625-1.021 1.618-.231.996-1.229 2.335-2.063 4.047-.835 1.71-2.295 4.553-2.713 5.708-.417 1.157-.719 2.819-.719 2.819-.278.95-.278 1.503-.162 1.713.116.208.788 1.038 1.043 1.246.256.207-.139 1.457-1.113.348-.233-.267-.626.554-.834 1.293-.209.74-.394.254-.766.694-.371.44-.602 1.085-.973 1.641-.372.553-1.345 2.312-1.67 2.567-.325.254-.255.993-.302 1.268-.045.281-.092.395-.37.718-.279.324-.394.623-.662.993-.267.371-.591.349-.799.673-.209.321-.047 1.062.023 1.409.07.345.881 1.225.765 1.386-.116.161-.433-.098-.695-.23-.263-.134-.719-1.041-.835-1.342-.116-.299-.51-.115-.905-.022-.394.092-.695 1.085-.719 1.27-.022.183-.162.603-.44.417-.278-.185.232-1.413.417-1.78.186-.369.14-1.177.186-1.526.046-.346-.533-.185-.696-.277-.162-.093.116-.508 0-.787-.116-.275-.696.486-.811.879-.116.392.162 1.409.092 1.942-.069.531-.44 2.38-.713 2.75-.273.369-.33-.207-.168-.808.163-.602.279-1.227 0-1.573-.278-.347-1.322 1.18-1.715 1.48-.395.301-.696.301-1.067.971-.371.669-1.229.092-1.925.207-.695.117-2.573.811-3.617.971-1.043.163-1.136.74-1.809.695-.672-.047-1.808-.532-2.341-1.065-.534-.531-.534-1.04-.835-1.617-.302-.578.718.602 1.159.925.44.323.232-.672.191-1.018-.039-.347-.701-.139-1.142-.208-.44-.069-.858-.346-1.205-.808-.348-.462.162-1.064.417-.577.255.484 1.113.669 1.577.807.464.139.371-.507.278-.901-.092-.393-2.388-1.619-2.805-1.988-.418-.37-.233.369-.58-.185-.348-.556-.255-2.725-.302-3.837-.046-1.11-.533-1.062-1.391-2.241s-2.133-4.601-2.945-6.08c-.812-1.479-1.994-5.915-2.457-7.464-.465-1.549-1.415-5.038-1.786-6.795-.371-1.757-1.438-5.849-1.971-7.558-.534-1.713-.951-2.288-1.438-3.537-.487-1.248-.556-2.172-1.229-2.936-.672-.761-1.507-4.067-1.577-4.622-.069-.556-.324-.877-.556-1.132-.232-.255-.232.392-.347.854-.117.462-.233 1.365-.557 2.311-.325.949-2.365 4.277-3.826 6.588-1.461 2.31-2.875 3.605-5.148 6.264-2.272 2.659-6.307 4.692-7.651 5.384-1.345.695-3.502 1.596-5.241 2.221-1.739.623-4.73 1.018-6.4 1.569-1.669.557-6.956.949-7.628 1.041-.673.093-.511.348-.789.832-.278.485-.881-.161-1.53-.254-.649-.092-1.299.299-1.67.995-.371.692-.51 1.385-1.112 2.241-.604.856-.604 1.295-1.044 2.634-.441 1.343-1.299 1.943-1.971 2.566-.673.625-.451.926-.394 1.226.056.302-.506 3.286.602 6.541 2.214 6.498 8.863 3.862 10.667 3.513 2.875-.556 9.576-4.831 10.132-5.271.557-.439 1.392-1.015 2.18-1.616.789-.602 2.412-1.663 3.038-2.103.626-.439 1.901-1.85 2.064-1.919.162-.069.469-.022.116.415-.997 1.134-3.177 2.384-4.475 3.353-1.299.969-1.925 1.569-1.207 1.5.72-.069 1.577-.971 2.899-1.985 1.322-1.018 4.105-3.007 5.38-3.723 1.275-.718 4.614-2.497 5.402-2.703.789-.208 1.531-.88 1.786-1.018.255-.137.162-.415.394-.624.232-.21.742-.368 1.02-.462.278-.091 2.899-1.62 3.223-1.803.324-.185 1.414-1.04 1.647-1.224.231-.185.602-.325.672-.163.069.163.139.487.163.625.022.139.022.324-.137.438-.159.114-.258.37-.281.507-.023.143.232.348.278.649.046.302-.394.856-.626 1.179-.232.324-.116 1.016-.325 1.502-.208.485.116 1.087.14 1.804.023.717-.371 1.085-.928 1.733-.557.647-.348.761-.07 1.061.279.303-.324.88-.997 1.504-.672.624-.718 1.732-.208 1.642.51-.093.533-.74.695-.625.163.116.301.208.209.556-.093.344-1.09 1.5-1.669 2.195-.58.692-.14.484-.186 1.546-.046 1.066-3.037 4.855-3.71 5.548-.673.694-2.249 1.952-2.492 1.643-.244-.312.243-.764.695-1.214.452-.451 1.043-1.25 1.043-1.699 0-.45-.243-.035-.869.555-.626.588-1.565 2.496-2.017 2.667-.453.175-.487.313-.731-.102-.243-.415 2.157-2.843 1.983-3.049-.174-.21 0 0-.904.554-.905.554-.731 1.211-1.635 1.386-.905.173-1.878.59-2.574.936-.696.346-.974.937-1.843 1.525-.87.59-1.357 1.456-2.818 2.53-.97.716-2.585 1.736-3.561 2.339 1.132-.836 1.377-1.72 1.377-1.72-.459.229-4.25 2.781-4.25 2.781-1.02.508-3.015 1.617-3.015 1.617-1.201 1.294-3.942 2.634-6.26 3.422-2.319.785-7.281 2.587-7.745 2.125-.464-.462 0-.601 3.478-1.34 3.479-.74 8.858-3.56 8.858-3.93 0-.369-1.299.37-2.69.832-1.391.463-4.916 1.849-5.519 1.757-.602-.094-1.391-.094-.834-.37.556-.277 1.437-1.342 2.875-1.432 1.437-.094 5.472-1.203 6.4-1.711.927-.508 1.762-.371 1.762-.371 1.252-.137 4.081-2.217 7.606-4.53 3.524-2.311 11.408-10.816 11.454-11.371.046-.556.557-1.016-.278-.741-.573.193-8.506 6.699-15.849 11.64-3.357 2.258-6.678 4.03-8.962 5.002-7.281 3.096-10.341 2.221-13.681 3.096-.419.112-.795.22-1.131.32-2.339.713-2.764 1.209-2.764 1.209.07.536 6.441 2.367 6.261 2.494-.302.213-7.415-1.559-8.719-1.849-2.087-.462-3.385 1.203-8.393-1.71-5.009-2.913-6.817-9.061-7.235-10.957-.417-1.894-.464-5.87-.557-7.765-.092-1.895-.324-5.546 2.644-14.607 2.968-9.06 6.817-14.145 6.817-14.145s8.368-12.705 10.503-15.208c2.007-2.352 9.931-11.14 11.931-12.725 1.772-1.402 3.29-2.008 3.617-2.218.695-.45.904-1.179.904-1.179.557-.798.592-.554 1.426-.589.835-.035 3.269-1.111 4.557-1.873 1.287-.761 1.6-.069 2.156.21.557.275.452.242 1.426.484.974.243 1.67.626 2.504.554.835-.069 1.322.937 2.991.625.39-.072.548-.468.835-.452.948.06 1.662.89 2.783 1.076.35.058.833-.352 1.287-.312 1.44.125 3.268.684 5.252 1.319 2.608.831 5.217 3.361 5.739 4.02.522.658.855 1.406.677.935-1.199-3.154.192-4.367.644-4.955.452-.591 1.426.032 1.705-.417.278-.453-1.113-1.596-1.009-2.115.104-.52 1.113-.243 2.121-.936 1.009-.693 1.705-1.56 3.792-1.909 2.087-.345 4.026 1.332 4.325 1.525.299.191.448.616 1.13.849.683.234.491-.956.917-.871.427.084.491.34.534.808.043.467.427.594.917.807.491.214.299.214.512.829.214.619.235 1.17.533 1.786.299.617.47 1.043.406 1.659-.065.617.17 1.213.256 1.616.085.403-.128 1.829-.555.997-.236-.454-.107-.806-.128-1.4-.021-.596-.619-.916-.811-1.446-.192-.531-.767-1.171-1.322-1.809-.555-.636-1.301-.405-1.834 0-.533.405-.235 1.065.448 1.638.682.572.789.999 1.45 1.297.661.298.469.51.576 1.446.106.936-.64.681-.726 1.233-.084.552 1.18.669 1.18.669.487.018.313.519.469 1.162.157.641.053 1.315.175 2.131.121.817.886 1.751 1.199 2.099.314.346.435-.156.557-.608.122-.451.278-1.11.382-1.525.105-.415-.034-1.006-.191-1.594-.156-.59-.226-1.647-.348-2.288-.121-.642.47.103.905.415.435.312.156.572.069 1.354-.087.778.227.742.47 1.438.243.693-.209 1.627-.139 2.13.069.505-.174.694.33.903.505.207.209.207.401.659.191.452-.262.692-.488.988-.226.294-.261.729-.347 1.247-.087.521 0 .867.069 1.11.07.242.052.468.226.624.174.157.418.399.591.538.175.139.07.311-.017.588-.087.277.087.59.243.764.157.172.157.242.244.555.087.31-.191.64.208 1.108.401.47.331.399.453.902.121.503.209.763.626.936.417.175.452.311.313 1.195-.139.885.469 1.631.869 2.046.401.417.053.625.209.936.156.312.453.469.574 1.145.122.675-.382.831.4 1.439.783.607.87 1.266 1.009 1.734.139.468.278.451.434.955.157.5-.33.5 0 1.16.331.658.714 1.611.905 2.286.191.678.4 1.248 1.269 1.578.87.33 3.774-5.183 4.313-6.204.539-1.025 1.739-2.93 1.878-3.26.14-.328-.069-.468-.469-.883-.401-.418-.261-.538-.174-.641.087-.105-.105-.468-.296-.764-.191-.295-.209-.484-.33-.867-.122-.382-.418-.919-.609-1.248-.191-.33-.069-.971 0-.711.069.261.47.537.539.833.07.293.522 1.301.591 1.612.07.312.487.693.557 1.177.07.486.696 1.109 1.496.036.346-.465.809-1.46 1.495-2.392.9-1.222 2.089-2.479 2.957-3.78 1.53-2.288 4.069-5.998 4.069-5.998.835-1.317 4.116-7.026 4.116-7.026 1.437-2.613 3.919-6.378 4.916-8.321.997-1.942 2.829-4.46 3.918-6.055 1.09-1.595 2.249-1.941 2.342-2.427.093-.485.464-.578.765-.531.302.046.789.808 1.021 1.2.232.394.533-.183.741-.786.209-.599.835-1.061 1.044-1.314.209-.255.418-.185.788-.119.371.07.696-.044.928.21.232.252.835.322 1.067.322.231 0 .393-.228.625-.208.232.025.395.464.696.44.302-.022.302-.091.719.185.417.277-.047.786.232 1.203.278.416.649.969.835 1.965.185.993-.209 1.848-.418 2.588s-.603 1.015.047 1.341c.649.323.487 1.225.185 1.777-.301.556-.719 2.152-.51 1.873.209-.278.626-.509.835 0 .208.509-.209 2.728-.766 2.983-.556.254-.249.697-.37 2.379zm-76.18 46.031c-.517.4-1.606 1.431-1.778.888-.172-.545-1.147.712-1.835 1.055-.555.277-.344.686 0 .629.344-.056 5.104-2.344 5.391-3.087.286-.744-1.262.116-1.778.515zM29.615 87.582c.928 0 7.679-1.653 17.901-8.504 10.223-6.849 12.104-8.924 12.29-9.8.185-.879-3.941 3.007-3.247 1.569.318-.657 2.875-1.292 1.902-2.125 0 0-.207-.085-.686.371-.528.502-5.916 4.275-6.298 4.784-.383.509-.274.635-.083.792.191.156-.261.571-.783.936-.521.364-1.495 1.179-2.139 1.559-.643.381-1.287.92-1.547 1.11-.261.189-4.887 3.396-6.452 4.185-1.565.79-2.122 1.24-2.435 1.327-.313.086-.8.33-1.044.538-.243.208-1.599.607-1.964.692-.366.088-1.861.608-2.157.782-.296.173-1.079.364-1.757.486-.678.12-1.843.467-2.017.538-.173.066-.875.344-.875.344-.325.325.464.416 1.391.416zm-1.994-5.128c.719-.073 2.597-.45 3.2-.793.602-.341.719-.92.626-.943-.093-.024-1.948.752-3.826.943-.312.032-.719.867 0 .793zm-17.541.33c.707.292 1.472.64 2.098 1.055.626.415.471.208.652 0 .183-.209-4.629-3.435-4.756-3.258-.128.173 1.299 1.911 2.006 2.203zM8.352 70.338c.278.301.673 1.206.927 1.574.256.37.558 1.132.801 1.386.243.255.776.601.915.625.14.023.441-.348 0-.857-.44-.509-1.205-1.433-1.483-1.94-.278-.508-1.067-.832-1.136-1.363-.07-.532-.657-.855-.792-.739-.136.115.49 1.012.768 1.314zm4.18-19.541c-.249-.912.167-1.99-.665-1.823 0 0-.755 1.997-.941 2.322-.186.324-.846 4.253-.846 4.253-.011.23-.313 2.357-1.194 1.757-.881-.603-1.345.785-1.299 1.293.046.508-.046 1.897.279 2.173.324.278.092.508.37 1.108.279.603.185 1.297.464 1.897.278.601-.093 1.293.371 1.755.464.464.835 1.157 2.018 3.513 1.183 2.358 1.507.834 1.487.51-.02-.324-.305-.925-.537-1.248-.232-.323 0-.832-.556-1.295-.557-.462-.65-1.48-.65-1.849 0-.37-.093-.646-.278-.832-.185-.185-.51-1.712-.603-2.034-.092-.324-.092-1.618-.324-2.636-.232-1.015 1.159-2.079 1.112-2.819-.046-.74.882-1.155.789-2.173-.093-1.017.324-1.341.338-1.894.014-.555.915-1.067.665-1.978zm.044 26.847c-.065-.324-1.233-1.017-2.021-1.386-.788-.373-1.669-2.543-2.226-3.192-.556-.645-1.994-3.511-2.179-3.835-.186-.323-.812-1.316-1.021-.832-.139.323.51 2.035.927 2.588.418.557.975 1.619 1.717 3.329.742 1.71 4.266 4.205 4.803 4.345.538.138.066-.693 0-1.017zm-.723 1.387c-1.576-.878-3.06-1.849-3.432-2.451-.37-.6-1.391-1.525-1.298-.877.093.647.04.877.461 1.247.421.37.652.833.745 1.018.092.185-.29.078-.186.324.105.246.928 1.339 1.438 1.618.51.277 1.484 1.201 1.716 1.431.232.232 1.214.509 1.279.786.066.279.576.833.622.603.047-.23.232-2.82-1.345-3.699zm2.598 3.998c-.316.137.255.647.486.81.232.161 1.299.485 1.508.578.208.092 1.368.486 1.646.623.278.139 1.855.023 2.179-.116.166-.07-1.423-.483-2.851-.993-1.362-.488-2.55-1.082-2.968-.902zm3.107-.704c-.279-.151-.881-.672-.881-.336v.336c.069.311.115.618.37.672.256.054.557.035.603 0 .047-.037.186-.519-.092-.672zm1.206-6.843c-.234.07.533.498.95.658.418.165.301-1.041-.95-.658zm.115 4.428c-1.507-.418-3.072-1.015-3.292-.778-.175.188.556.778.835.917.278.138.405.299.898.183.493-.114.817-.022 1.258.21.44.23 1.6.785 1.971.899.371.117 1.391.786 1.321-.254-.034-.517-1.483-.759-2.991-1.177zm5.519 3.637c-.105.009-1.775-.044-3.339-.308-1.198-.205-2.359-.65-2.551-.579-.218.082 0 .693.232.83.232.14 1.346.303 1.542.465.197.161.87.577 1.195.462.324-.118 1.994-.191 2.341-.338.348-.148.766-.544.58-.532zm15.153-72.063c-.657.277 1.287.763 1.391.485.105-.28-.243-.971-1.391-.485zM53.153 26.47c-1.15-.861-2.588 2.077-3.415 1.324-.827-.751 1.797-1.899.288-2.83-1.51-.933-1.977-.896-3.164.287-1.186 1.181-3.415 1.898-5.068 3.797-1.654 1.9-2.265 2.758-2.984 3.334-.719.573-.648 1.11-.719 1.54-.072.43-.575.752-1.042 1.361-.468.61-.971.861-.971 1.398 0 .538-.144 1.182-.396 1.218-.251.036-.718.107-.539.574.18.466-.359.323-.359.323-.503.107-.539.035-.719.177-.18.144 0 .682.359.968.36.289 2.661.824 3.559.861 0 0 6.542 1.324 13.229-4.909 6.686-6.236 4.789-7.294 1.941-9.423zm35.563 30.497c.1.585.633.939.782 1.499.026.098.193.095.263.003.076-.103.133-.229.164-.351.256-1.016.326-2.054.275-3.094-.029-.582-.318-1.081-.818-1.615-.08.254-.09.399-.162.496-.414.579-.528 1.164-.173 1.829.119.221.119.522-.179.685-.243.134-.189.334-.152.548zm3.894-7.365c-.33-.763-.609-1.108-1.026-1.907-.418-.796-.956-.796-.852-1.559a2.545 2.545 0 0 0-.366-1.698c-.208-.33-.208-.764-.556-1.492-.348-.729-1.113-2.028-1.252-2.842-.139-.817-.789-2.671-1.165-3.555-.377-.883-.539-1.092-.783-1.837-.244-.746-.261-.885-.574-1.318-.313-.433-.174-.883-.208-1.212-.035-.331-.279-.73-.661-1.284a6.384 6.384 0 0 1-.922-1.891c-.226-.761-.348-.952-.661-1.352-.313-.397-.539-1.109-.539-1.109-.122-.276-.487-.623-.678-.328-.191.294-.052.764.191 1.195.244.436.748 1.368.869 2.046.122.678.331 1.647.592 2.219.261.57.835 2.168 1.148 3.068.313.902 1.425 3.259 1.652 4.265.226 1.006.661 1.628.87 2.08.208.45.573.919.591 1.282.017.365.035.677.348 1.491.312.816 1.46 3.155 1.547 3.953.087.796.626 1.075.922 2.011.295.937.505 1.353.713 1.821.209.468.609.814.8 0 .191-.817.33-1.285 0-2.047zm10.927 21.156c-.121.446.278 1.109.533.875.255-.23.07-.646.209-1.015.139-.371-.669-.132-.742.14zm7.42-6.427c-.226.312-1.09 2.105-.765 2.358.325.253.649-.047.881-.463.232-.414.835-1.572.835-1.895 0-.324-.418-.739-.951 0zM47.885 84.72c-.492.307-.821.505-.821.505.316-.16.587-.33.821-.505zm48.107-45.077c-.347-.361-.065-.773 0-.978.043-.138.368-.381.56-.126.192.255-.128.573-.214.871-.085.298 0 .594-.346.233zm-.336-2.169c-.043.403-.214.701-.362.852-.15.148-.385.744-.508.795-.123.051-.154-.35-.24-.71-.085-.363 0-.787 0-1.087 0-.296.193-.827.235-.998.043-.17-.213-.914-.255-1.127-.043-.211-.363-1.062-.534-1.276-.171-.212-.218-.935-.213-1.318.003-.232.853-.233.874 0 .022.235.022.83 0 1.17-.021.34.534.446.662.767.127.319.576.848.618 1.103.043.257.107.533 0 .871-.106.341-.234.555-.277.958zM40.838 93.518c6.344-2.862 14.706-10.788 15.026-11.193.237-.299 1.391-.22.904.326-.361.407-3.943 3.301-8.41 6.503-1.554 1.114-3.312 2.137-4.946 3.284-6.33 4.436-14.064 3.464-14.064 3.464-1.125-.741 4.169.916 11.49-2.384zm52.96-12.893c-.023.187-.51.022-.626 0-.116-.023-.192-.116 0-.322.121-.131.649.138.626.322z"/>
</svg>
